<?xml version="1.0" encoding="UTF-8"?>
<svg width="30px" height="30px" viewBox="0 0 30 30" version="1.1" xmlns="http://www.w3.org/2000/svg" xmlns:xlink="http://www.w3.org/1999/xlink">
    <!-- Generator: sketchtool 41.2 (35397) - http://www.bohemiancoding.com/sketch -->
    <title>F0FBDAB8-8985-4F27-A942-1239BE4414C3</title>
    <desc>Created with sketchtool.</desc>
    <defs></defs>
    <g id="Icons" stroke="none" stroke-width="1" fill="none" fill-rule="evenodd">
        <g id="icons_web" transform="translate(-216.000000, -450.000000)" fill="#FFFFFF">
            <g id="ageLimit" transform="translate(216.000000, 450.000000)">
                <g>
                    <g>
                        <path d="M28,20.0504658 C28,20.8885604 27.7506427,21.5225687 27.161957,22.0889454 L22.1119513,27.1395602 C21.5229677,27.7282822 20.8660588,28 20.0512534,28 L9.95034818,28 C9.1352449,28 8.47833601,27.7282822 7.8896503,27.1395602 L2.83934664,22.0889454 C2.25066094,21.4999255 1.97866193,20.8885604 2.00130369,20.0504658 L2.00130369,10.06275 C2.00130369,9.22465537 2.2733027,8.49977655 2.88463016,7.88870936 L8.02550085,2.67929458 C8.54626128,2.15850207 9.20317017,2 9.95034818,2 L20.0512534,2 C20.7984314,2 21.4550424,2.15850207 21.9761008,2.67929458 L27.1166735,7.88870936 C27.7053592,8.49977655 28,9.22465537 28,10.06275 L28,20.0504658 Z M23.3728706,1.31813083 C22.4883577,0.454723744 21.3766717,0 20.0372154,0 L9.96188903,0 C8.62302977,0 7.48835775,0.454723744 6.62623388,1.31813083 L1.2931858,6.63609661 C0.453749403,7.47708142 0,8.59072109 0,9.81796696 L0,20.0673385 C0,21.4763543 0.476735392,22.5672727 1.42931062,23.4991425 L6.49010906,28.5671746 C7.48835775,29.5669092 8.6003423,30.0216329 10.03025,29.9992106 L19.96975,29.9992106 C21.3539842,29.9992106 22.4883577,29.5896304 23.5092939,28.5671746 L28.5700923,23.4991425 C29.5002786,22.5672727 30,21.453633 30,20.0673385 L30,9.81796696 C30,8.59072109 29.5456536,7.47708142 28.7062172,6.63609661 L23.3728706,1.31813083 L23.3728706,1.31813083 Z" id="Fill-3"></path>
                        <path d="M13.0827143,20.25 L13.0827143,18.2597143 L9.07128571,18.2597143 L10.7684286,16.2231429 C12.3112857,14.742 13.021,13.9088571 13.021,12.4122857 L13.021,12.366 C13.021,10.4991429 11.725,9.32657143 9.70385714,9.32657143 C8.14557143,9.32657143 7.23528571,9.92828571 6.34042857,11.0082857 L7.49757143,12.5048571 C8.19185714,11.7334286 8.73185714,11.3477143 9.47242857,11.3477143 C10.2284286,11.3477143 10.7684286,11.8105714 10.7684286,12.6128571 C10.7684286,13.3842857 10.3518571,13.986 9.241,15.1431429 L6.18614286,18.4602857 L6.18614286,20.25 L13.0827143,20.25 Z M18.0630571,20.25 L18.0630571,9.37285714 L16.5356285,9.37285714 L13.8664857,10.1751429 L14.2059143,12.1037143 L15.8567714,11.6717143 L15.8567714,20.25 L18.0630571,20.25 Z" id="21"></path>
                        <polygon id="Combined-Shape" points="24 14 24 12 22 12 22 14 20 14 20 16 22 16 22 18 24 18 24 16 26 16 26 14"></polygon>
                    </g>
                </g>
            </g>
        </g>
    </g>
</svg>