<?xml version="1.0" encoding="UTF-8"?>
<svg width="33px" height="32px" viewBox="0 0 33 32" version="1.1" xmlns="http://www.w3.org/2000/svg" xmlns:xlink="http://www.w3.org/1999/xlink">
    <!-- Generator: sketchtool 41.2 (35397) - http://www.bohemiancoding.com/sketch -->
    <title>EB672971-79AC-4643-8410-61729596B49C</title>
    <desc>Created with sketchtool.</desc>
    <defs></defs>
    <g id="Icons" stroke="none" stroke-width="1" fill="none" fill-rule="evenodd">
        <g id="icons_web" transform="translate(-400.000000, -600.000000)" fill="#171A1E">
            <g id="amazonBigDark" transform="translate(400.000000, 600.000000)">
                <g>
                    <g>
                        <path d="M28.2205418,25.9103647 C28.0561163,25.9090352 27.8875802,25.9469251 27.7306909,26.0180517 C27.5525634,26.0871841 27.3723805,26.1662876 27.2031592,26.2360847 L26.9517253,26.3377891 L26.6249297,26.4627593 L26.6249297,26.4667477 C23.0843015,27.8606965 19.3655456,28.6763261 15.9242578,28.7487822 C15.7981982,28.7521059 15.6714536,28.7521059 15.5467643,28.7521059 C10.1364815,28.7547648 5.72028771,26.3191766 1.26367262,23.919484 C1.10746843,23.8403806 0.950579141,23.7985023 0.793689847,23.7985023 C0.592268658,23.7985023 0.387421938,23.8709584 0.238068811,24.007229 C0.0880305784,24.1434996 -0.00103321279,24.3422553 0.000336999382,24.54367 C-0.000348106704,24.8062402 0.14557949,25.0462095 0.347685785,25.2024221 C4.52957333,28.724187 9.11224794,31.9973411 15.2747772,32 C15.3953559,32 15.5173047,31.9973411 15.6413089,31.9946821 C19.5608009,31.9089313 23.9961777,30.6246637 27.4367804,28.5274255 L27.4566485,28.5134661 C27.9074483,28.2522253 28.3582481,27.9550889 28.7830139,27.6253804 C29.0481499,27.4346015 29.2297031,27.1387945 29.2269626,26.8296929 C29.2187414,26.2826161 28.738482,25.9103647 28.2205418,25.9103647 Z M32.9948406,23.9654836 L32.9948406,23.9641542 C32.9811384,23.6291278 32.9078321,23.3758639 32.7646449,23.1644782 L32.7509428,23.1452009 L32.73313,23.1245941 C32.5872024,22.9703757 32.4481259,22.911879 32.2953473,22.846735 C31.8445474,22.6778924 31.1875307,22.5881532 30.3955481,22.5854942 C29.82691,22.5854942 29.1979826,22.6373436 28.5690553,22.7709552 L28.567685,22.7304064 L27.9319066,22.9358095 L27.92163,22.9411273 L27.5626344,23.0541323 L27.5626344,23.0694212 C27.1426644,23.2382638 26.7596901,23.4496495 26.40412,23.698925 C26.1855712,23.8597908 25.9999074,24.0718412 25.9896308,24.3968965 C25.9848351,24.5743807 26.0766393,24.7777895 26.2321584,24.8987713 C26.3856222,25.019753 26.5637497,25.0596371 26.7213241,25.0596371 C26.7583199,25.0596371 26.7925752,25.0583076 26.8234049,25.0529897 L26.8542347,25.0503308 L26.8782134,25.0463424 C27.1885665,24.9825279 27.6414216,24.9399848 28.1696384,24.8661993 C28.6231786,24.8190031 29.1048082,24.7824427 29.523408,24.7824427 C29.8186888,24.7811132 30.0831397,24.8003905 30.266063,24.8389451 C30.356497,24.8575577 30.4243225,24.8808234 30.4640587,24.899436 C30.4757055,24.9047539 30.4846119,24.9100718 30.4907778,24.9133954 C30.498314,24.9379906 30.5099608,25.0004757 30.5085906,25.0895502 C30.5127012,25.4292296 30.362663,26.0567393 30.1605567,26.6702895 C29.962561,27.2845044 29.7220888,27.9000488 29.5610889,28.3088607 C29.5240931,28.4039178 29.4994293,28.5062869 29.4994293,28.6192918 C29.497374,28.7841461 29.5651995,28.9829018 29.7124973,29.115184 C29.8556845,29.2474662 30.0406631,29.2986508 30.1968673,29.2986508 L30.2044035,29.2986508 C30.4387098,29.2966566 30.6367054,29.2069174 30.8079819,29.0766294 C32.4186663,27.6713801 32.978398,25.4292296 33.0003214,24.1655688 L32.9948406,23.9654836 Z" id="Combined-Shape"></path>
                        <path d="M17.466226,17.3083642 C16.9565071,18.2941659 16.0816266,18.9303171 15.13481,19.1470206 C14.9902526,19.1470206 14.7717038,19.2161531 14.5517847,19.2161531 C12.9513769,19.2161531 12.0038752,18.0143126 12.0038752,16.2481123 C12.0038752,13.9873493 13.3877895,12.9270973 15.1341249,12.4331993 C16.0816266,12.2218137 17.1730006,12.1493576 18.2657448,12.1493576 L18.2657448,12.9988886 C18.2664299,14.6235005 18.3383661,15.8938086 17.466226,17.3083642 L17.466226,17.3083642 Z M18.2664299,8.90212819 C17.3189282,8.97192534 16.2268691,9.04105776 15.13481,9.1813168 C13.4604107,9.39602613 11.7846413,9.67654421 10.4020972,10.3140249 C7.70826004,11.3729474 5.88793317,13.6343751 5.88793317,16.9540606 C5.88793317,21.1232771 8.65439155,23.2431164 12.1498028,23.2431164 C13.313798,23.2431164 14.26267,23.1001984 15.1341249,22.8894775 C16.5180392,22.4653767 17.6827195,21.6889664 19.0673189,20.2737461 C19.8675229,21.3346628 20.0867568,21.8305549 21.469986,22.9599393 C21.8330922,23.1001984 22.1968835,23.1001984 22.4873685,22.8894775 C23.362249,22.1828644 24.8920909,20.9098973 25.6922948,20.2046137 C26.0574563,19.9221014 25.9848351,19.4980006 25.7642309,19.1470206 C24.9653972,18.1559011 24.1624529,17.3083642 24.1624529,15.3999107 L24.1624529,9.04105776 C24.1624529,6.35619398 24.382372,3.88338059 22.3428111,2.0487126 C20.6697821,0.565689299 18.0478811,0 16.0083203,0 L15.1341249,0 C11.4222201,0.208061987 7.48902609,1.76354137 6.61483073,6.21593494 C6.46890313,6.78295371 6.90668592,6.99234516 7.19922622,7.06280705 L11.2749223,7.55670499 C11.7140753,7.48757258 11.9305688,7.13193947 12.0038752,6.78162424 C12.3683516,5.22614485 13.6782745,4.44840516 15.1341249,4.30681665 L15.4266652,4.30681665 C16.3001755,4.30681665 17.2469921,4.66178502 17.7560259,5.36773336 C18.3383661,6.21593494 18.2657448,7.34731354 18.2657448,8.33643889 L18.2657448,8.90212819 L18.2664299,8.90212819 Z" id="Fill-6"></path>
                    </g>
                </g>
            </g>
        </g>
    </g>
</svg>
