<?xml version="1.0" encoding="UTF-8"?>
<svg width="26px" height="32px" viewBox="0 0 26 32" version="1.1" xmlns="http://www.w3.org/2000/svg" xmlns:xlink="http://www.w3.org/1999/xlink">
    <!-- Generator: sketchtool 41.2 (35397) - http://www.bohemiancoding.com/sketch -->
    <title>C2AE5038-F65F-4BC6-B59A-1232353E669D</title>
    <desc>Created with sketchtool.</desc>
    <defs></defs>
    <g id="Icons" stroke="none" stroke-width="1" fill="none" fill-rule="evenodd">
        <g id="icons_web" transform="translate(-100.000000, -600.000000)" fill="#171A1E">
            <g id="appStoreBigDark" transform="translate(100.000000, 600.000000)">
                <g>
                    <path d="M21.7160658,17.0042027 C21.6758289,12.9507358 25.0141954,11.0059563 25.1634614,10.9083921 C23.2872527,8.15838272 20.3642351,7.78113452 19.323267,7.7388567 C16.8383126,7.4851898 14.471473,9.20622214 13.2104998,9.20622214 C11.9521225,9.20622214 10.0038768,7.77593109 7.942708,7.81235506 C5.23125867,7.85268159 2.73202666,9.39289496 1.33671406,11.8254955 C-1.47922146,16.7206162 0.616343371,23.9767903 3.36024182,27.9502546 C4.70168887,29.891782 6.30143099,32.0778703 8.39959175,31.9978677 C10.4231195,31.917865 11.1856741,30.6866049 13.6316895,30.6866049 C16.077056,30.6866049 16.7636796,31.9978677 18.9033752,31.9562403 C21.0787649,31.9172146 22.4578529,29.976988 23.7882673,28.0270051 C25.327654,25.771321 25.962359,23.5865335 26,23.4753103 C25.9526243,23.4538462 21.7588987,21.8433866 21.7160658,17.0042027 Z M17.6954239,5.10911149 C18.8084291,3.75492051 19.5625468,1.87258205 19.3581173,0 C17.7512364,0.0650427942 15.8068845,1.06995396 14.6536424,2.42284408 C13.6211111,3.62353407 12.7170783,5.53449136 12.9591488,7.37390158 C14.7509898,7.51374359 16.5785248,6.46070075 17.6954239,5.10911149 Z"></path>
                </g>
            </g>
        </g>
    </g>
</svg>
