<?xml version="1.0" encoding="UTF-8"?>
<svg width="20px" height="24px" viewBox="0 0 20 24" version="1.1" xmlns="http://www.w3.org/2000/svg" xmlns:xlink="http://www.w3.org/1999/xlink">
    <!-- Generator: sketchtool 42 (36781) - http://www.bohemiancoding.com/sketch -->
    <title>A3BBBB12-E7FF-437D-B802-84A63AE77855</title>
    <desc>Created with sketchtool.</desc>
    <defs></defs>
    <g id="Icons" stroke="none" stroke-width="1" fill="none" fill-rule="evenodd">
        <g id="icons_web" transform="translate(-200.000000, -600.000000)" fill="#4C3000">
            <g id="appStoreBrown" transform="translate(200.000000, 600.000000)">
                <g>
                    <path d="M16.704666,12.7531521 C16.7376144,16.38254 19.9635571,17.5903847 20,17.6064827 C19.9710454,17.6899001 19.4828108,19.3284907 18.2986671,21.0202538 C17.2752715,22.482741 16.2144345,23.9379109 14.5410579,23.9671802 C12.8951381,23.9984007 12.3669661,23.0149537 10.485915,23.0149537 C8.60436467,23.0149537 8.01778424,23.9383988 6.46122442,23.9984007 C4.84725461,24.0584027 3.61668375,22.4188365 2.5848014,20.9626909 C0.474110285,17.9825927 -1.13786266,12.5404621 1.02824159,8.86912159 C2.10155897,7.04467122 4.02404513,5.88951119 6.10977538,5.85926629 C7.69528981,5.83194832 9.19394041,6.9046666 10.1619229,6.9046666 C11.1319023,6.9046666 12.9525481,5.61389235 14.8640515,5.80414252 C15.6647962,5.83585089 17.9132713,6.11878704 19.3565088,8.18129405 C19.2416888,8.25446719 16.6737145,9.71305185 16.704666,12.7531521 Z M13.6118645,3.83183361 C12.7527114,4.84552556 11.3469152,5.63530769 9.96857603,5.53042619 C9.78236795,4.15086852 10.4777778,2.71765055 11.2720326,1.81713306 C12.1591419,0.802465474 13.6547972,0.0487820957 14.8908595,0 C15.048113,1.40443653 14.4680224,2.81619038 13.6118645,3.83183361 Z"></path>
                </g>
            </g>
        </g>
    </g>
</svg>
