<?xml version="1.0" encoding="UTF-8"?>
<svg width="8px" height="14px" viewBox="0 0 8 14" version="1.1" xmlns="http://www.w3.org/2000/svg" xmlns:xlink="http://www.w3.org/1999/xlink">
    <!-- Generator: sketchtool 41.2 (35397) - http://www.bohemiancoding.com/sketch -->
    <title>AF45CAAF-7ADF-4E39-BAF8-3B8875DA1861</title>
    <desc>Created with sketchtool.</desc>
    <defs></defs>
    <g id="Icons" stroke="none" stroke-width="1" fill="none" fill-rule="evenodd">
        <g id="icons_web" transform="translate(-100.000000, -200.000000)" fill="#FFFFFF">
            <g id="arrowForward" transform="translate(100.000000, 200.000000)">
                <g>
                    <path d="M7.69121889,7.72335057 C7.69667884,7.71812875 7.70209418,7.71283311 7.70746365,7.70746365 C7.90469807,7.51022922 8.00231919,7.25110301 8.00032698,6.99260195 C7.998463,6.73915235 7.90084862,6.4862897 7.70748467,6.29291425 C7.70211545,6.2875447 7.69670035,6.28224898 7.69124064,6.27702708 L1.70710678,0.292893219 C1.31658249,-0.0976310729 0.683417511,-0.0976310729 0.292893219,0.292893219 C-0.0976310729,0.683417511 -0.0976310729,1.31658249 0.292893219,1.70710678 L5.58594384,7.0001574 L0.292914247,12.2928722 C-0.097621658,12.6833849 -0.0976404869,13.3165498 0.292872191,13.7070858 C0.68338487,14.0976217 1.31654985,14.0976405 1.70708575,13.7071278 L7.6912189,7.72335057 Z"></path>
                </g>
            </g>
        </g>
    </g>
</svg>
