<?xml version="1.0" encoding="UTF-8"?>
<svg width="22px" height="22px" viewBox="0 0 22 22" version="1.1" xmlns="http://www.w3.org/2000/svg" xmlns:xlink="http://www.w3.org/1999/xlink">
    <!-- Generator: sketchtool 41.2 (35397) - http://www.bohemiancoding.com/sketch -->
    <title>2F74ED31-C058-4413-BDC4-327A699E861D</title>
    <desc>Created with sketchtool.</desc>
    <defs></defs>
    <g id="Icons" stroke="none" stroke-width="1" fill="none" fill-rule="evenodd">
        <g id="icons_web" transform="translate(-100.000000, -50.000000)" fill="#FFFFFF">
            <g id="comments" transform="translate(100.000000, 50.000000)">
                <g>
                    <path d="M7,9 C7,8.44771525 7.45303631,8 7.99703014,8 L14.0029699,8 C14.5536144,8 15,8.44386482 15,9 C15,9.55228475 14.5469637,10 14.0029699,10 L7.99703014,10 C7.4463856,10 7,9.55613518 7,9 L7,9 Z M7.99703014,12 L11.0029699,12 C11.5536144,12 12,12.4438648 12,13 C12,13.5522847 11.5469637,14 11.0029699,14 L7.99703014,14 C7.4463856,14 7,13.5561352 7,13 C7,12.4477153 7.45303631,12 7.99703014,12 Z M0,11 C0,4.92486775 4.92486775,0 11,0 C17.0751322,0 22,4.92486775 22,11 C22,17.0751322 17.0751322,22 11,22 L1,22 C0.44771525,22 0,21.5522847 0,21 C0,20.4477153 0.44771525,20 1,20 L11,20 C15.9705627,20 20,15.9705627 20,11 C20,6.02943725 15.9705627,2 11,2 C6.02943725,2 2,6.02943725 2,11 C2,13.2856887 2.85663764,15.4290499 4.34776608,17.0628486 L2.76505076,18.2938494 C1.00792621,16.3124473 0,13.7384838 0,11 Z"></path>
                </g>
            </g>
        </g>
    </g>
</svg>