<?xml version="1.0" encoding="UTF-8"?>
<svg width="40px" height="40px" viewBox="0 0 40 40" version="1.1" xmlns="http://www.w3.org/2000/svg" xmlns:xlink="http://www.w3.org/1999/xlink">
    <!-- Generator: sketchtool 41.2 (35397) - http://www.bohemiancoding.com/sketch -->
    <title>CAD498E5-D3A7-470D-8A6C-D5367215A239</title>
    <desc>Created with sketchtool.</desc>
    <defs></defs>
    <g id="Icons" stroke="none" stroke-width="1" fill="none" fill-rule="evenodd">
        <g id="icons_web" transform="translate(-100.000000, -250.000000)">
            <g id="gif" transform="translate(100.000000, 250.000000)">
                <g>
                    <g>
                        <circle id="Oval-40" fill-opacity="0.400000006" fill="#000000" cx="20" cy="20" r="20"></circle>
                        <path d="M20,16 L22,16 L22,24 L20,24 L20,16 Z M12.3333333,16 C11.5333333,16 11,16.6666667 11,17.3333333 L11,22.6666667 C11,23.3333333 11.5333333,24 12.3333333,24 L16.6818034,24 C17.4818034,24.0473633 18.0151367,23.3806966 18.0151367,22.7140299 L18.0151367,20 L16.0151367,20 L16.0151367,22 L13,22 L13,18 L18.0151367,18 L18.0151367,17.4953156 C18.0151367,16.6694756 17.3410472,16 16.5223098,16 L12.3333333,16 Z M30,18 L30,16 L24,16 L24,24 L26,24 L26,21.5 L28.6666667,21.5 L28.6666667,19.5 L26,19.5 L26,18 L30,18 Z" id="Shape" fill="#FFFFFF"></path>
                    </g>
                </g>
            </g>
        </g>
    </g>
</svg>