<?xml version="1.0" encoding="UTF-8"?>
<svg width="20px" height="22px" viewBox="0 0 20 22" version="1.1" xmlns="http://www.w3.org/2000/svg" xmlns:xlink="http://www.w3.org/1999/xlink">
    <!-- Generator: sketchtool 42 (36781) - http://www.bohemiancoding.com/sketch -->
    <title>656CD83B-655B-40EB-903E-D240C4113B4F</title>
    <desc>Created with sketchtool.</desc>
    <defs></defs>
    <g id="Icons" stroke="none" stroke-width="1" fill="none" fill-rule="evenodd">
        <g id="icons_web" transform="translate(-400.000000, -600.000000)" fill="#4C3000">
            <g id="googlePlayBrown" transform="translate(400.000000, 600.000000)">
                <g>
                    <path d="M0.78744335,-1.77635684e-15 L11.4689528,10.9920644 L0.771896265,22 C0.271081632,21.9286651 0,21.4148146 0,20.6895193 L0,1.27737311 C0,0.49627268 0.353613502,0.10529582 0.78744335,-1.77635684e-15 Z M12.1715653,10.2689705 L3.1479706,0.983142119 C6.59958902,2.92608038 14.7462619,7.51216557 14.7462619,7.51216557 C14.7690864,7.5249649 14.7909184,7.53725226 14.8135775,7.55005159 L12.1715653,10.2689705 Z M19.3844041,10.1227169 C20.4573184,10.7263333 19.908374,11.4814937 19.3844041,11.7774142 C19.230918,11.864279 17.7362477,12.7083521 15.6739433,13.8732618 L12.8743101,10.9920473 L15.7220731,8.06134215 C17.6538812,9.14860255 19.0876864,9.95564295 19.3844041,10.1227169 Z M12.1715653,11.7151412 L14.7666054,14.3855934 C14.7608166,14.3888359 14.7551932,14.3920784 14.7494044,14.3953209 L14.7490736,14.3951502 C10.9694779,16.5297371 5.85415588,19.4188018 3.26407756,20.8816799 L12.1715653,11.7151412 Z"></path>
                </g>
            </g>
        </g>
    </g>
</svg>
