<?xml version="1.0" encoding="UTF-8"?>
<svg width="20px" height="22px" viewBox="0 0 20 22" version="1.1" xmlns="http://www.w3.org/2000/svg" xmlns:xlink="http://www.w3.org/1999/xlink">
    <!-- Generator: sketchtool 41.2 (35397) - http://www.bohemiancoding.com/sketch -->
    <title>85E5F37C-9DB6-47FD-BC29-4BE0ECA5C349</title>
    <desc>Created with sketchtool.</desc>
    <defs></defs>
    <g id="Icons" stroke="none" stroke-width="1" fill="none" fill-rule="evenodd">
        <g id="icons_web" transform="translate(-250.000000, -250.000000)" fill="#FFFFFF">
            <g id="googlePlay" transform="translate(250.000000, 250.000000)">
                <g>
                    <path d="M0.78744335,-1.77635684e-15 C0.353613502,0.10529582 0,0.49627268 0,1.27737311 L0,20.6895193 C0,21.4148146 0.271081632,21.9286651 0.771896265,22 L11.4689528,10.9920644 L0.78744335,-1.77635684e-15 Z M12.1715653,10.2689705 L14.8135775,7.55005159 C14.7909184,7.53725226 14.7690864,7.5249649 14.7462619,7.51216557 C14.7462619,7.51216557 6.59958902,2.92608038 3.1479706,0.983142119 L12.1715653,10.2689705 Z M19.3844041,10.1227169 C19.0876864,9.95564295 17.6538812,9.14860255 15.7220731,8.06134215 L12.8743101,10.9920473 L15.6739433,13.8732618 C17.7362477,12.7083521 19.230918,11.864279 19.3844041,11.7774142 C19.908374,11.4814937 20.4573184,10.7263333 19.3844041,10.1227169 Z M12.1715653,11.7151412 L3.26407756,20.8816799 C5.85415588,19.4188018 10.9694779,16.5297371 14.7490736,14.3951502 L14.7494044,14.3953209 C14.7551932,14.3920784 14.7608166,14.3888359 14.7666054,14.3855934 L12.1715653,11.7151412 Z"></path>
                </g>
            </g>
        </g>
    </g>
</svg>