<?xml version="1.0" encoding="UTF-8"?>
<svg width="14px" height="16px" viewBox="0 0 14 16" version="1.1" xmlns="http://www.w3.org/2000/svg" xmlns:xlink="http://www.w3.org/1999/xlink">
    <!-- Generator: sketchtool 41.2 (35397) - http://www.bohemiancoding.com/sketch -->
    <title>91CBB291-B4F6-478F-A919-27C66555F315</title>
    <desc>Created with sketchtool.</desc>
    <defs></defs>
    <g id="Icons" stroke="none" stroke-width="1" fill="none" fill-rule="evenodd">
        <g id="icons_web" transform="translate(-201.000000, -150.000000)" fill="#FFFFFF">
            <g id="hashtag" transform="translate(200.000000, 150.000000)">
                <g id="Line">
                    <g transform="translate(1.000000, 0.000000)">
                        <path d="M1.76555469,15.0980458 C1.6816327,15.5036687 1.94242285,15.9005233 2.3480458,15.9844453 C2.75366874,16.0683673 3.15052333,15.8075771 3.23444531,15.4019542 L6.23444531,0.901954203 C6.3183673,0.496331256 6.05757715,0.0994766744 5.6519542,0.0155546854 C5.24633126,-0.0683673036 4.84947667,0.19242285 4.76555469,0.598045797 L1.76555469,15.0980458 Z"></path>
                        <path d="M7.76555469,15.0980458 C7.6816327,15.5036687 7.94242285,15.9005233 8.3480458,15.9844453 C8.75366874,16.0683673 9.15052333,15.8075771 9.23444531,15.4019542 L12.2344453,0.901954203 C12.3183673,0.496331256 12.0575771,0.0994766744 11.6519542,0.0155546854 C11.2463313,-0.0683673036 10.8494767,0.19242285 10.7655547,0.598045797 L7.76555469,15.0980458 Z"></path>
                        <path d="M12,12 C12.4142136,12 12.75,11.6642136 12.75,11.25 C12.75,10.8357864 12.4142136,10.5 12,10.5 L0.75,10.5 C0.335786438,10.5 0,10.8357864 0,11.25 C0,11.6642136 0.335786438,12 0.75,12 L12,12 Z"></path>
                        <path d="M13.25,5.5 C13.6642136,5.5 14,5.16421356 14,4.75 C14,4.33578644 13.6642136,4 13.25,4 L2,4 C1.58578644,4 1.25,4.33578644 1.25,4.75 C1.25,5.16421356 1.58578644,5.5 2,5.5 L13.25,5.5 Z"></path>
                    </g>
                </g>
            </g>
        </g>
    </g>
</svg>