<?xml version="1.0" encoding="UTF-8"?>
<svg width="64px" height="64px" viewBox="0 0 64 64" version="1.1" xmlns="http://www.w3.org/2000/svg" xmlns:xlink="http://www.w3.org/1999/xlink">
    <!-- Generator: sketchtool 41.2 (35397) - http://www.bohemiancoding.com/sketch -->
    <title>8489CB38-3958-4F3D-8AD7-AC7B7498EE4D</title>
    <desc>Created with sketchtool.</desc>
    <defs></defs>
    <g id="Icons" stroke="none" stroke-width="1" fill="none" fill-rule="evenodd">
        <g id="icons_web" transform="translate(-250.000000, -350.000000)">
            <g id="ifunnyApp" transform="translate(250.000000, 350.000000)">
                <g>
                    <g>
                        <rect id="Rectangle" fill="#000000" x="0" y="0" width="64" height="64" rx="14"></rect>
                        <path d="M49.8316415,38.6192264 C46.3860566,45.3468868 39.5533962,49.5261509 32.0001321,49.5261509 C24.4467358,49.5261509 17.6140755,45.3468868 14.1684906,38.6189623 C13.8692075,38.0346604 14.1002075,37.318283 14.6846415,37.0191321 C15.2689434,36.7201132 15.9851887,36.9509811 16.2844717,37.535283 C19.3214151,43.4650755 25.3432642,47.1487925 32.0001321,47.1487925 C38.6568679,47.1487925 44.678717,43.4652075 47.7156604,37.5355472 C48.0148113,36.9515094 48.7309245,36.7199811 49.3154906,37.0193962 C49.8997925,37.3185472 50.1309245,38.0349245 49.8316415,38.6192264 M23.5471698,18.2658679 C25.3490755,18.2658679 26.4538868,20.4831509 26.4538868,23.2183019 C26.4538868,25.9534528 25.3490755,28.1696792 23.5471698,28.1707358 C21.717,28.1716604 20.6404528,25.9534528 20.6404528,23.2183019 C20.6404528,20.4831509 21.717,18.2658679 23.5471698,18.2658679 M40.4528302,18.2658679 C42.2547358,18.2658679 43.3595472,20.4831509 43.3595472,23.2183019 C43.3595472,25.9534528 42.2547358,28.1696792 40.4528302,28.1707358 C38.6226604,28.1716604 37.5461132,25.9534528 37.5461132,23.2183019 C37.5461132,20.4831509 38.6226604,18.2658679 40.4528302,18.2658679 M32,4 C16.5360755,4 4,16.5359434 4,32 C4,47.4639245 16.5360755,60 32,60 C47.4639245,60 60,47.4639245 60,32 C60,16.5359434 47.4639245,4 32,4" id="ifunnyLogo" fill="#FFCC00"></path>
                    </g>
                </g>
            </g>
        </g>
    </g>
</svg>
