<?xml version="1.0" encoding="UTF-8"?>
<svg width="12px" height="12px" viewBox="0 0 12 12" version="1.1" xmlns="http://www.w3.org/2000/svg" xmlns:xlink="http://www.w3.org/1999/xlink">
    <!-- Generator: sketchtool 41.2 (35397) - http://www.bohemiancoding.com/sketch -->
    <title>4199F8AA-97C8-4B6B-AE1A-4456C088244F</title>
    <desc>Created with sketchtool.</desc>
    <defs></defs>
    <g id="Icons" stroke="none" stroke-width="1" fill="none" fill-rule="evenodd">
        <g id="icons_web" transform="translate(-550.000000, -450.000000)" fill="#171A1E">
            <g id="instagramSmallDark" transform="translate(550.000000, 450.000000)">
                <g>
                    <g>
                        <path d="M5.99810714,2.38095242e-06 C4.36913095,2.38095242e-06 4.16484524,0.00690714286 3.52510714,0.036097619 C2.88665476,0.0652166667 2.45065476,0.166621429 2.06910714,0.314907143 C1.67470238,0.468169048 1.34017857,0.673264286 1.00672619,1.00671667 C0.67327381,1.34019286 0.468178571,1.67469286 0.314892857,2.06912143 C0.166607143,2.45064524 0.0652261905,2.88666905 0.0360833333,3.52509762 C0.00689285714,4.16485952 1.19047618e-05,4.36909762 1.19047618e-05,5.99809762 C1.19047618e-05,7.62709762 0.00689285714,7.83135952 0.0360833333,8.47112143 C0.0652261905,9.10955 0.166607143,9.54557381 0.314892857,9.92709762 C0.468178571,10.3215024 0.67327381,10.6560262 1.00672619,10.9895024 C1.34017857,11.3229548 1.67470238,11.5280262 2.06910714,11.6813357 C2.45065476,11.8295976 2.88665476,11.9310024 3.52510714,11.9601452 C4.16484524,11.9893119 4.36913095,11.9962167 5.99810714,11.9962167 C7.62710714,11.9962167 7.83134524,11.9893119 8.47110714,11.9601452 C9.10955952,11.9310024 9.54555952,11.8295976 9.92710714,11.6813357 C10.3215357,11.5280262 10.6560357,11.3229548 10.9894881,10.9895024 C11.3229643,10.6560262 11.5280357,10.3215262 11.6813214,9.92709762 C11.8296071,9.54557381 11.9310119,9.10955 11.9601071,8.47112143 C11.9893214,7.83135952 11.9962262,7.62709762 11.9962262,5.99809762 C11.9962262,4.36912143 11.9893214,4.16485952 11.9601071,3.52509762 C11.9310119,2.88666905 11.8296071,2.45064524 11.6813214,2.06912143 C11.5280357,1.67469286 11.3229643,1.34019286 10.9894881,1.00671667 C10.6560357,0.673264286 10.3215357,0.468169048 9.92710714,0.314907143 C9.54555952,0.166621429 9.10955952,0.0652166667 8.47110714,0.036097619 C7.83134524,0.00690714286 7.62710714,2.38095242e-06 5.99810714,2.38095242e-06 M5.99810714,1.08074048 C7.59967857,1.08074048 7.78936905,1.08683571 8.42184524,1.11569286 C9.00665476,1.14238333 9.32425,1.24009762 9.53560714,1.32224048 C9.81558333,1.43105 10.0154167,1.56102619 10.2252976,1.77090714 C10.4351786,1.9808119 10.5651548,2.18062143 10.6739881,2.46059762 C10.7561071,2.67195476 10.8538214,2.98957381 10.8805119,3.57435952 C10.9093452,4.20683571 10.9154643,4.39655 10.9154643,5.99809762 C10.9154643,7.59966905 10.9093452,7.78938333 10.8805119,8.42183571 C10.8538214,9.00666905 10.7561071,9.32426429 10.6739881,9.53562143 C10.5651548,9.81557381 10.4351786,10.0154071 10.2252976,10.2252881 C10.0154167,10.4351929 9.81558333,10.565169 9.53560714,10.6739786 C9.32425,10.7560976 9.00665476,10.8538357 8.42184524,10.8805024 C7.78946429,10.9093595 7.59979762,10.9154786 5.99810714,10.9154786 C4.39641667,10.9154786 4.20675,10.9093595 3.57436905,10.8805024 C2.98955952,10.8538357 2.67194048,10.7560976 2.46058333,10.6739786 C2.18063095,10.565169 1.98079762,10.4351929 1.77094048,10.2252881 C1.56103571,10.0154071 1.43103571,9.81557381 1.32222619,9.53562143 C1.24010714,9.32426429 1.14239286,9.00666905 1.11570238,8.42185952 C1.08684524,7.78938333 1.08075,7.59966905 1.08075,5.99809762 C1.08075,4.39655 1.08684524,4.20683571 1.11570238,3.57435952 C1.14239286,2.98957381 1.24010714,2.67195476 1.32222619,2.46059762 C1.43103571,2.18062143 1.56103571,1.9808119 1.77091667,1.77093095 C1.98079762,1.56102619 2.18063095,1.43105 2.46058333,1.32224048 C2.67194048,1.24009762 2.98955952,1.14238333 3.57434524,1.11569286 C4.20684524,1.08683571 4.39653571,1.08074048 5.99810714,1.08074048" id="Fill-1"></path>
                        <path d="M5.99810714,7.99747857 C4.89389286,7.99747857 3.99872619,7.1023119 3.99872619,5.99809762 C3.99872619,4.89388333 4.89389286,3.99874048 5.99810714,3.99874048 C7.10232143,3.99874048 7.9974881,4.89388333 7.9974881,5.99809762 C7.9974881,7.1023119 7.10232143,7.99747857 5.99810714,7.99747857 M5.99810714,2.91800238 C4.2970119,2.91800238 2.9179881,4.29700238 2.9179881,5.99809762 C2.9179881,7.69921667 4.2970119,9.07821667 5.99810714,9.07821667 C7.69920238,9.07821667 9.07820238,7.69921667 9.07820238,5.99809762 C9.07820238,4.29700238 7.69920238,2.91800238 5.99810714,2.91800238" id="Fill-4"></path>
                        <path d="M9.91968095,2.79630714 C9.91968095,3.19383095 9.59744286,3.51606905 9.19991905,3.51606905 C8.80239524,3.51606905 8.48013333,3.19383095 8.48013333,2.79630714 C8.48013333,2.39878333 8.80239524,2.07652143 9.19991905,2.07652143 C9.59744286,2.07652143 9.91968095,2.39878333 9.91968095,2.79630714" id="Fill-6"></path>
                    </g>
                </g>
            </g>
        </g>
    </g>
</svg>
