<?xml version="1.0" encoding="UTF-8"?>
<svg width="18px" height="18px" viewBox="0 0 18 18" version="1.1" xmlns="http://www.w3.org/2000/svg" xmlns:xlink="http://www.w3.org/1999/xlink">
    <!-- Generator: sketchtool 41.2 (35397) - http://www.bohemiancoding.com/sketch -->
    <title>EF63585B-BFDA-4197-BCB2-B892C731D917</title>
    <desc>Created with sketchtool.</desc>
    <defs></defs>
    <g id="Icons" stroke="none" stroke-width="1" fill="none" fill-rule="evenodd">
        <g id="icons_web" transform="translate(-100.000000, -150.000000)" fill="#FFFFFF">
            <g id="replySmall" transform="translate(100.000000, 150.000000)">
                <g>
                    <g>
                        <path d="M2.15336134,14.8426471 C0.784082508,13.2401007 0,11.1845669 0,9 C0,4.02943725 4.02943725,0 9,0 C13.9705627,0 18,4.02943725 18,9 C18,13.9705627 13.9705627,18 9,18 L0.75,18 C0.335786438,18 0,17.6642136 0,17.25 C0,16.8357864 0.335786438,16.5 0.75,16.5 L9,16.5 C13.1421356,16.5 16.5,13.1421356 16.5,9 C16.5,4.85786438 13.1421356,1.5 9,1.5 C4.85786438,1.5 1.5,4.85786438 1.5,9 C1.5,10.8709757 2.18908901,12.6268936 3.38908435,13.977641 L2.15336134,14.8426471 L2.15336134,14.8426471 Z" id="commentsSmall"></path>
                        <path d="M5.08273704,7.49759733 C5.11857201,7.42198156 5.16776868,7.35112132 5.23032703,7.28856297 L7.29922009,5.21966991 C7.5921133,4.9267767 8.06698704,4.9267767 8.35988026,5.21966991 C8.65277348,5.51256313 8.65277348,5.98743687 8.35988026,6.28033009 L7.64974442,6.99046593 L9.50717783,6.99046593 C10.8864924,6.99046593 12,8.10558573 12,9.49046593 L12,12.2404659 C12,12.6546795 11.6642136,12.9904659 11.25,12.9904659 C10.8357864,12.9904659 10.5,12.6546795 10.5,12.2404659 L10.5,9.49046593 C10.5,8.93352741 10.0575791,8.49046593 9.50717783,8.49046593 L7.46065407,8.49046593 L8.34922314,9.379035 C8.64211636,9.67192821 8.64211636,10.1468019 8.34922314,10.4396952 C8.05632992,10.7325884 7.58145618,10.7325884 7.28856297,10.4396952 L5.21966991,8.37080212 C4.98334725,8.13447945 4.93770296,7.77968443 5.08273704,7.49759733 Z" id="Combined-Shape"></path>
                    </g>
                </g>
            </g>
        </g>
    </g>
</svg>