<?xml version="1.0" encoding="UTF-8"?>
<svg width="32px" height="26px" viewBox="0 0 32 26" version="1.1" xmlns="http://www.w3.org/2000/svg" xmlns:xlink="http://www.w3.org/1999/xlink">
    <!-- Generator: sketchtool 41.2 (35397) - http://www.bohemiancoding.com/sketch -->
    <title>42955157-B72A-4C41-8B43-6EBDE9B08C85</title>
    <desc>Created with sketchtool.</desc>
    <defs></defs>
    <g id="Icons" stroke="none" stroke-width="1" fill="none" fill-rule="evenodd">
        <g id="icons_web" transform="translate(-150.000000, -100.000000)" fill="#3388FF">
            <g id="shuffleActive" transform="translate(150.000000, 100.000000)">
                <g>
                    <path d="M0,1.99700466 C0,0.89408944 0.889261723,0 2.00174332,0 L29.9982567,0 C31.103789,0 32,0.894978851 32,1.99700466 L32,24.0029953 C32,25.1059106 31.1107383,26 29.9982567,26 L2.00174332,26 C0.89621101,26 0,25.1050211 0,24.0029953 L0,1.99700466 Z M22.5645086,6 L21.0170199,6 C19.5772407,6 17.8755001,6.91318339 17.0736786,8.11287681 L15.0101318,11.2003765 L13.4932056,8.93073598 C12.3920991,7.28324929 9.99307137,6 8.0093689,6 L7,6 C6.44771525,6 6,6.44771525 6,7 C6,7.55228475 6.44771525,8 7,8 L8.0093689,8 C9.32491749,8 11.1002642,8.9496399 11.8304021,10.0420795 L13.8073439,13 L11.8304021,15.9579205 C11.1002642,17.0503601 9.32491749,18 8.0093689,18 L7,18 C6.44771525,18 6,18.4477153 6,19 C6,19.5522847 6.44771525,20 7,20 L8.0093689,20 C9.99307137,20 12.3920991,18.7167507 13.4932056,17.069264 L18.7364821,9.22422036 C19.1678878,8.57874683 20.2463973,8 21.0170199,8 L22.5897986,8 L21.4493123,9.14048626 C21.0676141,9.52218448 21.065309,10.1576546 21.4558332,10.5481789 C21.8490802,10.9414258 22.476603,10.9416227 22.8635258,10.5546998 L25.7049949,7.71323078 C25.8947817,7.52344394 25.9907732,7.2709184 25.9913177,7.01695873 L25.9943031,7.00932678 C25.994069,6.75633772 25.8973899,6.50445411 25.7049949,6.31205914 L22.8635258,3.47059009 C22.4818276,3.08889188 21.8463575,3.08658676 21.4558332,3.47711105 C21.0625863,3.87035801 21.0623894,4.49788079 21.4493123,4.88480366 L22.5645086,6 Z M22.5897986,20 L21.0170199,20 C19.5772407,20 17.8755001,19.0868166 17.0736786,17.8871232 L16.2084859,16.5926131 L17.4112739,14.7929896 L18.7364821,16.7757796 C19.1678878,17.4212532 20.2463973,18 21.0170199,18 L22.5645086,18 L21.4493123,16.8848037 C21.0623894,16.4978808 21.0625863,15.870358 21.4558332,15.4771111 C21.8463575,15.0865868 22.4818276,15.0888919 22.8635258,15.4705901 L25.7049949,18.3120591 C25.8973899,18.5044541 25.994069,18.7563377 25.9943031,19.0093268 L25.9913177,19.0169587 C25.9907732,19.2709184 25.8947817,19.5234439 25.7049949,19.7132308 L22.8635258,22.5546998 C22.476603,22.9416227 21.8490802,22.9414258 21.4558332,22.5481789 C21.065309,22.1576546 21.0676141,21.5221845 21.4493123,21.1404863 L22.5897986,20 L22.5897986,20 Z"></path>
                </g>
            </g>
        </g>
    </g>
</svg>