<?xml version="1.0" encoding="UTF-8"?>
<svg width="20px" height="20px" viewBox="0 0 20 20" version="1.1" xmlns="http://www.w3.org/2000/svg" xmlns:xlink="http://www.w3.org/1999/xlink">
    <!-- Generator: sketchtool 41.2 (35397) - http://www.bohemiancoding.com/sketch -->
    <title>C3042C8E-E724-4574-890A-CC611C37B041</title>
    <desc>Created with sketchtool.</desc>
    <defs></defs>
    <g id="Icons" stroke="none" stroke-width="1" fill="none" fill-rule="evenodd">
        <g id="icons_web" transform="translate(-150.000000, -50.000000)" fill="#FFFFFF">
            <g id="shuffle" transform="translate(150.000000, 50.000000)">
                <g>
                    <path d="M16.5645086,3 L15.0170199,3 C13.5772407,3 11.8755001,3.91318339 11.0736786,5.11287681 L9.01013184,8.20037647 L7.49320557,5.93073598 C6.3920991,4.28324929 3.99307137,3 2.0093689,3 L1,3 C0.44771525,3 0,3.44771525 0,4 C0,4.55228475 0.44771525,5 1,5 L2.0093689,5 C3.32491749,5 5.10026424,5.9496399 5.83040206,7.04207953 L7.8073439,10 L5.83040206,12.9579205 C5.10026424,14.0503601 3.32491749,15 2.0093689,15 L1,15 C0.44771525,15 0,15.4477153 0,16 C0,16.5522847 0.44771525,17 1,17 L2.0093689,17 C3.99307137,17 6.3920991,15.7167507 7.49320557,14.069264 L12.7364821,6.22422036 C13.1678878,5.57874683 14.2463973,5 15.0170199,5 L16.5897986,5 L15.4493123,6.14048626 C15.0676141,6.52218448 15.065309,7.15765457 15.4558332,7.54817887 C15.8490802,7.94142582 16.476603,7.94162269 16.8635258,7.55469983 L19.7049949,4.71323078 C19.8947817,4.52344394 19.9907732,4.2709184 19.9913177,4.01695873 L19.9943031,4.00932678 C19.994069,3.75633772 19.8973899,3.50445411 19.7049949,3.31205914 L16.8635258,0.470590093 C16.4818276,0.0888918802 15.8463575,0.0865867619 15.4558332,0.477111054 C15.0625863,0.870358009 15.0623894,1.49788079 15.4493123,1.88480366 L16.5645086,3 Z M16.5897986,17 L15.0170199,17 C13.5772407,17 11.8755001,16.0868166 11.0736786,14.8871232 L10.2084859,13.5926131 L11.4112739,11.7929896 L12.7364821,13.7757796 C13.1678878,14.4212532 14.2463973,15 15.0170199,15 L16.5645086,15 L15.4493123,13.8848037 C15.0623894,13.4978808 15.0625863,12.870358 15.4558332,12.4771111 C15.8463575,12.0865868 16.4818276,12.0888919 16.8635258,12.4705901 L19.7049949,15.3120591 C19.8973899,15.5044541 19.994069,15.7563377 19.9943031,16.0093268 L19.9913177,16.0169587 C19.9907732,16.2709184 19.8947817,16.5234439 19.7049949,16.7132308 L16.8635258,19.5546998 C16.476603,19.9416227 15.8490802,19.9414258 15.4558332,19.5481789 C15.065309,19.1576546 15.0676141,18.5221845 15.4493123,18.1404863 L16.5897986,17 Z"></path>
                </g>
            </g>
        </g>
    </g>
</svg>