<?xml version="1.0" encoding="UTF-8"?>
<svg width="32px" height="32px" viewBox="0 0 32 32" version="1.1" xmlns="http://www.w3.org/2000/svg" xmlns:xlink="http://www.w3.org/1999/xlink">
    <!-- Generator: sketchtool 42 (36781) - http://www.bohemiancoding.com/sketch -->
    <title>72FC7338-CA03-496B-9648-CCAFF3E15BC0</title>
    <desc>Created with sketchtool.</desc>
    <defs></defs>
    <g id="Icons" stroke="none" stroke-width="1" fill="none" fill-rule="evenodd">
        <g id="icons_web" transform="translate(-350.000000, -800.000000)">
            <g id="smileyMoustache" transform="translate(350.000000, 800.000000)">
                <g>
                    <g>
                        <path d="M16.0000107,-2.13333333e-05 C24.8365973,-2.13333333e-05 32.0000107,7.16349867 32.0000107,15.9999787 C32.0000107,24.8364587 24.8365973,31.9999787 16.0000107,31.9999787 C7.163424,31.9999787 1.06666667e-05,24.8364587 1.06666667e-05,15.9999787 C1.06666667e-05,7.16349867 7.163424,-2.13333333e-05 16.0000107,-2.13333333e-05" id="Fill-1" fill="#FFCC00"></path>
                        <path d="M27.6045973,19.9896107 C28.3334507,20.3985707 27.3734507,23.8385707 24.1201173,24.7452373 C20.441504,25.7704107 17.2326507,24.2052907 16.0000107,22.2857173 C14.7673707,24.2052907 11.5585173,25.7704107 7.879904,24.7452373 C4.62657067,23.8385707 3.66657067,20.3985707 4.395424,19.9896107 C4.94635733,19.6805973 5.17761067,20.4162773 6.72427733,20.4162773 C9.675424,20.4162773 9.92427733,17.287424 13.195424,17.287424 C14.371104,17.287424 15.4041707,17.8949973 16.0000107,18.8127573 C16.595744,17.8949973 17.629024,17.287424 18.8045973,17.287424 C22.075744,17.287424 22.3245973,20.4162773 25.275744,20.4162773 C26.8224107,20.4162773 27.053664,19.6805973 27.6045973,19.9896107 Z M12.8307413,11.044512 C12.8307413,12.607392 12.199488,13.8738453 11.1698347,13.8744853 C10.1240747,13.8750187 9.50882133,12.607392 9.50882133,11.044512 C9.50882133,9.48152533 10.1240747,8.21453867 11.1698347,8.21453867 C12.199488,8.21453867 12.8307413,9.48152533 12.8307413,11.044512 Z M22.4911573,11.044512 C22.4911573,12.607392 21.859904,13.8738453 20.8302507,13.8744853 C19.784384,13.8750187 19.1691307,12.607392 19.1691307,11.044512 C19.1691307,9.48152533 19.784384,8.21453867 20.8302507,8.21453867 C21.8597973,8.21453867 22.4911573,9.48152533 22.4911573,11.044512 Z" id="Combined-Shape" fill="#171A1E"></path>
                    </g>
                </g>
            </g>
        </g>
    </g>
</svg>
