<?xml version="1.0" encoding="UTF-8"?>
<svg width="22px" height="22px" viewBox="0 0 22 22" version="1.1" xmlns="http://www.w3.org/2000/svg" xmlns:xlink="http://www.w3.org/1999/xlink">
    <!-- Generator: sketchtool 41.2 (35397) - http://www.bohemiancoding.com/sketch -->
    <title>FB6D84C5-31EB-429A-A683-2535F3CB440F</title>
    <desc>Created with sketchtool.</desc>
    <defs></defs>
    <g id="Icons" stroke="none" stroke-width="1" fill="none" fill-rule="evenodd">
        <g id="icons_web" transform="translate(-50.000000, -50.000000)" fill="#FFFFFF">
            <g id="smile" transform="translate(50.000000, 50.000000)">
                <g>
                    <g>
                        <path d="M20,11 C20,6.02943725 15.9705627,2 11,2 C6.02943725,2 2,6.02943725 2,11 C2,15.9705627 6.02943725,20 11,20 C15.9705627,20 20,15.9705627 20,11 L20,11 Z M0,11 C0,4.92486775 4.92486775,0 11,0 C17.0751322,0 22,4.92486775 22,11 C22,17.0751322 17.0751322,22 11,22 C4.92486775,22 0,17.0751322 0,11 L0,11 Z" id="Oval-6"></path>
                        <path d="M11,17 C12.7533893,17 14.4084192,16.3515493 15.6847861,15.2012967 C16.0950527,14.8315674 16.1279147,14.1992558 15.7581854,13.7889892 C15.3884561,13.3787226 14.7561445,13.3458606 14.3458779,13.7155899 C13.4334041,14.5379046 12.2540058,15 11,15 C9.76177177,15 8.59615268,14.5495414 7.68799469,13.7458399 C7.27441012,13.3798259 6.64242061,13.4183895 6.27640661,13.831974 C5.9103926,14.2455586 5.94895616,14.8775481 6.36254073,15.2435621 C7.63295653,16.3678545 9.26871377,17 11,17 L11,17 Z M6.5,7.74382395 C6.5,7.05687895 7.05483103,6.5 7.75,6.5 C8.44035594,6.5 9,7.06233555 9,7.74382395 L9,8.75617605 C9,9.44312105 8.44516897,10 7.75,10 C7.05964406,10 6.5,9.43766445 6.5,8.75617605 L6.5,7.74382395 L6.5,7.74382395 Z M13,7.74382395 C13,7.05687895 13.554831,6.5 14.25,6.5 C14.9403559,6.5 15.5,7.06233555 15.5,7.74382395 L15.5,8.75617605 C15.5,9.44312105 14.945169,10 14.25,10 C13.5596441,10 13,9.43766445 13,8.75617605 L13,7.74382395 L13,7.74382395 Z" id="Combined-Shape"></path>
                    </g>
                </g>
            </g>
        </g>
    </g>
</svg>