<?xml version="1.0" encoding="UTF-8"?>
<svg width="32px" height="32px" viewBox="0 0 32 32" version="1.1" xmlns="http://www.w3.org/2000/svg" xmlns:xlink="http://www.w3.org/1999/xlink">
    <!-- Generator: sketchtool 42 (36781) - http://www.bohemiancoding.com/sketch -->
    <title>6F2B59B3-2EEE-41B1-A44A-A301F9E340B1</title>
    <desc>Created with sketchtool.</desc>
    <defs></defs>
    <g id="Icons" stroke="none" stroke-width="1" fill="none" fill-rule="evenodd">
        <g id="icons_web" transform="translate(-500.000000, -800.000000)">
            <g id="smileyJoy" transform="translate(500.000000, 800.000000)">
                <g>
                    <g>
                        <path d="M16.0000427,-5.33333333e-05 C24.8365227,-5.33333333e-05 32.0000427,7.16346667 32.0000427,16.0000533 C32.0000427,24.8365333 24.8365227,31.9999467 16.0000427,31.9999467 C7.163456,31.9999467 4.26666666e-05,24.8365333 4.26666666e-05,16.0000533 C4.26666666e-05,7.16346667 7.163456,-5.33333333e-05 16.0000427,-5.33333333e-05" id="Fill-1" fill="#FFCC00"></path>
                        <path d="M25.6005653,19 C25.953952,19 26.2402453,19.3034915 26.2402453,19.6776885 C26.2402453,19.7827302 26.2177387,19.8821246 26.1774187,19.9706759 C24.3998187,24.2414689 20.4072853,27 16.000032,27 C11.585312,27 7.58712533,24.2326589 5.81389867,19.9497805 C5.727072,19.7403747 5.74605867,19.4985529 5.86424533,19.3069929 C5.982432,19.1154329 6.18392533,19 6.400032,19 L25.600032,19 L25.6005653,19 Z M26.2146347,8.90370133 C26.027008,8.90370133 25.842688,8.81378133 25.729088,8.64706133 C25.695488,8.59863467 24.8461013,7.403008 23.2178347,7.23170133 C22.8955947,7.197888 22.661888,6.90914133 22.695808,6.58690133 C22.7296213,6.264768 23.0185813,6.03063467 23.340608,6.06487467 C25.5240747,6.294528 26.6521813,7.917888 26.6991147,7.98679467 C26.881408,8.25474133 26.8120747,8.619648 26.5442347,8.80194133 C26.4432213,8.87063467 26.3282347,8.90370133 26.2146347,8.90370133 Z M5.785408,8.90370133 C5.671808,8.90370133 5.556928,8.87063467 5.45591467,8.80194133 C5.187968,8.619648 5.11863467,8.25474133 5.300928,7.98679467 C5.34786133,7.917888 6.475968,6.294528 8.659328,6.06487467 C8.98146133,6.03074133 9.270208,6.264768 9.304128,6.58690133 C9.338048,6.90914133 9.10434133,7.197888 8.78210133,7.23170133 C7.13378133,7.40514133 6.27938133,8.634688 6.27095467,8.64706133 C6.15746133,8.81378133 5.97303467,8.90370133 5.785408,8.90370133 Z M8.54733867,12.9139093 C8.482912,12.152736 8.85464533,10.5739627 10.7224853,10.0470293 C12.607072,9.51486933 13.6927253,10.7100693 14.0033387,11.4162027 L12.5388053,12.060576 L12.5442453,12.0725227 C12.198112,11.3561493 11.394912,11.519776 11.1570453,11.5868693 C10.148192,11.8715627 10.1349653,12.640416 10.1425387,12.7916693 L10.1415787,12.7788693 L8.54733867,12.9139093 Z M23.4527573,12.9139093 L21.8584107,12.7788693 L21.8574507,12.7916693 C21.865024,12.640416 21.8517973,11.8715627 20.842944,11.5868693 C20.605184,11.5196693 19.8018773,11.3563627 19.4556373,12.0725227 L19.461184,12.060576 L17.9966507,11.4162027 C18.3073707,10.7100693 19.392384,9.514656 21.277504,10.0470293 C23.145344,10.5739627 23.517184,12.152736 23.4527573,12.9139093 Z" id="Combined-Shape" fill="#171A1E"></path>
                        <path d="M28.3347413,14.0055787 C29.238208,14.9090453 29.238208,16.3736853 28.3347413,17.277152 C27.4313813,18.180512 25.9667413,18.180512 25.0632747,17.277152 C24.159808,16.3736853 23.931968,12.874272 23.931968,12.874272 C23.931968,12.874272 27.4313813,13.1022187 28.3347413,14.0055787 Z M6.93671467,17.2771413 C6.03335467,18.1805013 4.568608,18.1805013 3.665248,17.2771413 C2.76178133,16.3736747 2.76178133,14.9090347 3.665248,14.005568 C4.568608,13.102208 8.068128,12.8742613 8.068128,12.8742613 C8.068128,12.8742613 7.84007467,16.3736747 6.93671467,17.2771413 Z" id="Combined-Shape" fill="#54C8EB"></path>
                    </g>
                </g>
            </g>
        </g>
    </g>
</svg>
