<?xml version="1.0" encoding="UTF-8"?>
<svg width="32px" height="32px" viewBox="0 0 32 32" version="1.1" xmlns="http://www.w3.org/2000/svg" xmlns:xlink="http://www.w3.org/1999/xlink">
    <!-- Generator: sketchtool 42 (36781) - http://www.bohemiancoding.com/sketch -->
    <title>ACD65816-42DA-44FF-BFF3-05B3B0211167</title>
    <desc>Created with sketchtool.</desc>
    <defs></defs>
    <g id="Icons" stroke="none" stroke-width="1" fill="none" fill-rule="evenodd">
        <g id="icons_web" transform="translate(-450.000000, -750.000000)">
            <g id="smileyLol" transform="translate(450.000000, 750.000000)">
                <g>
                    <g>
                        <path d="M16.0000213,-2.13333333e-05 C24.8365013,-2.13333333e-05 32.0000213,7.16349867 32.0000213,15.9999787 C32.0000213,24.8365653 24.8365013,31.9999787 16.0000213,31.9999787 C7.16343467,31.9999787 2.13333333e-05,24.8365653 2.13333333e-05,15.9999787 C2.13333333e-05,7.16349867 7.16343467,-2.13333333e-05 16.0000213,-2.13333333e-05" id="Fill-1" fill="#FFCC00"></path>
                        <path d="M12.8307947,10.9819093 C12.8307947,12.5447893 12.1995413,13.8112427 11.1697813,13.8118827 C10.1240213,13.812416 9.50887467,12.5447893 9.50887467,10.9819093 C9.50887467,9.41892267 10.1240213,8.151936 11.1697813,8.151936 C12.1994347,8.151936 12.8307947,9.41892267 12.8307947,10.9819093 Z M22.491168,10.9819093 C22.491168,12.5447893 21.8599147,13.8112427 20.8301547,13.8118827 C19.7843947,13.812416 19.169248,12.5447893 19.169248,10.9819093 C19.169248,9.41892267 19.7843947,8.151936 20.8301547,8.151936 C21.8599147,8.151936 22.491168,9.41892267 22.491168,10.9819093 Z M25.6005547,19 C25.9539413,19 26.2402347,19.3034915 26.2402347,19.6776885 C26.2402347,19.7826173 26.217728,19.8820116 26.1775147,19.9706759 C24.3999147,24.2414689 20.4073813,27 16.0000213,27 C11.585408,27 7.58711467,24.2326589 5.813888,19.9497805 C5.72706133,19.7402618 5.746048,19.4985529 5.86423467,19.3069929 C5.98242133,19.1154329 6.18391467,19 6.40002133,19 L25.6000213,19 L25.6005547,19 Z M24.0812693,5.70362667 C23.8936427,5.70362667 23.7093227,5.61381333 23.5957227,5.44698667 C23.562016,5.39866667 22.7128427,4.20304 21.0844693,4.03173333 C20.762336,3.99781333 20.5285227,3.70906667 20.5624427,3.38682667 C20.5964693,3.06469333 20.8847893,2.83152 21.2073493,2.8648 C23.3907093,3.09456 24.518816,4.71781333 24.5657493,4.78682667 C24.7480427,5.05477333 24.6787093,5.41957333 24.4107627,5.60186667 C24.3097493,5.67066667 24.1948693,5.70362667 24.0812693,5.70362667 Z M7.91872,5.701952 C7.80426667,5.701952 7.68874667,5.66856533 7.58752,5.598912 C7.3216,5.415872 7.25258667,5.053632 7.43424,4.786752 C7.48117333,4.71784533 8.60928,3.094592 10.79264,2.864832 C11.1152,2.830912 11.4036267,3.06461867 11.4375467,3.38685867 C11.4714667,3.70909867 11.2376533,3.99773867 10.91552,4.03165867 C9.28725333,4.20296533 8.43797333,5.398592 8.40256,5.449472 C8.28832,5.61352533 8.10496,5.701952 7.91872,5.701952 Z" id="Combined-Shape" fill="#171A1E"></path>
                    </g>
                </g>
            </g>
        </g>
    </g>
</svg>
