<?xml version="1.0" encoding="UTF-8"?>
<svg width="32px" height="32px" viewBox="0 0 32 32" version="1.1" xmlns="http://www.w3.org/2000/svg" xmlns:xlink="http://www.w3.org/1999/xlink">
    <!-- Generator: sketchtool 42 (36781) - http://www.bohemiancoding.com/sketch -->
    <title>11B6EAFD-BC26-4351-BE0E-7D42C8D683F4</title>
    <desc>Created with sketchtool.</desc>
    <defs></defs>
    <g id="Icons" stroke="none" stroke-width="1" fill="none" fill-rule="evenodd">
        <g id="icons_web" transform="translate(-350.000000, -750.000000)">
            <g id="smileyWink" transform="translate(350.000000, 750.000000)">
                <g>
                    <g>
                        <path d="M16,-5.33333333e-05 C24.8365867,-5.33333333e-05 32,7.16346667 32,16.0000533 C32,24.8365333 24.8365867,31.9999467 16,31.9999467 C7.16341333,31.9999467 0,24.8365333 0,16.0000533 C0,7.16346667 7.16341333,-5.33333333e-05 16,-5.33333333e-05" id="Fill-1" fill="#FFCC00"></path>
                        <path d="M9.82942933,13.115264 C9.82942933,11.5522773 10.4606827,10.2852907 11.490336,10.2852907 C12.5362027,10.2852907 13.1513493,11.5522773 13.1513493,13.115264 C13.1513493,14.678144 12.5362027,15.9457707 11.490336,15.9451307 C10.4606827,15.9445973 9.82942933,14.678144 9.82942933,13.115264 Z M22.454272,13.7106773 C22.4205653,13.5630507 22.198912,12.826624 21.1508053,12.826624 C20.903552,12.826624 20.0860587,12.887424 19.9474987,13.6708907 L19.9495253,13.6577707 L18.364992,13.4354773 C18.472192,12.671424 19.1924053,11.226624 21.1508053,11.226624 C23.0914987,11.226624 23.8780587,12.6450773 24.0228053,13.3950507 L22.451712,13.6981973 L22.454272,13.7106773 Z M16.8883307,24.8002667 C16.579744,24.8002667 16.321184,24.5594133 16.3031573,24.2474133 C16.2844907,23.924 16.5315307,23.6466667 16.8550507,23.6278933 C20.2705173,23.43056 23.3868907,21.3625067 25.4051307,17.9538667 C25.5702507,17.6751467 25.9300373,17.5829867 26.208864,17.748 C26.4876907,17.91312 26.5798507,18.2729067 26.4147307,18.5516267 C24.1942507,22.3018133 20.7345173,24.57904 16.9226773,24.7993067 C16.9111573,24.7999467 16.8996373,24.8002667 16.8883307,24.8002667 Z M25.041248,12.1677653 C24.8536213,12.1677653 24.6693013,12.0778453 24.5557013,11.9111253 C24.5219947,11.8626987 23.6728213,10.667072 22.0445547,10.4957653 C21.7223147,10.461952 21.488608,10.1732053 21.522528,9.85096533 C21.556448,9.528832 21.845728,9.29512533 22.167328,9.32893867 C24.350688,9.558592 25.4787947,11.181952 25.525728,11.2508587 C25.7080213,11.5188053 25.638688,11.883712 25.3707413,12.0660053 C25.269728,12.1346987 25.154848,12.1677653 25.041248,12.1677653 Z M7.49208533,9.92776533 C7.37837867,9.92776533 7.26360533,9.89469867 7.162592,9.82600533 C6.89464533,9.643712 6.825312,9.27880533 7.00760533,9.01085867 C7.05453867,8.941952 8.18264533,7.318592 10.3660053,7.08893867 C10.6876053,7.054912 10.9768853,7.288832 11.0108053,7.61096533 C11.0447253,7.93320533 10.8110187,8.221952 10.4887787,8.25576533 C8.84045867,8.42920533 7.98605867,9.658752 7.977632,9.67112533 C7.86413867,9.83784533 7.679712,9.92776533 7.49208533,9.92776533 Z" id="Combined-Shape" fill="#171A1E"></path>
                    </g>
                </g>
            </g>
        </g>
    </g>
</svg>
