<?xml version="1.0" encoding="UTF-8"?>
<svg width="10px" height="9px" viewBox="0 0 10 9" version="1.1" xmlns="http://www.w3.org/2000/svg" xmlns:xlink="http://www.w3.org/1999/xlink">
    <!-- Generator: sketchtool 41.2 (35397) - http://www.bohemiancoding.com/sketch -->
    <title>8590AA2A-B654-4A6D-91A3-E43F684D3D2F</title>
    <desc>Created with sketchtool.</desc>
    <defs></defs>
    <g id="Icons" stroke="none" stroke-width="1" fill="none" fill-rule="evenodd">
        <g id="icons_web" transform="translate(-400.000000, -250.000000)" fill="#FFCC00">
            <g id="starRating" transform="translate(400.000000, 250.000000)">
                <g>
                    <path d="M6.58827448,3.00964355 L5.61795241,0.389571429 C5.51602037,0.160071429 5.28084382,0 5.00569392,0 C4.73054402,0 4.49536747,0.160071429 4.39343542,0.389571429 L3.41172552,3.0139073 L0.666222518,3.0139073 C0.298467688,3.02547872 0,3.31347872 0,3.65676444 C0,3.90169301 0.129247169,4.10676444 0.322451699,4.20962158 L2.5613235,5.69057143 L1.72454801,8.11221429 C1.69256933,8.18742857 1.67458133,8.27035714 1.67458133,8.35714286 C1.67458133,8.712 1.97238279,9 2.34080384,9 C2.49603369,9 2.63927153,8.94792857 2.75252936,8.86178571 L5.00569392,7.34142857 L7.25885847,8.86178571 C7.3721163,8.94792857 7.51535414,9 7.67058399,9 C8.03900504,9 8.33680651,8.712 8.33680651,8.35714286 C8.33680651,8.27035714 8.3188185,8.18742857 8.28683982,8.11221429 L7.45006434,5.69057143 L9.6775483,4.20962158 C9.87075283,4.10676444 10,3.90169301 10,3.65676444 C10,3.31347872 9.70153231,3.02547872 9.33377748,3.0139073 L6.58827448,3.00964355 Z"></path>
                </g>
            </g>
        </g>
    </g>
</svg>
