<?xml version="1.0" encoding="UTF-8"?>
<svg width="52px" height="52px" viewBox="0 0 52 52" version="1.1" xmlns="http://www.w3.org/2000/svg" xmlns:xlink="http://www.w3.org/1999/xlink">
    <!-- Generator: sketchtool 41.2 (35397) - http://www.bohemiancoding.com/sketch -->
    <title>9E2EB7BC-3627-4B71-BB88-CD22E0FBA225</title>
    <desc>Created with sketchtool.</desc>
    <defs>
        <rect id="path-1" x="0" y="0" width="52" height="52"></rect>
    </defs>
    <g id="Icons" stroke="none" stroke-width="1" fill="none" fill-rule="evenodd">
        <g id="icons_web" transform="translate(-410.000000, -350.000000)">
            <g id="twitter" transform="translate(410.000000, 350.000000)">
                <g>
                    <g>
                        <mask id="mask-2" fill="white">
                            <use xlink:href="#path-1"></use>
                        </mask>
                        <use id="Mask" fill="#FFFFFF" opacity="0" xlink:href="#path-1"></use>
                        <path d="M20.0069387,40.4441931 C33.2146212,40.4441931 40.4374567,29.5019328 40.4374567,20.0136752 C40.4374567,19.7027432 40.4311568,19.3933511 40.4168772,19.0853589 C41.8188014,18.0719248 43.0376102,16.8073372 43.9991056,15.3674739 C42.7123985,15.9390793 41.3278339,16.3242095 39.875371,16.4979451 C41.3577931,15.6091078 42.496104,14.2024237 43.0328503,12.5258266 C41.6452058,13.3483055 40.109025,13.9466503 38.4734468,14.268782 C37.1630803,12.8730177 35.297068,12 33.2319808,12 C29.2663021,12 26.0503043,15.2159978 26.0503043,19.1801365 C26.0503043,19.7437621 26.1134427,20.2915681 26.2366395,20.8173947 C20.269012,20.5173823 14.9770073,17.6599154 11.4359378,13.3151264 C10.8186935,14.3760193 10.4633826,15.6091078 10.4633826,16.9242342 C10.4633826,19.4154705 11.7311902,21.6146743 13.6588009,22.9012414 C12.481011,22.8649824 11.3743393,22.5413106 10.4065441,22.0030244 C10.4050041,22.0329836 10.4050041,22.0629429 10.4050041,22.094442 C10.4050041,25.5725132 12.8805608,28.475759 16.1658569,29.1341622 C15.5627523,29.298238 14.9281485,29.3867157 14.2729653,29.3867157 C13.8104171,29.3867157 13.3604686,29.3409369 12.9231197,29.257219 C13.8371564,32.1100661 16.4879887,34.1860731 19.6311883,34.2445916 C17.1731311,36.1705224 14.0772503,37.318353 10.7128562,37.318353 C10.133551,37.318353 9.56194564,37.2851739 9,37.2188156 C12.1779188,39.2554835 15.9511024,40.4441931 20.0069387,40.4441931" id="Fill-1" fill="#FFFFFF" mask="url(#mask-2)"></path>
                    </g>
                </g>
            </g>
        </g>
    </g>
</svg>
