<?xml version="1.0" encoding="UTF-8"?>
<svg width="22px" height="22px" viewBox="0 0 22 22" version="1.1" xmlns="http://www.w3.org/2000/svg" xmlns:xlink="http://www.w3.org/1999/xlink">
    <!-- Generator: sketchtool 41.2 (35397) - http://www.bohemiancoding.com/sketch -->
    <title>1291E78D-91B8-44CA-9781-1F360358A588</title>
    <desc>Created with sketchtool.</desc>
    <defs></defs>
    <g id="Icons" stroke="none" stroke-width="1" fill="none" fill-rule="evenodd">
        <g id="icons_web" transform="translate(-100.000000, -100.000000)" fill="#FF2D55">
            <g id="unsmileActive" transform="translate(100.000000, 100.000000)">
                <g id="Combined-Shape">
                    <g>
                        <path d="M11,22 C17.0751322,22 22,17.0751322 22,11 C22,4.92486775 17.0751322,0 11,0 C4.92486775,0 0,4.92486775 0,11 C0,17.0751322 4.92486775,22 11,22 Z M13,7.74382395 C13,7.05687895 13.554831,6.5 14.25,6.5 C14.9403559,6.5 15.5,7.06233555 15.5,7.74382395 L15.5,8.75617605 C15.5,9.44312105 14.945169,10 14.25,10 C13.5596441,10 13,9.43766445 13,8.75617605 L13,7.74382395 Z M6.5,7.74382395 C6.5,7.05687895 7.05483103,6.5 7.75,6.5 C8.44035594,6.5 9,7.06233555 9,7.74382395 L9,8.75617605 C9,9.44312105 8.44516897,10 7.75,10 C7.05964406,10 6.5,9.43766445 6.5,8.75617605 L6.5,7.74382395 Z M11,14 C9.52382882,14 8.10412869,14.4013554 6.86699195,15.149097 C6.3943344,15.4347774 6.24275947,16.0495318 6.52843986,16.5221893 C6.81412025,16.9948469 7.42887462,17.1464218 7.90153217,16.8607414 C8.82871385,16.3003407 9.89109823,16 11,16 C12.1140326,16 13.1810937,16.3031358 14.1111922,16.8684537 C14.5831397,17.1553055 15.1982681,17.0052558 15.4851199,16.5333082 C15.7719718,16.0613607 15.621922,15.4462323 15.1499745,15.1593805 C13.9089696,14.4050922 12.483014,14 11,14 Z"></path>
                    </g>
                </g>
            </g>
        </g>
    </g>
</svg>