<?xml version="1.0" encoding="UTF-8"?>
<svg width="16px" height="16px" viewBox="0 0 16 16" version="1.1" xmlns="http://www.w3.org/2000/svg" xmlns:xlink="http://www.w3.org/1999/xlink">
    <!-- Generator: sketchtool 41.2 (35397) - http://www.bohemiancoding.com/sketch -->
    <title>8FA20DBF-3E70-487A-B07B-44B3FBA2CB20</title>
    <desc>Created with sketchtool.</desc>
    <defs></defs>
    <g id="Icons" stroke="none" stroke-width="1" fill="none" fill-rule="evenodd">
        <g id="icons_web" transform="translate(-250.000000, -150.000000)" fill="#FFFFFF">
            <g id="user" transform="translate(250.000000, 150.000000)">
                <g>
                    <g>
                        <path d="M10.75,4.25 C10.75,2.73121694 9.51878306,1.5 8,1.5 C6.48121694,1.5 5.25,2.73121694 5.25,4.25 C5.25,5.76878306 6.48121694,7 8,7 C9.51878306,7 10.75,5.76878306 10.75,4.25 Z M3.75,4.25 C3.75,1.90278981 5.65278981,0 8,0 C10.3472102,0 12.25,1.90278981 12.25,4.25 C12.25,6.59721019 10.3472102,8.5 8,8.5 C5.65278981,8.5 3.75,6.59721019 3.75,4.25 Z" id="Oval"></path>
                        <path d="M1.5,14.7501925 C1.5,12.9606887 3.01005898,11.5 4.88571305,11.5 L11.1142869,11.5 C12.9896358,11.5 14.5,12.9608834 14.5,14.7501925 L14.5,15.25 C14.5,15.6642136 14.8357864,16 15.25,16 C15.6642136,16 16,15.6642136 16,15.25 L16,14.7501925 C16,12.1210698 13.8070885,10 11.1142869,10 L4.88571305,10 C2.19258404,10 0,12.1208991 0,14.7501925 L0,15.25 C0,15.6642136 0.335786438,16 0.75,16 C1.16421356,16 1.5,15.6642136 1.5,15.25 L1.5,14.7501925 Z" id="Rectangle-4"></path>
                    </g>
                </g>
            </g>
        </g>
    </g>
</svg>