<?xml version="1.0" encoding="UTF-8"?>
<svg width="213px" height="30px" viewBox="0 0 213 30" version="1.1" xmlns="http://www.w3.org/2000/svg" xmlns:xlink="http://www.w3.org/1999/xlink">
    <!-- Generator: sketchtool 42 (36781) - http://www.bohemiancoding.com/sketch -->
    <title>1B2A536B-9C45-48B5-9F94-E824D81E0463</title>
    <desc>Created with sketchtool.</desc>
    <defs></defs>
    <g id="Web" stroke="none" stroke-width="1" fill="none" fill-rule="evenodd" opacity="0.6">
        <g id="06-1_about" transform="translate(-383.000000, -933.000000)" fill="#FFFFFF">
            <g id="Group-2" transform="translate(68.000000, 933.000000)">
                <g id="aboutTechCrunch" transform="translate(315.000000, 0.000000)">
                    <g>
                        <g>
                            <polygon id="Fill-1" points="80.0622933 11.72175 80.0622933 25.0005 75.2052623 25.0005 75.2052623 11.72175 70.2981717 11.72175 70.2981717 7.4955 84.969384 7.4955 84.969384 11.72175"></polygon>
                            <path d="M90.3492873,14.9225 C89.3230659,14.9225 88.7473807,15.6225 88.5972019,16.9225 L92.3529221,16.9225 C92.1264025,15.5975 91.6758663,14.9225 90.3492873,14.9225 Z M96.3076292,19.72375 L88.5972019,19.72375 C88.7473807,21.17375 89.5971421,21.82375 90.8248534,21.82375 C91.9762238,21.82375 92.9286073,21.57375 94.2301565,20.89875 L95.9559606,23.775 C94.3302757,24.72375 92.6520282,25.275 90.5995853,25.275 C86.6436267,25.275 84.4660349,22.47375 84.4660349,18.4475 C84.4660349,13.9225 87.0190736,11.59625 90.4744363,11.59625 C94.0787263,11.59625 96.332659,13.9725 96.332659,18.8475 C96.332659,19.22375 96.332659,19.49875 96.3076292,19.72375 Z" id="Fill-2"></path>
                            <path d="M104.691233,25.274625 C100.836645,25.274625 98.5326525,22.824625 98.5326525,18.398375 C98.5326525,14.372125 100.586347,11.597125 104.791352,11.597125 C107.270553,11.597125 108.697251,12.747125 109.848621,14.597125 L106.744927,16.947125 C106.119182,15.797125 105.692424,15.247125 104.717514,15.247125 C103.564892,15.247125 102.989207,16.397125 102.989207,18.473375 C102.989207,20.549625 103.614952,21.623375 104.841411,21.623375 C105.692424,21.623375 106.293139,21.148375 107.119122,19.923375 L109.97377,22.148375 C108.446953,24.399625 107.019003,25.274625 104.691233,25.274625" id="Fill-4"></path>
                            <path d="M120.0599,25 L120.0599,17.5475 C120.0599,15.8475 119.484215,15.3975 118.558113,15.3975 C117.605729,15.3975 117.030044,15.8475 117.030044,17.4975 L117.030044,25 L112.524681,25 L112.524681,8.57125 L117.030044,6.77125 L117.030044,12.74625 C117.856027,12.12125 118.782129,11.59625 120.335228,11.59625 C123.214905,11.59625 124.591544,13.52125 124.591544,16.9725 L124.591544,25 L120.0599,25 Z" id="Fill-6"></path>
                            <path d="M135.378383,25.274625 C130.170935,25.274625 127.391376,21.423375 127.391376,16.247125 C127.391376,10.620875 130.69656,7.220875 135.403413,7.220875 C139.709788,7.220875 141.411814,9.070875 142.613244,12.372125 L138.208001,14.097125 C137.581004,12.472125 136.980289,11.445875 135.378383,11.445875 C133.35097,11.445875 132.474927,13.472125 132.474927,16.247125 C132.474927,18.923375 133.324688,21.048375 135.428442,21.048375 C136.95526,21.048375 137.606034,20.223375 138.557166,18.573375 L142.663304,20.748375 C141.486903,23.049625 139.533328,25.274625 135.378383,25.274625" id="Fill-8"></path>
                            <path d="M153.748623,16.8225 C153.172938,16.1975 152.523414,15.7225 151.64612,15.7225 C150.543558,15.7225 149.867754,16.2475 149.867754,17.8475 L149.867754,25 L145.362391,25 L145.362391,11.87125 L149.867754,11.87125 L149.867754,12.82125 C150.644929,12.07125 151.520971,11.59625 152.673593,11.59625 C153.623474,11.59625 154.2755,11.82125 154.801125,12.14625 L153.748623,16.8225 Z" id="Fill-10"></path>
                            <path d="M164.462124,25 L164.462124,24.12375 C163.65992,24.74875 162.710039,25.275 161.183222,25.275 C158.303544,25.275 156.926906,23.35 156.926906,19.8975 L156.926906,11.87125 L161.458549,11.87125 L161.458549,19.32375 C161.458549,21.0225 162.034235,21.47375 162.960337,21.47375 C163.886439,21.47375 164.462124,21.0225 164.462124,19.3725 L164.462124,11.87125 L168.993768,11.87125 L168.993768,25 L164.462124,25 Z" id="Fill-12"></path>
                            <path d="M179.780607,25 L179.780607,17.5475 C179.780607,15.8475 179.204922,15.3975 178.27882,15.3975 C177.326436,15.3975 176.750751,15.8475 176.750751,17.4975 L176.750751,25 L172.245388,25 L172.245388,11.87125 L176.750751,11.87125 L176.750751,12.74625 C177.576734,12.12125 178.502836,11.59625 180.055935,11.59625 C182.935612,11.59625 184.312251,13.52125 184.312251,16.9725 L184.312251,25 L179.780607,25 Z" id="Fill-14"></path>
                            <path d="M193.094829,25.274625 C189.240241,25.274625 186.936249,22.824625 186.936249,18.398375 C186.936249,14.372125 188.989943,11.597125 193.194948,11.597125 C195.674149,11.597125 197.100847,12.747125 198.252218,14.597125 L195.148524,16.947125 C194.522779,15.797125 194.096021,15.247125 193.12111,15.247125 C191.968489,15.247125 191.392803,16.397125 191.392803,18.473375 C191.392803,20.549625 192.018548,21.623375 193.245008,21.623375 C194.096021,21.623375 194.696736,21.148375 195.522719,19.923375 L198.377367,22.148375 C196.850549,24.399625 195.4226,25.274625 193.094829,25.274625" id="Fill-16"></path>
                            <path d="M208.463497,25 L208.463497,17.5475 C208.463497,15.8475 207.887811,15.3975 206.961709,15.3975 C206.009326,15.3975 205.43364,15.8475 205.43364,17.4975 L205.43364,25 L200.928278,25 L200.928278,8.57125 L205.43364,6.77125 L205.43364,12.74625 C206.259623,12.12125 207.185726,11.59625 208.738824,11.59625 C211.618502,11.59625 212.99514,13.52125 212.99514,16.9725 L212.99514,25 L208.463497,25 Z" id="Fill-18"></path>
                            <polygon id="Fill-21" points="0 0 0 10 10.0119166 10 10.0119166 30 20.0238332 30 20.0238332 10 30.0357498 10 30.0357498 0"></polygon>
                            <polygon id="Fill-23" points="40.0476663 20 40.0476663 10 30.0357498 10 30.0357498 30 60.0714995 30 60.0714995 20"></polygon>
                            <polygon id="Fill-25" points="40.0476663 10 60.0714995 10 60.0714995 0 40.0476663 0"></polygon>
                        </g>
                    </g>
                </g>
            </g>
        </g>
    </g>
</svg>
