<?xml version="1.0" encoding="UTF-8"?>
<svg width="259px" height="22px" viewBox="0 0 259 22" version="1.1" xmlns="http://www.w3.org/2000/svg" xmlns:xlink="http://www.w3.org/1999/xlink">
    <!-- Generator: sketchtool 42 (36781) - http://www.bohemiancoding.com/sketch -->
    <title>4739A127-3B5D-4F06-B6F9-4C31769EA2C9</title>
    <desc>Created with sketchtool.</desc>
    <defs></defs>
    <g id="Web" stroke="none" stroke-width="1" fill="none" fill-rule="evenodd" opacity="0.6">
        <g id="06-1_about" transform="translate(-68.000000, -937.000000)" fill="#FFFFFF">
            <g id="Group-2" transform="translate(68.000000, 933.000000)">
                <g id="aboutWallStreet" transform="translate(0.000000, 4.000000)">
                    <g>
                        <g>
                            <path d="M37.7376081,21.5791529 L26.6921737,21.5791529 L26.6921737,20.7768 L27.2598808,20.7768 C27.991098,20.7768 28.4240727,20.4299765 28.4240727,19.5486824 L28.4240727,2.24244706 C28.4240727,1.35985882 27.991098,1.01303529 27.2598808,1.01303529 L26.664704,1.01303529 L26.664704,0.211976471 L37.7376081,0.211976471 L37.7376081,7.55738824 L37.0063909,7.55738824 L37.0063909,7.47715294 C37.0063909,3.12374118 35.6656081,1.14762353 33.2155727,1.14762353 L31.4012646,1.14762353 L31.4012646,10.0136235 L31.8630172,10.0136235 C33.2430424,10.0136235 33.8918505,8.70527059 33.8918505,5.95527059 L33.8918505,5.87374118 L34.6243758,5.87374118 L34.6243758,15.1150353 L33.8918505,15.1150353 L33.8918505,15.0619765 C33.8918505,12.3650353 33.2705121,10.9764471 31.8630172,10.9764471 L31.4012646,10.9764471 L31.4012646,20.6448 L33.107002,20.6448 C35.5282596,20.6448 37.0063909,18.3192706 37.0063909,14.3385647 L37.0063909,14.2609176 L37.7376081,14.2609176 L37.7376081,21.5791529 Z" id="Fill-1"></path>
                            <path d="M25.9610874,21.5791529 L19.4900116,21.5791529 L19.4900116,20.7768 L20.0328652,20.7768 C20.7640823,20.7768 21.2232187,20.4299765 21.2232187,19.5486824 L21.2232187,11.1615059 L16.48535,11.1615059 L16.48535,19.5486824 C16.48535,20.4325647 16.9444864,20.7768 17.6783197,20.7768 L18.2460268,20.7768 L18.2460268,21.5791529 L11.7487894,21.5791529 L11.7487894,20.7768 L12.3164965,20.7768 C13.0490217,20.7768 13.5094662,20.4299765 13.5094662,19.5486824 L13.5094662,2.24244706 C13.5094662,1.35985882 13.0490217,1.01303529 12.3164965,1.01303529 L11.7487894,1.01303529 L11.7487894,0.211976471 L18.2460268,0.211976471 L18.2460268,1.01303529 L17.6783197,1.01303529 C16.9444864,1.01303529 16.48535,1.35985882 16.48535,2.24244706 L16.48535,10.0136235 L21.2232187,10.0136235 L21.2232187,2.24244706 C21.2232187,1.35985882 20.7640823,1.01303529 20.0328652,1.01303529 L19.4900116,1.01303529 L19.4900116,0.211976471 L25.9610874,0.211976471 L25.9610874,1.01303529 L25.3920722,1.01303529 C24.6608551,1.01303529 24.2004106,1.35985882 24.2004106,2.24244706 L24.2004106,19.5486824 C24.2004106,20.4325647 24.6608551,20.7768 25.3920722,20.7768 L25.9610874,20.7768 L25.9610874,21.5791529 Z" id="Fill-3"></path>
                            <path d="M11.3971773,7.61044706 L10.6659601,7.61044706 L10.6659601,7.53021176 C10.6659601,4.08397647 9.3434904,1.14762353 7.79733889,1.14762353 L7.14591465,1.14762353 L7.14591465,19.5486824 C7.14591465,20.4325647 7.60505101,20.7768 8.33888434,20.7768 L9.01516212,20.7768 L9.01516212,21.5791529 L2.35441465,21.5791529 L2.35441465,20.7768 L2.97706111,20.7768 C3.70958636,20.7768 4.16872273,20.4299765 4.16872273,19.5486824 L4.16872273,1.14762353 L3.59970758,1.14762353 C2.0509399,1.14762353 0.731086364,3.89762353 0.731086364,7.53021176 L0.731086364,7.61044706 L-0.000130808081,7.61044706 L-0.000130808081,0.211976471 L11.3971773,0.211976471 L11.3971773,7.61044706 Z" id="Fill-5"></path>
                            <path d="M92.839204,21.5791529 L81.9298101,21.5791529 L81.9298101,20.7768 L82.6871889,20.7768 C83.4184061,20.7768 83.8788505,20.4558588 83.8788505,19.5745647 L83.8788505,2.21397647 C83.8788505,1.33268235 83.4184061,1.01303529 82.6871889,1.01303529 L82.0920121,1.01303529 L82.0920121,0.211976471 L88.5356182,0.211976471 L88.5356182,1.01303529 L88.0202343,1.01303529 C87.2890172,1.01303529 86.8298808,1.33268235 86.8298808,2.21397647 L86.8298808,20.6448 L88.4257394,20.6448 C91.3453758,20.6448 92.1079869,17.3577412 92.1079869,14.3139765 L92.1079869,14.2337412 L92.839204,14.2337412 L92.839204,21.5791529 Z" id="Fill-8"></path>
                            <path d="M81.5505975,21.5791529 L70.6412035,21.5791529 L71.0741783,20.7768 L71.3998904,20.7768 C72.1297995,20.7768 72.5889359,20.4558588 72.5889359,19.5745647 L72.5889359,2.21397647 C72.5889359,1.33268235 72.1297995,1.01303529 71.3998904,1.01303529 L70.8034056,1.01303529 L70.8034056,0.211976471 L77.2457035,0.211976471 L77.2457035,1.01303529 L76.7329359,1.01303529 C76.0004106,1.01303529 75.5412742,1.33268235 75.5412742,2.21397647 L75.5412742,20.6448 L77.1384409,20.6448 C80.0567692,20.6448 80.8193803,17.3862118 80.8193803,14.2855059 L80.8193803,14.2065647 L81.5505975,14.2065647 L81.5505975,21.5791529 Z" id="Fill-10"></path>
                            <path d="M61.9779152,1.01355294 L61.7607737,1.01355294 C60.7208495,1.01355294 60.1832283,1.20249412 59.8117333,2.96378824 L55.8600212,21.7375529 L54.642198,21.7375529 L52.1790818,9.45249412 L52.1516121,9.45249412 L49.6335566,21.7375529 L48.4157333,21.7375529 L44.5438141,2.48367059 C44.2978949,1.25555294 43.9381727,1.01355294 42.8393848,1.01355294 L42.7569758,1.01355294 L42.7569758,0.212494118 L48.6315667,0.212494118 L48.6315667,1.01355294 L48.524304,1.01355294 C47.6792838,1.01355294 47.4686828,1.30731765 47.4686828,1.86767059 C47.4686828,1.99708235 47.4660667,2.19249412 47.4948444,2.34778824 L49.9592687,15.3808471 L50.0142081,15.3808471 L51.6100667,6.80990588 L50.7715869,2.48367059 C50.5622939,1.41343529 50.3163747,1.01355294 49.4451929,1.01355294 L49.3091525,1.01355294 L49.3091525,0.212494118 L55.1013343,0.212494118 L55.1013343,1.01355294 L54.9940717,1.01355294 C53.9122889,1.01355294 53.6951475,1.37202353 53.6938394,2.10837647 C53.6938394,2.30508235 53.7278495,2.53155294 53.7762485,2.77614118 L56.2393646,15.2216706 L56.294304,15.2216706 L58.6226879,2.75025882 C58.6540818,2.57037647 58.6750111,2.39825882 58.6750111,2.24167059 C58.6750111,1.38755294 58.3872333,1.01355294 57.2400465,1.01355294 L57.0778444,1.01355294 L57.0778444,0.212494118 L61.9779152,0.212494118 L61.9779152,1.01355294 Z" id="Fill-12"></path>
                            <path d="M71.1556717,21.5791529 L65.0103081,21.5791529 L65.0103081,20.7768 L65.1725101,20.7768 C66.2935354,20.7768 66.6336364,20.4830353 66.6336364,19.8696235 C66.6336364,19.6949176 66.5970101,19.4658588 66.5538434,19.2277412 L66.0397677,16.3962118 L62.3575202,16.3962118 L61.8421364,19.2277412 C61.7963535,19.4878588 61.7610354,19.6819765 61.7610354,19.8696235 C61.7610354,20.5309176 62.0252677,20.7768 63.1423687,20.7768 L63.2509394,20.7768 L63.2509394,21.5791529 L58.6216414,21.5791529 L58.6216414,20.7768 L58.8649444,20.7768 C59.8119949,20.7768 60.3548485,20.5593882 60.5968434,19.3079765 L64.3601919,-0.000258823529 L65.7415253,-0.000258823529 L69.6134444,19.2277412 C69.8449747,20.3872706 70.4519242,20.7768 70.966,20.7768 L71.1556717,20.7768 L71.1556717,21.5791529 Z M65.8226263,15.4075059 L64.1979899,5.95527059 L64.1443586,5.95527059 L62.5197222,15.4075059 L65.8226263,15.4075059 Z" id="Fill-15"></path>
                            <path d="M169.42328,7.61044706 L168.692063,7.61044706 L168.692063,7.53021176 C168.692063,4.08527059 167.37221,1.14762353 165.823442,1.14762353 L165.172018,1.14762353 L165.172018,19.5486824 C165.172018,20.4325647 165.632462,20.7768 166.364987,20.7768 L167.039957,20.7768 L167.039957,21.5791529 L160.381826,21.5791529 L160.381826,20.7768 L161.004472,20.7768 C161.736997,20.7768 162.196134,20.4299765 162.196134,19.5486824 L162.196134,1.14762353 L161.627119,1.14762353 C160.078351,1.14762353 158.757189,3.89762353 158.757189,7.53021176 L158.757189,7.61044706 L158.02728,7.61044706 L158.02728,0.211976471 L169.42328,0.211976471 L169.42328,7.61044706 Z" id="Fill-18"></path>
                            <path d="M157.079576,21.5791529 L146.034141,21.5791529 L146.034141,20.7768 L146.603157,20.7768 C147.333066,20.7768 147.76604,20.4299765 147.76604,19.5486824 L147.76604,2.24244706 C147.76604,1.35985882 147.333066,1.01303529 146.603157,1.01303529 L146.006672,1.01303529 L146.006672,0.211976471 L157.079576,0.211976471 L157.079576,7.55738824 L156.348359,7.55738824 L156.348359,7.47715294 C156.348359,3.12374118 155.007576,1.14762353 152.55754,1.14762353 L150.74454,1.14762353 L150.74454,10.0136235 L151.206293,10.0136235 C152.58501,10.0136235 153.235126,8.70527059 153.235126,5.95527059 L153.235126,5.87374118 L153.966343,5.87374118 L153.966343,15.1150353 L153.235126,15.1150353 L153.235126,15.0619765 C153.235126,12.3650353 152.61248,10.9764471 151.206293,10.9764471 L150.74454,10.9764471 L150.74454,20.6448 L152.450278,20.6448 C154.870227,20.6448 156.348359,18.3192706 156.348359,14.3385647 L156.348359,14.2609176 L157.079576,14.2609176 L157.079576,21.5791529 Z" id="Fill-20"></path>
                            <path d="M145.276109,21.5791529 L134.231982,21.5791529 L134.231982,20.7768 L134.799689,20.7768 C135.530907,20.7768 135.962573,20.4299765 135.962573,19.5486824 L135.962573,2.24244706 C135.962573,1.35985882 135.530907,1.01303529 134.799689,1.01303529 L134.204513,1.01303529 L134.204513,0.211976471 L145.276109,0.211976471 L145.276109,7.55738824 L144.544891,7.55738824 L144.544891,7.47715294 C144.544891,3.12374118 143.204109,1.14762353 140.755381,1.14762353 L138.941073,1.14762353 L138.941073,10.0136235 L139.402826,10.0136235 C140.781543,10.0136235 141.431659,8.70527059 141.431659,5.95527059 L141.431659,5.87374118 L142.162876,5.87374118 L142.162876,15.1150353 L141.431659,15.1150353 L141.431659,15.0619765 C141.431659,12.3650353 140.810321,10.9764471 139.402826,10.9764471 L138.941073,10.9764471 L138.941073,20.6448 L140.646811,20.6448 C143.06676,20.6448 144.544891,18.3192706 144.544891,14.3385647 L144.544891,14.2609176 L145.276109,14.2609176 L145.276109,21.5791529 Z" id="Fill-22"></path>
                            <path d="M120.344088,7.61044706 L119.612871,7.61044706 L119.612871,7.53021176 C119.612871,4.08527059 118.29171,1.14762353 116.74425,1.14762353 L116.092826,1.14762353 L116.092826,19.5486824 C116.092826,20.4325647 116.551962,20.7768 117.285795,20.7768 L117.962073,20.7768 L117.962073,21.5791529 L111.301326,21.5791529 L111.301326,20.7768 L111.92528,20.7768 C112.656497,20.7768 113.116942,20.4299765 113.116942,19.5486824 L113.116942,1.14762353 L112.546619,1.14762353 C110.997851,1.14762353 109.677997,3.89762353 109.677997,7.53021176 L109.677997,7.61044706 L108.94678,7.61044706 L108.94678,0.211976471 L120.344088,0.211976471 L120.344088,7.61044706 Z" id="Fill-24"></path>
                            <path d="M108.920095,16.3963412 C108.920095,20.1777529 106.598252,21.7371647 103.883984,21.7371647 C101.914015,21.7371647 101.015363,21.0978706 100.068313,20.4572824 L99.5529288,21.5792824 L98.9852217,21.5792824 L98.9852217,14.2338706 L99.7151308,14.2338706 L99.7151308,14.4474 C99.7151308,19.6031647 102.345681,20.7769294 103.666843,20.7769294 C105.676055,20.7769294 106.564242,19.6381059 106.564242,17.3863412 C106.564242,14.9275176 105.001085,13.1377529 102.747262,11.4566941 C100.706656,9.93092941 98.8230197,8.06351765 98.8230197,4.94081176 C98.8230197,1.72363529 100.832232,0.0529294118 103.235176,0.0529294118 C105.235232,0.0529294118 106.165277,0.853988235 106.698974,1.30692941 L107.241828,0.265164706 L107.783373,0.265164706 L107.783373,7.63645882 L107.050848,7.63645882 L107.050848,7.42292941 C107.050848,3.41763529 105.834333,1.01316471 103.424848,1.01316471 C101.899626,1.01316471 101.096464,2.07563529 101.096464,3.76575294 C101.096464,5.77422353 102.29859,6.91563529 104.534101,8.62645882 C107.011606,10.5210471 108.920095,12.5152824 108.920095,16.3963412" id="Fill-26"></path>
                            <path d="M134.042441,18.6660941 C134.042441,20.4584471 133.353083,21.7370353 131.578017,21.7370353 C129.805568,21.7370353 129.052113,20.4377412 128.925229,17.7848 L128.735558,13.8053882 C128.636143,11.7024471 127.822517,11.1369176 126.596845,11.1369176 L125.811997,11.1369176 L125.811997,19.5486824 C125.811997,20.4312706 126.162563,20.7768 126.895088,20.7768 L127.652467,20.7768 L127.652467,21.5791529 L121.047967,21.5791529 L121.047967,20.7768 L121.670613,20.7768 C122.403138,20.7768 122.860967,20.4312706 122.860967,19.5486824 L122.860967,2.24244706 C122.860967,1.35985882 122.403138,1.01303529 121.670613,1.01303529 L121.047967,1.01303529 L121.047967,0.211976471 L126.976189,0.211976471 C130.556406,0.211976471 132.79584,2.02374118 132.79584,5.39362353 C132.79584,8.92009412 130.309179,10.2543294 128.112911,10.6813882 L128.112911,10.7357412 C129.915446,10.9220941 131.55578,12.2459765 131.660426,14.2609176 L131.903729,18.9339765 C131.952128,19.8618588 132.065931,20.1375059 132.498906,20.1375059 C133.039143,20.1375059 133.147714,19.7350353 133.147714,18.3464471 L133.147714,17.5712706 L134.042441,17.5712706 L134.042441,18.6660941 Z M129.682608,5.44668235 C129.682608,2.10785882 128.347058,1.14762353 126.517053,1.14762353 L125.811997,1.14762353 L125.811997,10.1482118 L126.625623,10.1482118 C128.535421,10.1482118 129.682608,8.86832941 129.682608,5.44668235 L129.682608,5.44668235 Z" id="Fill-28"></path>
                            <path d="M254.842004,21.5791529 L243.93261,21.5791529 L244.364276,20.7768 L244.691296,20.7768 C245.422514,20.7768 245.88165,20.4558588 245.88165,19.5745647 L245.88165,2.21656471 C245.88165,1.33527059 245.422514,1.01303529 244.691296,1.01303529 L244.094812,1.01303529 L244.094812,0.211976471 L250.53711,0.211976471 L250.53711,1.01303529 L250.023034,1.01303529 C249.293125,1.01303529 248.83268,1.33527059 248.83268,2.21656471 L248.83268,20.6448 L250.429847,20.6448 C253.349483,20.6448 254.110786,17.3862118 254.110786,14.3139765 L254.110786,14.2337412 L254.842004,14.2337412 L254.842004,21.5791529 Z" id="Fill-30"></path>
                            <path d="M258.606529,20.2686 C258.606529,21.0722471 258.002196,21.7374235 257.35862,21.7374235 C256.717661,21.7374235 256.114635,21.0722471 256.114635,20.2686 C256.114635,19.4675412 256.717661,18.8269529 257.35862,18.8269529 C258.002196,18.8269529 258.606529,19.4675412 258.606529,20.2686" id="Fill-32"></path>
                            <path d="M233.023608,1.01355294 L232.453285,1.01355294 C231.779623,1.01355294 231.238078,1.51955294 231.238078,2.56261176 L231.238078,21.6586118 L230.17984,21.6586118 L223.41183,4.83249412 L223.358199,4.83249412 L223.358199,19.2269647 C223.358199,20.2713176 223.898436,20.7760235 224.57733,20.7760235 L225.118876,20.7760235 L225.118876,21.5796706 L220.543209,21.5796706 L220.543209,20.7760235 L221.167164,20.7760235 C221.843441,20.7760235 222.384987,20.2713176 222.384987,19.2269647 L222.384987,2.34778824 C222.384987,1.59978824 222.091977,1.01355294 221.329366,1.01355294 L220.543209,1.01355294 L220.543209,0.212494118 L224.712063,0.212494118 L230.208618,13.9676706 L230.262249,13.9676706 L230.262249,2.56261176 C230.262249,1.51178824 229.720704,1.01355294 229.043118,1.01355294 L228.474103,1.01355294 L228.474103,0.212494118 L233.023608,0.212494118 L233.023608,1.01355294 Z" id="Fill-35"></path>
                            <path d="M208.144565,1.01355294 L207.007843,1.01355294 C206.331565,1.01355294 205.92606,1.57390588 205.92606,2.56261176 L205.92606,16.7979059 C205.92606,19.6346118 204.965929,21.7375529 201.864469,21.7375529 C198.566797,21.7375529 196.639994,19.7420235 196.639994,16.7979059 L196.639994,2.24167059 C196.639994,1.36037647 196.208328,1.01355294 195.477111,1.01355294 L194.880626,1.01355294 L194.880626,0.212494118 L201.215661,0.212494118 L201.215661,1.01355294 L200.808848,1.01355294 C200.075015,1.01355294 199.644656,1.36037647 199.644656,2.24167059 L199.644656,16.9855529 C199.644656,19.3939059 200.606095,20.7760235 202.242505,20.7760235 C203.906383,20.7760235 204.922762,19.6061412 204.922762,16.9855529 L204.922762,2.56261176 C204.922762,1.57390588 204.542111,1.01355294 203.867141,1.01355294 L203.244494,1.01355294 L203.244494,0.212494118 L208.144565,0.212494118 L208.144565,1.01355294 Z" id="Fill-37"></path>
                            <path d="M183.674167,1.01355294 L183.131313,1.01355294 C182.39748,1.01355294 181.939652,1.36037647 181.939652,2.24167059 L181.939652,17.1447294 C181.939652,20.4900235 179.812712,21.7375529 177.09452,21.7375529 C175.148096,21.7375529 173.196439,20.1690824 173.196439,17.1447294 C173.196439,15.5206118 174.220667,14.8217882 175.035601,14.8217882 C175.884545,14.8217882 176.499343,15.4144941 176.499343,16.4239059 C176.499343,17.7128471 175.734116,18.2550824 174.739975,18.4013176 C174.739975,19.4974353 175.596768,20.7760235 177.067051,20.7760235 C178.477162,20.7760235 178.961152,20.0086118 178.961152,17.7050824 L178.961152,2.24167059 C178.961152,1.36037647 178.530793,1.01355294 177.798268,1.01355294 L177.229253,1.01355294 L177.229253,0.212494118 L183.674167,0.212494118 L183.674167,1.01355294 Z" id="Fill-40"></path>
                            <path d="M244.446293,21.5791529 L238.302237,21.5791529 L238.302237,20.7768 L238.464439,20.7768 C239.585465,20.7768 239.925566,20.4830353 239.925566,19.8696235 C239.925566,19.6962118 239.888939,19.4658588 239.844465,19.2277412 L239.331697,16.3962118 L235.648141,16.3962118 L235.135374,19.2277412 C235.088283,19.4878588 235.052965,19.6819765 235.052965,19.8696235 C235.052965,20.5309176 235.315889,20.7768 236.434298,20.7768 L236.544177,20.7768 L236.544177,21.5791529 L231.913571,21.5791529 L231.913571,20.7768 L232.155566,20.7768 C233.102616,20.7768 233.646778,20.5593882 233.890081,19.3079765 L237.652121,-0.000258823529 L239.032146,-0.000258823529 L242.905374,19.2277412 C243.138212,20.3872706 243.743854,20.7768 244.256621,20.7768 L244.446293,20.7768 L244.446293,21.5791529 Z M239.114556,15.4075059 L237.491227,5.95527059 L237.436288,5.95527059 L235.811652,15.4075059 L239.114556,15.4075059 Z" id="Fill-43"></path>
                            <path d="M220.489578,18.6660941 C220.489578,20.4584471 219.800219,21.7370353 218.025154,21.7370353 C216.251396,21.7370353 215.500558,20.4377412 215.373674,17.7848 L215.182694,13.8053882 C215.08328,11.6908 214.268345,11.1369176 213.04529,11.1369176 L212.259133,11.1369176 L212.259133,19.5486824 C212.259133,20.4312706 212.611007,20.7768 213.343532,20.7768 L214.102219,20.7768 L214.102219,21.5791529 L207.495103,21.5791529 L207.495103,20.7768 L208.119058,20.7768 C208.850275,20.7768 209.309411,20.4312706 209.309411,19.5486824 L209.309411,2.24244706 C209.309411,1.35985882 208.850275,1.01303529 208.119058,1.01303529 L207.495103,1.01303529 L207.495103,0.211976471 L213.423325,0.211976471 C217.004851,0.211976471 219.242977,2.02374118 219.242977,5.39362353 C219.242977,8.92009412 216.756315,10.2543294 214.560047,10.6813882 L214.560047,10.7357412 C216.363891,10.9220941 218.001608,12.2330353 218.107563,14.2609176 L218.350866,18.9339765 C218.399265,19.8670353 218.514376,20.1375059 218.946042,20.1375059 C219.487588,20.1375059 219.594851,19.7350353 219.594851,18.3464471 L219.594851,17.5712706 L220.489578,17.5712706 L220.489578,18.6660941 Z M216.131053,5.44668235 C216.131053,2.10785882 214.794194,1.14762353 212.962881,1.14762353 L212.259133,1.14762353 L212.259133,10.1482118 L213.07276,10.1482118 C214.983866,10.1482118 216.131053,8.86832941 216.131053,5.44668235 L216.131053,5.44668235 Z" id="Fill-46"></path>
                            <path d="M194.933341,10.8432824 C194.933341,16.9114 192.917589,21.7371647 189.222261,21.7371647 C185.611958,21.7371647 183.592281,16.9114 183.592281,10.8432824 C183.592281,4.76998824 185.529548,0.0529294118 189.222261,0.0529294118 C192.874422,0.0529294118 194.933341,4.76998824 194.933341,10.8432824 M191.576806,15.9162235 L191.576806,5.82081176 C191.576806,2.12869412 190.746175,1.01316471 189.222261,1.01316471 C187.698346,1.01316471 186.921346,2.07563529 186.921346,5.87387059 L186.921346,15.8877529 C186.921346,19.4491647 187.615937,20.7769294 189.222261,20.7769294 C190.802422,20.7769294 191.576806,19.3689294 191.576806,15.9162235" id="Fill-48"></path>
                        </g>
                    </g>
                </g>
            </g>
        </g>
    </g>
</svg>