<?xml version="1.0" encoding="UTF-8"?>
<svg width="128px" height="32px" viewBox="0 0 128 32" version="1.1" xmlns="http://www.w3.org/2000/svg" xmlns:xlink="http://www.w3.org/1999/xlink">
    <!-- Generator: sketchtool 42 (36781) - http://www.bohemiancoding.com/sketch -->
    <title>25B4DC46-CC60-4C27-BB5C-A54071C7A443</title>
    <desc>Created with sketchtool.</desc>
    <defs></defs>
    <g id="Web" stroke="none" stroke-width="1" fill="none" fill-rule="evenodd" opacity="0.6">
        <g id="06-1_about" transform="translate(-426.000000, -996.000000)" fill="#FFFFFF">
            <g id="Group-2" transform="translate(68.000000, 933.000000)">
                <g id="aboutForbes" transform="translate(358.000000, 63.000000)">
                    <g>
                        <g>
                            <path d="M74.5939753,30.3833834 C74.0051915,30.3833834 73.2694242,30.3833834 72.827624,30.2367463 C72.68149,28.1821313 72.5336569,19.5220646 72.68149,11.8901531 C73.5633913,11.5951836 74.1513254,11.4493941 74.8879423,11.4493941 C78.124129,11.4493941 79.8896307,15.2653499 79.8896307,19.9628236 C79.8896307,25.8333944 77.684028,30.3833834 74.5939753,30.3833834 M77.9771455,9.10065722 C75.9185263,9.10065722 74.2991586,9.54141622 72.68149,10.421239 C72.68149,5.72461284 72.68149,1.46789808 72.827624,-0.000168421053 L62.9703812,1.76117233 L62.9703812,2.64269033 L64.0001156,2.78932745 C65.3246667,3.08260171 65.7656173,3.81663496 66.060434,5.57797571 C66.354401,9.10065722 66.2074175,27.888857 66.060434,30.9707795 C68.7078369,31.5581757 71.5039225,31.9989347 74.2991586,31.9989347 C82.0977822,31.9989347 86.8046538,27.1548238 86.8046538,19.5220646 C86.8046538,13.5040091 82.9796834,9.10065722 77.9771455,9.10065722" id="Fill-1"></path>
                            <path d="M25.8936566,0.58773627 L-8.47682118e-05,0.58773627 L-8.47682118e-05,1.90831803 L1.47144983,2.05495516 C3.38393504,2.34907703 4.11970234,3.52217404 4.41366942,6.31166992 C4.85546965,11.5956922 4.70848611,21.1364292 4.41366942,25.6872658 C4.11970234,28.4750665 3.38393504,29.7973435 1.47144983,29.943133 L-8.47682118e-05,30.2364072 L-8.47682118e-05,31.4111995 L16.6251976,31.4111995 L16.6251976,30.2364072 L14.8596959,29.943133 C12.9472107,29.7973435 12.2114434,28.4750665 11.9174763,25.6872658 C11.7696432,23.7784403 11.6226597,20.6956702 11.6226597,16.8797145 L15.153663,17.0271992 C17.3618145,17.0271992 18.3906993,18.7876923 18.8324995,21.283914 L20.1570506,21.283914 L20.1570506,10.8625065 L18.8324995,10.8625065 C18.3906993,13.3570329 17.3618145,15.1183737 15.153663,15.1183737 L11.6226597,15.2650108 C11.6226597,10.2751104 11.7696432,5.57763667 11.9174763,2.78898841 L17.0661482,2.78898841 C21.0389518,2.78898841 23.0992702,5.28436241 24.5691055,9.6877143 L26.0406401,9.24695531 L25.8936566,0.58773627 Z" id="Fill-4"></path>
                            <path d="M33.8393487,10.2748561 C30.6023124,10.2748561 29.7195616,14.678208 29.7195616,20.4029893 C29.7195616,25.9802858 31.1910962,30.5302748 34.1341654,30.5302748 C37.5173356,30.5302748 38.4000864,26.1277706 38.4000864,20.4029893 C38.4000864,14.8248452 36.9294014,10.2748561 33.8393487,10.2748561 M34.2802993,8.80763725 C41.6371227,8.80763725 45.3151096,13.7975377 45.3151096,20.4029893 C45.3151096,26.7143191 41.1961721,31.9983413 33.8393487,31.9983413 C26.4825253,31.9983413 22.8045384,27.0084409 22.8045384,20.4029893 C22.8045384,14.0908119 26.9243255,8.80763725 34.2802993,8.80763725" id="Fill-7"></path>
                            <path d="M95.4850087,17.7610629 L102.400882,17.6135782 C102.400882,14.6782928 101.959081,10.2749409 99.4586619,10.2749409 C96.9565433,10.2749409 95.6328419,14.3841709 95.4850087,17.7610629 M88.7178187,20.5488636 C88.7178187,14.5316557 92.5427892,8.80772202 100.046596,8.80772202 C106.226702,8.80772202 109.168921,13.357711 109.168921,19.3749189 L95.4850087,19.3749189 C95.3380252,24.8064259 97.9862777,28.7690188 103.283632,28.7690188 C105.637068,28.7690188 106.814636,28.1816227 108.285321,27.1551628 L108.874104,27.8883485 C107.40257,29.9438111 104.166383,31.9984261 100.046596,31.9984261 C93.42554,31.9984261 88.7178187,27.3017999 88.7178187,20.5488636" id="Fill-9"></path>
                            <path d="M126.656494,9.98183617 C124.890992,9.24695531 122.536707,8.80704392 119.889304,8.80704392 C114.445815,8.80704392 111.061795,12.0356036 111.061795,15.8524069 C111.061795,19.6692103 113.562215,21.2830663 117.094068,22.4578586 C120.771205,23.7784403 121.801789,24.8065955 121.801789,26.5670886 C121.801789,28.329277 120.478087,29.943133 118.123802,29.943133 C115.328566,29.943133 113.268248,28.329277 111.649729,23.9259251 L110.619995,24.2191993 L110.767828,30.6780139 C112.53333,31.4111995 115.770366,31.9985956 118.565602,31.9985956 C124.303058,31.9985956 127.981894,29.0624626 127.981894,24.5133212 C127.981894,21.4297035 126.362527,19.6692103 122.536707,18.2011438 C118.417769,16.5864402 116.946235,15.5591327 116.946235,13.6511548 C116.946235,11.7423293 118.271635,10.4217476 120.036287,10.4217476 C122.68454,10.4217476 124.450041,12.0356036 125.774593,15.9990441 L126.804327,15.7057698 L126.656494,9.98183617 Z" id="Fill-11"></path>
                            <path d="M64.4416609,9.39418576 C61.9412416,7.92611926 57.5266378,8.66015251 55.1723523,13.9441748 L55.3201855,8.80763725 L45.4620931,10.7156151 L45.4620931,11.5954379 L46.4926771,11.7429226 C47.8163786,11.8895598 48.4043127,12.6227454 48.5512962,14.5315709 C48.8461129,18.0542524 48.6991294,24.2189451 48.5512962,27.3017152 C48.4043127,29.0630559 47.8163786,29.9437263 46.4926771,30.0903634 L45.4620931,30.2370006 L45.4620931,31.4117928 L59.1451559,31.4117928 L59.1451559,30.2370006 L57.3788046,30.0903634 C55.9081196,29.9437263 55.467169,29.0630559 55.3201855,27.3017152 C55.0253688,24.5130669 55.0253688,18.9349228 55.1723523,15.4122413 C55.9081196,14.3840862 59.1451559,13.5042634 62.0873755,15.4122413 L64.4416609,9.39418576 Z" id="Fill-14"></path>
                        </g>
                    </g>
                </g>
            </g>
        </g>
    </g>
</svg>
