<?xml version="1.0" encoding="UTF-8"?>
<svg width="164px" height="34px" viewBox="0 0 164 34" version="1.1" xmlns="http://www.w3.org/2000/svg" xmlns:xlink="http://www.w3.org/1999/xlink">
    <!-- Generator: sketchtool 42 (36781) - http://www.bohemiancoding.com/sketch -->
    <title>37837727-5E9C-4665-9F4A-0FB3E888A689</title>
    <desc>Created with sketchtool.</desc>
    <defs></defs>
    <g id="Web" stroke="none" stroke-width="1" fill="none" fill-rule="evenodd" opacity="0.6">
        <g id="06-1_about" transform="translate(-116.000000, -995.000000)" fill="#FFFFFF">
            <g id="Group-2" transform="translate(68.000000, 933.000000)">
                <g id="aboutWired" transform="translate(48.000000, 62.000000)">
                    <g>
                        <g>
                            <polygon id="Fill-1" points="58 8.86701888 58 5 42 5 42 8.86701888 47.5696818 8.86701888 47.5696818 24.1329811 42 24.1329811 42 28 58 28 58 24.1329811 51.9242045 24.1329811 51.9242045 8.86701888"></polygon>
                            <path d="M84.0102059,9.30932143 L77.6793235,9.30932143 L77.6793235,15.5835357 C77.6793235,15.5835357 81.0955882,15.4821429 83.9095147,15.4821429 C86.7234412,15.4821429 87.4264706,14.875 87.4264706,12.0414643 C87.4264706,8.80357143 84.0102059,9.30932143 84.0102059,9.30932143" id="Fill-2"></path>
                            <path d="M92.3394495,22.8706667 L92.3394495,28.1801802 L87.7981651,28.1801802 L87.7981651,23.176973 C87.7981651,23.176973 87.7981651,19.2972973 85.1745138,19.2972973 C82.5508624,19.2972973 78.009578,19.3996036 78.009578,19.3996036 L78.009578,28.2824865 L73.5688073,28.2824865 L73.5688073,5.41120721 L86.6882752,5.41120721 C86.6882752,5.41120721 92.3394495,5.1049009 92.3394495,11.3333333 C92.3394495,17.5617658 88.9086606,17.8680721 88.9086606,17.8680721 C88.9086606,17.8680721 92.3394495,18.0714595 92.3394495,22.8706667 L92.3394495,22.8706667 Z M66,34 L99,34 L99,0 L66,0 L66,34 Z" id="Fill-4"></path>
                            <polygon id="Fill-6" points="105 5 105 8.78242667 108.083904 8.78242667 108.083904 24.2181867 105 24.2181867 105 28 124 28 124 20.5381867 120.219577 20.5381867 120.219577 24.2181867 112.162154 24.2181867 112.162154 17.9824267 118.130615 17.9824267 118.130615 14.2 112.162154 14.2 112.162154 8.78242667 119.921153 8.78242667 119.921153 12.4624267 124 12.4624267 124 5"></polygon>
                            <path d="M149.931574,9.20853571 L143.098441,9.20853571 L143.098441,24.3871071 L150.233044,24.3871071 C153.649912,24.3871071 153.75,19.9343214 153.75,19.9343214 L153.75,14.0656786 C153.75,8.90435714 149.931574,9.20853571 149.931574,9.20853571" id="Fill-8"></path>
                            <path d="M150.376147,28.5887928 C142.101321,28.5887928 138.367174,28.6904865 138.367174,28.6904865 L138.367174,5.51351351 L148.156367,5.51351351 C148.156367,5.51351351 158.247706,4.39059459 158.247706,13.5797838 L158.247706,20.0122162 C158.247706,20.0122162 158.650972,28.5887928 150.376147,28.5887928 L150.376147,28.5887928 Z M131,34 L164,34 L164,0 L131,0 L131,34 Z" id="Fill-10"></path>
                            <path d="M26.2389358,28.3841802 L20.587156,28.3841802 L16.9541284,11.7419459 L13.0183486,28.4864865 L7.46829358,28.4864865 L2.82588991,5.51351351 L7.36717431,5.51351351 L10.4958165,22.972973 L14.5321101,5.51351351 L19.4772661,5.61581982 L23.5141651,23.2792793 L26.5416881,5.51351351 L30.8807339,5.51351351 L26.2389358,28.3841802 Z M0,34 L33,34 L33,0 L0,0 L0,34 Z" id="Fill-12"></path>
                        </g>
                    </g>
                </g>
            </g>
        </g>
    </g>
</svg>
