<svg width="1200" height="272" viewBox="0 0 1200 272" fill="none" xmlns="http://www.w3.org/2000/svg">
    <path d="M79.4615 25.5H1156.13C1160.08 25.5 1167.56 26.5611 1177.75 28.5448C1187.89 30.5199 1200.6 33.3853 1214.95 36.9426C1243.63 44.0568 1278.81 53.9275 1312.95 64.948C1347.1 75.9717 1380.18 88.1307 1404.69 99.816C1416.96 105.662 1427.01 111.36 1433.98 116.701C1437.47 119.372 1440.13 121.915 1441.9 124.299C1443.69 126.689 1444.5 128.81 1444.5 130.672C1444.5 132.545 1443.69 134.715 1441.93 137.19C1440.17 139.656 1437.54 142.313 1434.1 145.13C1427.23 150.762 1417.3 156.873 1405.19 163.218C1380.97 175.899 1348.26 189.387 1314.35 201.742C1280.45 214.093 1245.41 225.293 1216.54 233.404C1202.11 237.46 1189.24 240.739 1178.83 243.004C1168.38 245.278 1160.55 246.5 1156.13 246.5H1155.9H1155.65H1155.39H1155.1H1154.78H1154.45H1154.1H1153.72H1153.33H1152.91H1152.48H1152.02H1151.54H1151.05H1150.53H1149.99H1149.43H1148.86H1148.26H1147.64H1147H1146.35H1145.67H1144.97H1144.26H1143.52H1142.77H1141.99H1141.2H1140.39H1139.56H1138.71H1137.84H1136.95H1136.05H1135.12H1134.18H1133.22H1132.24H1131.24H1130.23H1129.19H1128.14H1127.07H1125.98H1124.88H1123.76H1122.62H1121.46H1120.28H1119.09H1117.88H1116.65H1115.41H1114.15H1112.87H1111.58H1110.27H1108.94H1107.59H1106.23H1104.85H1103.46H1102.05H1100.62H1099.18H1097.72H1096.25H1094.76H1093.26H1091.73H1090.2H1088.64H1087.08H1085.49H1083.9H1082.28H1080.65H1079.01H1077.35H1075.68H1073.99H1072.29H1070.57H1068.84H1067.09H1065.33H1063.56H1061.77H1059.96H1058.15H1056.31H1054.47H1052.61H1050.74H1048.85H1046.95H1045.04H1043.11H1041.17H1039.22H1037.26H1035.28H1033.28H1031.28H1029.26H1027.23H1025.19H1023.13H1021.07H1018.99H1016.89H1014.79H1012.67H1010.54H1008.4H1006.25H1004.09H1001.91H999.722H997.522H995.311H993.089H990.856H988.611H986.355H984.089H981.811H979.522H977.223H974.912H972.592H970.26H967.918H965.566H963.203H960.831H958.448H956.055H953.652H951.239H948.816H946.384H943.942H941.49H939.029H936.558H934.079H931.589H929.091H926.584H924.068H921.542H919.008H916.466H913.914H911.354H908.786H906.209H903.623H901.03H898.428H895.818H893.201H890.575H887.941H885.3H882.651H879.995H877.331H874.659H871.98H869.294H866.601H863.901H861.193H858.479H855.758H853.03H850.295H847.554H844.806H842.052H839.291H836.525H833.752H830.972H828.187H825.396H822.599H819.796H816.988H814.174H811.354H808.529H805.699H802.863H800.022H797.176H794.325H791.469H788.608H785.743H782.872H779.997H777.118H774.234H771.345H768.453H765.556H762.655H759.75H756.84H753.927H751.011H748.09H745.166H742.238H739.307H736.373H733.435H730.494H727.549H724.602H721.652H718.699H715.743H712.784H709.823H706.859H703.892H700.923H697.952H694.979H692.003H689.026H686.046H683.064H680.081H677.096H674.109H671.121H668.131H665.14H662.147H659.153H656.158H653.162H650.165H647.167H644.168H641.168H638.168H635.167H632.165H629.163H626.161H623.159H620.156H617.153H614.151H611.148H608.145H605.143H602.141H599.139H596.138H593.137H590.138H587.138H584.14H581.142H578.146H575.15H572.156H569.163H566.171H563.18H560.191H557.204H554.218H551.234H548.251H545.271H542.292H539.316H536.342H533.37H530.4H527.432H524.467H521.505H518.545H515.588H512.633H509.682H506.733H503.787H500.845H497.906H494.97H492.037H489.108H486.182H483.26H480.342H477.427H474.516H471.61H468.707H465.808H462.914H460.023H457.137H454.256H451.379H448.507H445.639H442.776H439.918H437.065H434.216H431.373H428.535H425.703H422.875H420.053H417.237H414.426H411.621H408.822H406.028H403.24H400.458H397.683H394.913H392.15H389.393H386.643H383.899H381.161H378.43H375.706H372.989H370.279H367.575H364.879H362.19H359.508H356.833H354.166H351.506H348.854H346.209H343.572H340.943H338.322H335.709H333.104H330.507H327.918H325.337H322.765H320.202H317.646H315.1H312.562H310.033H307.513H305.002H302.5H300.007H297.523H295.048H292.583H290.128H287.681H285.245H282.818H280.401H277.994H275.596H273.209H270.832H268.465H266.108H263.762H261.426H259.101H256.786H254.482H252.188H249.906H247.634H245.374H243.124H240.886H238.659H236.444H234.239H232.047H229.865H227.696H225.538H223.392H221.258H219.137H217.027H214.929H212.844H210.77H208.71H206.661H204.626H202.603H200.593H198.595H196.611H194.639H192.681H190.736H188.804H186.885H184.979H183.088H181.209H179.345H177.494H175.657H173.834H172.024H170.229H168.448H166.681H164.929H163.191H161.467H159.758H158.064H156.384H154.719H153.069H151.434H149.814H148.209H146.62H145.045H143.486H141.943H140.415H138.902H137.406H135.925H134.46H133.011H131.578H130.161H128.76H127.376H126.008H124.656H123.321H122.002H120.701H119.416H118.148H116.896H115.662H114.445H113.245H112.063H110.897H109.75H108.619H107.507H106.412H105.334H104.275H103.233H102.21H101.205H100.217H99.2484H98.2978H97.3656H96.452H95.5569H94.6805H93.8228H92.984H92.1641H91.3632H90.5813H89.8187H89.0753H88.3511H87.6465H86.9613H86.2957H85.6497H85.0235H84.4171H83.8306H83.2641H82.7177H82.1914H81.6854H81.1996H80.7343H80.2895H79.8652H79.4615C46.1092 246.5 -15.8335 235.743 -69.4348 216.578C-96.2311 206.998 -120.839 195.352 -138.718 181.97C-156.64 168.556 -167.5 153.633 -167.5 137.532C-167.5 121.417 -156.79 106.3 -139.08 92.6018C-121.409 78.9348 -97.0541 66.9084 -70.4288 56.9465C-17.1675 37.0186 44.7677 25.5 79.4615 25.5Z" fill="white" stroke="#EFF1F5" stroke-width="3"/>
    <path fill-rule="evenodd" clip-rule="evenodd" d="M-131 140.814L-95.8242 138.982L-66.209 184.813L-95.8242 187.396L-131 140.814ZM-80.9346 197.51L-56.8877 195.754L-31.2227 204.742L-50.5215 215.101L-80.9346 197.51ZM17.7002 219.035L-16.9385 208.887L-37.123 219.443L19 230L17.7002 219.035Z" fill="#EFF1F5"/>
    <path fill-rule="evenodd" clip-rule="evenodd" d="M17.7002 52.9645L-16.9385 63.113L-37.123 52.5565L19 42L17.7002 52.9645ZM-80.9346 74.4901L-56.8877 76.246L-31.2227 67.2579L-50.5215 56.8991L-80.9346 74.4901ZM-131 131.186L-95.8242 133.018L-66.209 87.1875L-95.8242 84.6043L-131 131.186Z" fill="#EFF1F5"/>
    <path fill-rule="evenodd" clip-rule="evenodd" d="M441 248L695.062 487H854L810.129 248H441Z" fill="#EAECF0"/>
    <path fill-rule="evenodd" clip-rule="evenodd" d="M441 24L695.062 -215H854L810.129 24H441Z" fill="#EAECF0"/>
    <path fill-rule="evenodd" clip-rule="evenodd" d="M1168 26C1200.5 23.5 1388 94.4498 1388 130.658C1388 166.865 1215.5 246 1168 246C1168 206.19 1168 80.1162 1168 26Z" fill="#EFF1F5"/>
    <path d="M1178.92 131.261L1181.28 139.032C1181.43 139.523 1181.26 140.036 1180.83 140.428C1180.4 140.82 1179.75 141.048 1179.07 141.048L1179.98 148.447C1180.06 149.287 1179.15 150 1177.99 150C1176.89 150 1176 149.347 1176 148.542V130.563C1176 130.252 1176.34 130 1176.77 130C1177.8 130 1178.7 130.524 1178.92 131.261Z" fill="#C2C5CC"/>
    <path d="M1190.35 130.745C1190.35 130.333 1190.72 130 1191.18 130C1191.63 130 1192 130.333 1192 130.745V135.796C1192 136.488 1191.69 137.121 1191.19 137.574C1190.57 138.144 1190.23 138.922 1190.26 139.724L1190.67 148.247C1190.71 149.206 1189.86 150 1188.8 150C1187.74 150 1186.89 149.205 1186.93 148.247L1187.34 139.724C1187.37 138.922 1187.03 138.144 1186.41 137.574C1185.89 137.101 1185.6 136.462 1185.6 135.796L1185.62 134.601V130.745C1185.62 130.333 1185.99 130 1186.44 130C1186.9 130 1187.26 130.333 1187.26 130.745V134.601H1187.98V130.745C1187.98 130.333 1188.35 130 1188.8 130C1189.25 130 1189.62 130.333 1189.62 130.745V134.601H1190.35V130.745Z" fill="#C2C5CC"/>
    <rect x="1136" y="16" width="24" height="24" fill="white"/>
    <path d="M1144.92 31.7924C1144.92 32.2562 1144.54 32.6315 1144.07 32.6315H1140.86C1140.38 32.6315 1140 32.2562 1140 31.7924V20.8391C1140 20.3753 1140.38 19.9999 1140.86 19.9999H1155.14C1155.62 19.9999 1156 20.3753 1156 20.8391V31.7924C1156 32.2562 1155.62 32.6315 1155.14 32.6315H1151.94C1151.46 32.6315 1151.08 32.2562 1151.08 31.7924V31.0646C1151.08 30.6008 1151.46 30.2255 1151.94 30.2255H1152.68C1153.15 30.2255 1153.54 29.8502 1153.54 29.3864V23.2451C1153.54 22.7813 1153.15 22.4059 1152.68 22.4059H1143.32C1142.85 22.4059 1142.46 22.7813 1142.46 23.2451V29.3864C1142.46 29.8502 1142.85 30.2255 1143.32 30.2255H1144.07C1144.54 30.2255 1144.92 30.6008 1144.92 31.0646V31.7924Z" fill="#C2C5CC"/>
    <path d="M1147.69 24.6153C1147.86 24.4454 1148.14 24.4454 1148.31 24.6153L1150.95 28.0999C1151.22 28.3737 1151.03 28.842 1150.64 28.842H1149.67C1149.43 28.842 1149.23 29.0365 1149.23 29.2771V35.5655C1149.23 35.8055 1149.04 35.9999 1148.8 35.9999H1147.2C1146.96 35.9999 1146.77 35.8055 1146.77 35.5655V29.2771C1146.77 29.0365 1146.58 28.842 1146.33 28.842H1145.36C1144.97 28.842 1144.78 28.3737 1145.05 28.0999L1147.69 24.6153Z" fill="#C2C5CC"/>
    <rect x="1136" y="232" width="24" height="24" fill="white"/>
    <path d="M1148.1 247.501C1148.17 247.483 1148.25 247.444 1148.31 247.385L1150.95 243.9C1151.22 243.626 1151.03 243.158 1150.64 243.158H1149.67C1149.56 243.158 1149.47 243.121 1149.39 243.06C1149.29 242.98 1149.23 242.859 1149.23 242.723V236.434C1149.23 236.194 1149.04 236 1148.8 236H1147.2C1146.96 236 1146.77 236.194 1146.77 236.434V242.723C1146.77 242.963 1146.58 243.158 1146.33 243.158H1145.36C1144.97 243.158 1144.78 243.626 1145.05 243.9L1147.69 247.385C1147.8 247.495 1147.96 247.533 1148.1 247.501Z" fill="#C2C5CC"/>
    <path d="M1144.92 240.208C1144.92 239.744 1144.54 239.368 1144.07 239.368H1140.86C1140.38 239.368 1140 239.744 1140 240.208V251.161C1140 251.625 1140.38 252 1140.86 252H1155.14C1155.62 252 1156 251.625 1156 251.161V240.208C1156 239.744 1155.62 239.368 1155.14 239.368H1151.94C1151.46 239.368 1151.08 239.744 1151.08 240.208V240.935C1151.08 241.399 1151.46 241.774 1151.94 241.774H1152.68C1153.15 241.774 1153.54 242.15 1153.54 242.614V248.755C1153.54 249.219 1153.15 249.594 1152.68 249.594H1143.32C1142.85 249.594 1142.46 249.219 1142.46 248.755V242.614C1142.46 242.15 1142.85 241.774 1143.32 241.774H1144.07C1144.54 241.774 1144.92 241.399 1144.92 240.935V240.208Z" fill="#C2C5CC"/>
    <path d="M1147.27 215.3H1148.68L1151.96 224H1150.64L1149.96 222.116H1145.96L1145.29 224H1144.04L1147.27 215.3ZM1146.33 221.072H1149.57L1147.94 216.536L1146.33 221.072Z" fill="#737576"/>
    <path d="M1145 187.3H1148.13C1150.17 187.3 1151.19 188.016 1151.19 189.448C1151.19 189.864 1151.1 190.244 1150.93 190.588C1150.76 190.932 1150.53 191.192 1150.23 191.368C1151.11 191.736 1151.55 192.424 1151.55 193.432C1151.55 194.304 1151.26 194.952 1150.69 195.376C1150.12 195.792 1149.37 196 1148.43 196H1145V187.3ZM1146.22 191.02H1148.32C1149.41 191.02 1149.96 190.552 1149.96 189.616C1149.96 189.184 1149.81 188.864 1149.51 188.656C1149.22 188.44 1148.83 188.332 1148.32 188.332H1146.22V191.02ZM1146.22 194.968H1148.44C1149.68 194.968 1150.29 194.46 1150.29 193.444C1150.29 192.94 1150.14 192.572 1149.82 192.34C1149.51 192.108 1149.03 191.992 1148.37 191.992H1146.22V194.968Z" fill="#737576"/>
    <path d="M1151.97 165.228C1151.79 166.164 1151.36 166.888 1150.68 167.4C1150 167.904 1149.17 168.156 1148.21 168.156C1146.98 168.156 1146.02 167.74 1145.31 166.908C1144.61 166.076 1144.26 164.984 1144.26 163.632C1144.26 162.28 1144.63 161.196 1145.36 160.38C1146.1 159.556 1147.08 159.144 1148.3 159.144C1149.21 159.144 1150 159.404 1150.65 159.924C1151.32 160.444 1151.74 161.16 1151.93 162.072H1150.74C1150.6 161.504 1150.32 161.048 1149.89 160.704C1149.46 160.352 1148.91 160.176 1148.24 160.176C1147.44 160.176 1146.79 160.48 1146.27 161.088C1145.76 161.696 1145.51 162.544 1145.51 163.632C1145.51 164.712 1145.76 165.564 1146.27 166.188C1146.79 166.812 1147.45 167.124 1148.28 167.124C1148.95 167.124 1149.5 166.952 1149.92 166.608C1150.35 166.264 1150.64 165.804 1150.79 165.228H1151.97Z" fill="#737576"/>
    <path d="M1147.03 103.3C1148.52 103.3 1149.69 103.636 1150.52 104.308C1151.35 104.972 1151.77 106.084 1151.77 107.644C1151.77 108.452 1151.65 109.144 1151.42 109.72C1151.19 110.296 1150.86 110.748 1150.42 111.076C1149.99 111.404 1149.49 111.64 1148.93 111.784C1148.38 111.928 1147.75 112 1147.03 112H1144.65V103.3H1147.03ZM1146.99 104.332H1145.87V110.968H1146.99C1147.4 110.968 1147.75 110.948 1148.06 110.908C1148.36 110.868 1148.68 110.784 1149.01 110.656C1149.33 110.52 1149.6 110.336 1149.8 110.104C1150.01 109.864 1150.18 109.54 1150.31 109.132C1150.45 108.716 1150.52 108.22 1150.52 107.644C1150.52 107.076 1150.45 106.584 1150.31 106.168C1150.18 105.752 1150.01 105.428 1149.8 105.196C1149.59 104.964 1149.32 104.784 1148.99 104.656C1148.67 104.52 1148.36 104.432 1148.06 104.392C1147.75 104.352 1147.4 104.332 1146.99 104.332Z" fill="#737576"/>
    <path d="M1145.35 75.3H1151.26V76.356H1146.58V78.996H1150.98V80.052H1146.58V82.944H1151.26V84H1145.35V75.3Z" fill="#737576"/>
    <path d="M1145.67 47.3H1151.33V48.356H1146.9V50.996H1151.07V52.052H1146.9V56H1145.67V47.3Z" fill="#737576"/>
    <path d="M1092 156C1092 153.791 1093.79 152 1096 152H1124C1126.21 152 1128 153.791 1128 156V245H1092V156Z" fill="#EFF1F5"/>
    <path d="M1102.86 194C1103.89 194 1104.73 193.105 1104.73 192C1104.73 190.895 1103.89 190 1102.86 190C1101.83 190 1101 190.895 1101 192C1101 193.105 1101.83 194 1102.86 194Z" fill="#C2C5CC"/>
    <path d="M1106.2 196.089C1105.85 195.065 1105.26 194.545 1104.45 194.545H1101.84C1101.04 194.545 1100.45 195.065 1100.1 196.089C1099.81 196.942 1099.32 198.317 1098.93 199.411C1098.59 200.35 1098.33 201.083 1098.32 201.098C1098.18 201.492 1098.38 201.927 1098.77 202.071C1099.16 202.215 1099.59 202.013 1099.73 201.619C1099.74 201.59 1100.63 199.157 1101.23 197.437C1101.19 197.77 1101.32 197.064 1100.16 203.086C1100.14 203.209 1100.17 203.337 1100.25 203.434C1100.33 203.531 1100.45 203.588 1100.57 203.588H1101.15V209.09C1101.15 209.592 1101.55 210 1102.05 210C1102.55 210 1102.95 209.592 1102.95 209.09V203.588H1103.35V209.09C1103.35 209.592 1103.75 210 1104.25 210C1104.75 210 1105.15 209.592 1105.15 209.09V203.588H1105.73C1105.76 203.588 1105.8 203.583 1105.83 203.574C1105.92 203.552 1105.99 203.503 1106.05 203.434C1106.13 203.337 1106.16 203.209 1106.14 203.086L1105.36 199.027C1105.04 197.391 1105.09 197.651 1105.07 197.412C1105.71 199.203 1106.77 201.906 1106.82 202.04C1106.97 202.43 1107.41 202.622 1107.79 202.469C1108.18 202.316 1108.37 201.876 1108.22 201.486L1108.21 201.465L1108.18 201.389C1107.95 200.785 1106.69 197.525 1106.2 196.089Z" fill="#C2C5CC"/>
    <path d="M1118.29 194.545C1119.22 194.545 1119.97 195.347 1119.97 196.331L1120 201.904C1120 202.323 1119.69 202.664 1119.29 202.666C1118.9 202.666 1118.58 202.329 1118.58 201.912L1118.55 196.339C1118.55 196.307 1118.54 196.277 1118.53 196.252C1118.5 196.21 1118.45 196.182 1118.4 196.183C1118.32 196.184 1118.26 196.255 1118.26 196.342C1118.26 198.042 1118.26 200.269 1118.26 202.502L1118.27 203.862C1118.27 205.797 1118.27 207.656 1118.27 209.09C1118.27 209.593 1117.89 210 1117.42 210C1116.95 210 1116.57 209.593 1116.57 209.09V201.815H1116.2V209.09C1116.2 209.593 1115.82 210 1115.34 210C1114.87 210 1114.49 209.593 1114.49 209.09L1114.49 196.348C1114.49 196.257 1114.42 196.182 1114.34 196.179C1114.32 196.179 1114.3 196.182 1114.28 196.189C1114.26 196.196 1114.25 196.206 1114.23 196.219C1114.22 196.232 1114.2 196.249 1114.19 196.267C1114.18 196.289 1114.18 196.313 1114.18 196.339L1114.15 201.912C1114.15 202.329 1113.83 202.666 1113.44 202.666C1113.04 202.664 1112.73 202.323 1112.73 201.904L1112.75 196.331C1112.76 195.347 1113.51 194.545 1114.44 194.545H1118.29Z" fill="#C2C5CC"/>
    <path d="M1116.41 194C1117.44 194 1118.27 193.105 1118.27 192C1118.27 190.895 1117.44 190 1116.41 190C1115.38 190 1114.55 190.895 1114.55 192C1114.55 193.105 1115.38 194 1116.41 194Z" fill="#C2C5CC"/>
    <path d="M1109.27 190.687C1109.27 190.308 1109.62 190 1110.05 190C1110.47 190 1110.82 190.308 1110.82 190.687V207.495C1110.82 207.874 1110.47 208.182 1110.05 208.182C1109.62 208.182 1109.27 207.874 1109.27 207.495V190.687Z" fill="#C2C5CC"/>
    <path d="M1092 24H1128V116C1128 118.209 1126.21 120 1124 120H1096C1093.79 120 1092 118.209 1092 116V24Z" fill="#EFF1F5"/>
    <path d="M1102.86 66C1103.89 66 1104.73 65.1046 1104.73 64C1104.73 62.8954 1103.89 62 1102.86 62C1101.83 62 1101 62.8954 1101 64C1101 65.1046 1101.83 66 1102.86 66Z" fill="#C2C5CC"/>
    <path d="M1106.2 68.0888C1105.85 67.0648 1105.26 66.5455 1104.45 66.5455H1101.84C1101.04 66.5455 1100.45 67.0647 1100.1 68.0887C1099.56 69.6758 1098.33 73.0643 1098.32 73.0984C1098.18 73.4918 1098.38 73.9274 1098.77 74.0712C1099.16 74.2148 1099.59 74.0135 1099.73 73.6193C1099.74 73.5904 1100.63 71.1571 1101.23 69.4373L1101.22 69.5336C1101.21 69.6564 1101.18 69.7781 1100.78 71.8671L1100.16 75.0857C1100.15 75.1409 1100.15 75.1971 1100.16 75.2509C1100.18 75.3174 1100.21 75.3804 1100.25 75.434C1100.33 75.5311 1100.45 75.5877 1100.57 75.5877H1101.15V81.0898C1101.15 81.5924 1101.55 82 1102.05 82C1102.55 82 1102.95 81.5924 1102.95 81.0898V75.5878H1103.35V81.0898C1103.35 81.5925 1103.75 82 1104.25 82C1104.75 82 1105.15 81.5925 1105.15 81.0898V75.5878H1105.73C1105.85 75.5878 1105.97 75.5315 1106.05 75.4343C1106.13 75.3372 1106.16 75.2094 1106.14 75.0858C1104.97 69.0145 1105.11 69.7687 1105.07 69.4116C1105.45 70.4595 1105.96 71.8192 1106.34 72.7943C1106.58 73.4261 1106.76 73.8965 1106.81 74.0156L1106.82 74.0399C1106.97 74.4297 1107.41 74.622 1107.79 74.4691C1108.18 74.3162 1108.37 73.876 1108.22 73.486L1108.21 73.4653C1108.09 73.1597 1106.71 69.6066 1106.2 68.0888Z" fill="#C2C5CC"/>
    <path d="M1118.29 66.5455C1119.22 66.5455 1119.97 67.3467 1119.97 68.3315L1120 73.9039C1120 74.3229 1119.69 74.6641 1119.29 74.6663C1118.9 74.6663 1118.58 74.3292 1118.58 73.9116L1118.55 68.3391C1118.55 68.252 1118.48 68.1823 1118.4 68.183C1118.32 68.1837 1118.26 68.2546 1118.26 68.3417C1118.26 69.4772 1118.26 70.848 1118.26 72.2985L1118.27 76.9423C1118.27 78.4807 1118.27 79.9254 1118.27 81.0898C1118.27 81.5925 1117.89 82 1117.42 82C1116.95 82 1116.57 81.5925 1116.57 81.0898V73.8145H1116.2V81.0898C1116.2 81.5925 1115.82 82 1115.34 82C1114.87 82 1114.49 81.5925 1114.49 81.0898L1114.49 68.3483C1114.49 68.2567 1114.42 68.1817 1114.34 68.1792C1114.25 68.1767 1114.18 68.2476 1114.18 68.3391L1114.15 73.9116C1114.15 74.3291 1113.83 74.6662 1113.44 74.6662C1113.04 74.6641 1112.73 74.3228 1112.73 73.9039L1112.75 68.3315C1112.76 67.3467 1113.51 66.5455 1114.44 66.5455H1118.29Z" fill="#C2C5CC"/>
    <path d="M1116.41 66C1117.44 66 1118.27 65.1046 1118.27 64C1118.27 62.8954 1117.44 62 1116.41 62C1115.38 62 1114.55 62.8954 1114.55 64C1114.55 65.1046 1115.38 66 1116.41 66Z" fill="#C2C5CC"/>
    <path d="M1109.27 62.6869C1109.27 62.3076 1109.62 62 1110.05 62C1110.47 62 1110.82 62.3076 1110.82 62.6869V79.4949C1110.82 79.8743 1110.47 80.1818 1110.05 80.1818C1109.62 80.1818 1109.27 79.8743 1109.27 79.4949V62.6869Z" fill="#C2C5CC"/>
    <path d="M1056 220C1056 209.455 1057.74 208 1069.51 208C1081.26 208 1083 209.455 1083 220C1083 230.545 1081.29 232 1069.51 232C1057.74 232 1056 230.545 1056 220Z" fill="#003594"/>
    <rect x="1082" y="209" width="6" height="22" rx="3" fill="#FFC332"/>
    <path d="M1056 192C1056 181.455 1057.74 180 1069.51 180C1081.26 180 1083 181.455 1083 192C1083 202.545 1081.29 204 1069.51 204C1057.74 204 1056 202.545 1056 192Z" fill="#003594"/>
    <rect x="1082" y="181" width="6" height="22" rx="3" fill="#FFC332"/>
    <path d="M1056 164C1056 153.455 1057.74 152 1069.51 152C1081.26 152 1083 153.455 1083 164C1083 174.545 1081.29 176 1069.51 176C1057.74 176 1056 174.545 1056 164Z" fill="#003594"/>
    <rect x="1082" y="153" width="6" height="22" rx="3" fill="#FFC332"/>
    <path d="M1069.88 133.424C1069.88 133.912 1069.76 134.4 1069.53 134.888C1069.3 135.368 1068.95 135.848 1068.5 136.328C1068.05 136.8 1067.58 137.236 1067.09 137.636C1066.61 138.036 1066.03 138.484 1065.34 138.98H1070.12V140H1063.85V139.016C1064.68 138.408 1065.37 137.876 1065.92 137.42C1066.48 136.956 1066.98 136.496 1067.42 136.04C1067.87 135.576 1068.19 135.144 1068.4 134.744C1068.62 134.336 1068.73 133.944 1068.73 133.568C1068.73 133.112 1068.58 132.748 1068.29 132.476C1068.01 132.196 1067.61 132.056 1067.09 132.056C1066.57 132.056 1066.13 132.216 1065.77 132.536C1065.41 132.848 1065.23 133.34 1065.22 134.012H1064.09C1064.08 133.148 1064.35 132.456 1064.9 131.936C1065.46 131.408 1066.2 131.144 1067.12 131.144C1067.94 131.144 1068.61 131.344 1069.11 131.744C1069.62 132.144 1069.88 132.704 1069.88 133.424ZM1077.06 138.968C1076.5 139.76 1075.66 140.156 1074.53 140.156C1073.4 140.156 1072.56 139.76 1071.99 138.968C1071.43 138.176 1071.15 137.068 1071.15 135.644C1071.15 134.228 1071.43 133.124 1071.99 132.332C1072.56 131.54 1073.4 131.144 1074.53 131.144C1075.66 131.144 1076.5 131.54 1077.06 132.332C1077.63 133.124 1077.92 134.228 1077.92 135.644C1077.92 137.068 1077.63 138.176 1077.06 138.968ZM1076.16 132.968C1075.77 132.36 1075.23 132.056 1074.53 132.056C1073.84 132.056 1073.29 132.36 1072.9 132.968C1072.51 133.568 1072.31 134.46 1072.31 135.644C1072.31 136.828 1072.51 137.724 1072.9 138.332C1073.29 138.94 1073.84 139.244 1074.53 139.244C1075.23 139.244 1075.77 138.94 1076.16 138.332C1076.56 137.724 1076.75 136.828 1076.75 135.644C1076.75 134.46 1076.56 133.568 1076.16 132.968Z" fill="#737576"/>
    <path d="M1056 108C1056 97.4545 1057.74 96 1069.51 96C1081.26 96 1083 97.4545 1083 108C1083 118.545 1081.29 120 1069.51 120C1057.74 120 1056 118.545 1056 108Z" fill="#003594"/>
    <rect x="1082" y="97" width="6" height="22" rx="3" fill="#FFC332"/>
    <path d="M1056 80C1056 69.4545 1057.74 68 1069.51 68C1081.26 68 1083 69.4545 1083 80C1083 90.5455 1081.29 92 1069.51 92C1057.74 92 1056 90.5455 1056 80Z" fill="#003594"/>
    <rect x="1082" y="69" width="6" height="22" rx="3" fill="#FFC332"/>
    <path d="M1056 52C1056 41.4545 1057.74 40 1069.51 40C1081.26 40 1083 41.4545 1083 52C1083 62.5455 1081.29 64 1069.51 64C1057.74 64 1056 62.5455 1056 52Z" fill="#003594"/>
    <rect x="1082" y="41" width="6" height="22" rx="3" fill="#FFC332"/>
    <path d="M1012 220C1012 209.455 1013.74 208 1025.51 208C1037.26 208 1039 209.455 1039 220C1039 230.545 1037.29 232 1025.51 232C1013.74 232 1012 230.545 1012 220Z" fill="#003594"/>
    <rect x="1038" y="209" width="6" height="22" rx="3" fill="#C2C5CC"/>
    <path d="M1012 192C1012 181.455 1013.74 180 1025.51 180C1037.26 180 1039 181.455 1039 192C1039 202.545 1037.29 204 1025.51 204C1013.74 204 1012 202.545 1012 192Z" fill="#003594"/>
    <rect x="1038" y="181" width="6" height="22" rx="3" fill="#C2C5CC"/>
    <path d="M1012 164C1012 153.455 1013.74 152 1025.51 152C1037.26 152 1039 153.455 1039 164C1039 174.545 1037.29 176 1025.51 176C1013.74 176 1012 174.545 1012 164Z" fill="#003594"/>
    <rect x="1038" y="153" width="6" height="22" rx="3" fill="#C2C5CC"/>
    <path d="M1023.29 140V133.196H1021.27V132.452C1021.94 132.428 1022.45 132.344 1022.78 132.2C1023.13 132.048 1023.41 131.748 1023.64 131.3H1024.38V140H1023.29ZM1031.15 135.884C1030.69 136.692 1029.92 137.096 1028.85 137.096C1028.04 137.096 1027.37 136.82 1026.84 136.268C1026.31 135.716 1026.05 135.004 1026.05 134.132C1026.05 133.3 1026.33 132.596 1026.9 132.02C1027.47 131.436 1028.21 131.144 1029.11 131.144C1031.22 131.144 1032.28 132.544 1032.28 135.344C1032.28 135.992 1032.21 136.592 1032.09 137.144C1031.97 137.696 1031.78 138.204 1031.52 138.668C1031.27 139.132 1030.91 139.496 1030.45 139.76C1030.01 140.024 1029.48 140.156 1028.88 140.156C1028.09 140.156 1027.47 139.948 1027.02 139.532C1026.57 139.116 1026.3 138.6 1026.19 137.984H1027.38C1027.45 138.376 1027.63 138.684 1027.91 138.908C1028.2 139.132 1028.56 139.244 1029 139.244C1029.66 139.244 1030.17 138.944 1030.54 138.344C1030.91 137.736 1031.12 136.916 1031.15 135.884ZM1029.12 132.056C1028.56 132.056 1028.1 132.248 1027.74 132.632C1027.39 133.008 1027.21 133.492 1027.21 134.084C1027.21 134.684 1027.39 135.176 1027.74 135.56C1028.09 135.944 1028.55 136.136 1029.11 136.136C1029.68 136.136 1030.13 135.944 1030.48 135.56C1030.83 135.176 1031.01 134.684 1031.01 134.084C1031.01 133.476 1030.83 132.988 1030.49 132.62C1030.15 132.244 1029.69 132.056 1029.12 132.056Z" fill="#737576"/>
    <path d="M1012 108C1012 97.4545 1013.74 96 1025.51 96C1037.26 96 1039 97.4545 1039 108C1039 118.545 1037.29 120 1025.51 120C1013.74 120 1012 118.545 1012 108Z" fill="#003594"/>
    <rect x="1038" y="97" width="6" height="22" rx="3" fill="#C2C5CC"/>
    <path d="M1012 80C1012 69.4545 1013.74 68 1025.51 68C1037.26 68 1039 69.4545 1039 80C1039 90.5455 1037.29 92 1025.51 92C1013.74 92 1012 90.5455 1012 80Z" fill="#003594"/>
    <rect x="1038" y="69" width="6" height="22" rx="3" fill="#C2C5CC"/>
    <path d="M1012 52C1012 41.4545 1013.74 40 1025.51 40C1037.26 40 1039 41.4545 1039 52C1039 62.5455 1037.29 64 1025.51 64C1013.74 64 1012 62.5455 1012 52Z" fill="#003594"/>
    <rect x="1038" y="41" width="6" height="22" rx="3" fill="#C2C5CC"/>
    <path d="M968 220C968 209.455 969.742 208 981.515 208C993.258 208 995 209.455 995 220C995 230.545 993.288 232 981.515 232C969.742 232 968 230.545 968 220Z" fill="#003594"/>
    <rect x="994" y="209" width="6" height="22" rx="3" fill="#C2C5CC"/>
    <path d="M968 192C968 181.455 969.742 180 981.515 180C993.258 180 995 181.455 995 192C995 202.545 993.288 204 981.515 204C969.742 204 968 202.545 968 192Z" fill="#003594"/>
    <rect x="994" y="181" width="6" height="22" rx="3" fill="#C2C5CC"/>
    <path d="M968 164C968 153.455 969.742 152 981.515 152C993.258 152 995 153.455 995 164C995 174.545 993.288 176 981.515 176C969.742 176 968 174.545 968 164Z" fill="#003594"/>
    <rect x="994" y="153" width="6" height="22" rx="3" fill="#C2C5CC"/>
    <path d="M979.195 140V133.196H977.179V132.452C977.851 132.428 978.355 132.344 978.691 132.2C979.035 132.048 979.319 131.748 979.543 131.3H980.287V140H979.195ZM988.113 133.364C988.113 133.756 988.013 134.136 987.813 134.504C987.621 134.864 987.321 135.152 986.913 135.368C987.433 135.576 987.805 135.88 988.029 136.28C988.261 136.672 988.377 137.096 988.377 137.552C988.377 138.36 988.077 138.996 987.477 139.46C986.885 139.924 986.129 140.156 985.209 140.156C984.281 140.156 983.517 139.924 982.917 139.46C982.325 138.996 982.029 138.36 982.029 137.552C982.029 137.096 982.141 136.672 982.365 136.28C982.597 135.88 982.977 135.576 983.505 135.368C983.097 135.152 982.793 134.864 982.593 134.504C982.401 134.136 982.305 133.756 982.305 133.364C982.305 132.716 982.569 132.184 983.097 131.768C983.625 131.352 984.329 131.144 985.209 131.144C986.089 131.144 986.793 131.352 987.321 131.768C987.849 132.184 988.113 132.716 988.113 133.364ZM985.209 132.056C984.665 132.056 984.225 132.188 983.889 132.452C983.561 132.716 983.397 133.064 983.397 133.496C983.397 133.936 983.561 134.3 983.889 134.588C984.225 134.876 984.665 135.02 985.209 135.02C985.745 135.02 986.177 134.876 986.505 134.588C986.841 134.3 987.009 133.936 987.009 133.496C987.009 133.064 986.841 132.716 986.505 132.452C986.177 132.188 985.745 132.056 985.209 132.056ZM983.733 136.304C983.373 136.624 983.193 137.04 983.193 137.552C983.193 138.064 983.373 138.476 983.733 138.788C984.101 139.092 984.593 139.244 985.209 139.244C985.817 139.244 986.305 139.092 986.673 138.788C987.041 138.476 987.225 138.064 987.225 137.552C987.225 137.04 987.041 136.624 986.673 136.304C986.305 135.984 985.817 135.824 985.209 135.824C984.593 135.824 984.101 135.984 983.733 136.304Z" fill="#737576"/>
    <path d="M968 108C968 97.4545 969.742 96 981.515 96C993.258 96 995 97.4545 995 108C995 118.545 993.288 120 981.515 120C969.742 120 968 118.545 968 108Z" fill="#003594"/>
    <rect x="994" y="97" width="6" height="22" rx="3" fill="#C2C5CC"/>
    <path d="M968 80C968 69.4545 969.742 68 981.515 68C993.258 68 995 69.4545 995 80C995 90.5455 993.288 92 981.515 92C969.742 92 968 90.5455 968 80Z" fill="#003594"/>
    <rect x="994" y="69" width="6" height="22" rx="3" fill="#C2C5CC"/>
    <path d="M968 52C968 41.4545 969.742 40 981.515 40C993.258 40 995 41.4545 995 52C995 62.5455 993.288 64 981.515 64C969.742 64 968 62.5455 968 52Z" fill="#003594"/>
    <rect x="994" y="41" width="6" height="22" rx="3" fill="#C2C5CC"/>
    <path d="M924 220C924 209.455 925.742 208 937.515 208C949.258 208 951 209.455 951 220C951 230.545 949.288 232 937.515 232C925.742 232 924 230.545 924 220Z" fill="#003594"/>
    <rect x="950" y="209" width="6" height="22" rx="3" fill="#C2C5CC"/>
    <path d="M924 192C924 181.455 925.742 180 937.515 180C949.258 180 951 181.455 951 192C951 202.545 949.288 204 937.515 204C925.742 204 924 202.545 924 192Z" fill="#003594"/>
    <rect x="950" y="181" width="6" height="22" rx="3" fill="#C2C5CC"/>
    <path d="M924 164C924 153.455 925.742 152 937.515 152C949.258 152 951 153.455 951 164C951 174.545 949.288 176 937.515 176C925.742 176 924 174.545 924 164Z" fill="#003594"/>
    <rect x="950" y="153" width="6" height="22" rx="3" fill="#C2C5CC"/>
    <path d="M936.375 140V133.196H934.359V132.452C935.031 132.428 935.535 132.344 935.871 132.2C936.215 132.048 936.499 131.748 936.723 131.3H937.467V140H936.375ZM938.765 131.3H944.789V132.32C943.709 133.2 942.849 134.296 942.209 135.608C941.577 136.92 941.209 138.384 941.105 140H939.785C939.881 138.464 940.253 137.04 940.901 135.728C941.549 134.408 942.421 133.272 943.517 132.32H938.765V131.3Z" fill="#737576"/>
    <path d="M924 108C924 97.4545 925.742 96 937.515 96C949.258 96 951 97.4545 951 108C951 118.545 949.288 120 937.515 120C925.742 120 924 118.545 924 108Z" fill="#003594"/>
    <rect x="950" y="97" width="6" height="22" rx="3" fill="#C2C5CC"/>
    <path d="M924 80C924 69.4545 925.742 68 937.515 68C949.258 68 951 69.4545 951 80C951 90.5455 949.288 92 937.515 92C925.742 92 924 90.5455 924 80Z" fill="#003594"/>
    <rect x="950" y="69" width="6" height="22" rx="3" fill="#C2C5CC"/>
    <path d="M924 52C924 41.4545 925.742 40 937.515 40C949.258 40 951 41.4545 951 52C951 62.5455 949.288 64 937.515 64C925.742 64 924 62.5455 924 52Z" fill="#003594"/>
    <rect x="950" y="41" width="6" height="22" rx="3" fill="#C2C5CC"/>
    <path d="M880 220C880 209.455 881.742 208 893.515 208C905.258 208 907 209.455 907 220C907 230.545 905.288 232 893.515 232C881.742 232 880 230.545 880 220Z" fill="#003594"/>
    <rect x="906" y="209" width="6" height="22" rx="3" fill="#C2C5CC"/>
    <path d="M880 192C880 181.455 881.742 180 893.515 180C905.258 180 907 181.455 907 192C907 202.545 905.288 204 893.515 204C881.742 204 880 202.545 880 192Z" fill="#003594"/>
    <rect x="906" y="181" width="6" height="22" rx="3" fill="#C2C5CC"/>
    <path d="M880 164C880 153.455 881.742 152 893.515 152C905.258 152 907 153.455 907 164C907 174.545 905.288 176 893.515 176C881.742 176 880 174.545 880 164Z" fill="#003594"/>
    <rect x="906" y="153" width="6" height="22" rx="3" fill="#C2C5CC"/>
    <path d="M891.26 140V133.196H889.244V132.452C889.916 132.428 890.42 132.344 890.756 132.2C891.1 132.048 891.384 131.748 891.608 131.3H892.352V140H891.26ZM895.222 135.416C895.686 134.608 896.45 134.204 897.514 134.204C898.33 134.204 899.002 134.48 899.53 135.032C900.058 135.584 900.322 136.292 900.322 137.156C900.322 137.988 900.038 138.696 899.47 139.28C898.902 139.864 898.166 140.156 897.262 140.156C895.15 140.156 894.094 138.756 894.094 135.956C894.094 135.444 894.13 134.964 894.202 134.516C894.274 134.06 894.394 133.624 894.562 133.208C894.738 132.784 894.95 132.424 895.198 132.128C895.454 131.824 895.778 131.584 896.17 131.408C896.562 131.232 897.002 131.144 897.49 131.144C898.282 131.144 898.902 131.352 899.35 131.768C899.798 132.184 900.074 132.7 900.178 133.316H898.99C898.918 132.924 898.738 132.616 898.45 132.392C898.162 132.168 897.798 132.056 897.358 132.056C896.702 132.056 896.19 132.36 895.822 132.968C895.454 133.568 895.254 134.384 895.222 135.416ZM897.25 139.244C897.81 139.244 898.266 139.056 898.618 138.68C898.978 138.296 899.158 137.808 899.158 137.216C899.158 136.616 898.978 136.124 898.618 135.74C898.266 135.348 897.814 135.152 897.262 135.152C896.694 135.152 896.234 135.348 895.882 135.74C895.53 136.124 895.354 136.616 895.354 137.216C895.354 137.816 895.526 138.304 895.87 138.68C896.214 139.056 896.674 139.244 897.25 139.244Z" fill="#737576"/>
    <path d="M880 108C880 97.4545 881.742 96 893.515 96C905.258 96 907 97.4545 907 108C907 118.545 905.288 120 893.515 120C881.742 120 880 118.545 880 108Z" fill="#003594"/>
    <rect x="906" y="97" width="6" height="22" rx="3" fill="#C2C5CC"/>
    <path d="M880 80C880 69.4545 881.742 68 893.515 68C905.258 68 907 69.4545 907 80C907 90.5455 905.288 92 893.515 92C881.742 92 880 90.5455 880 80Z" fill="#003594"/>
    <rect x="906" y="69" width="6" height="22" rx="3" fill="#C2C5CC"/>
    <path d="M880 52C880 41.4545 881.742 40 893.515 40C905.258 40 907 41.4545 907 52C907 62.5455 905.288 64 893.515 64C881.742 64 880 62.5455 880 52Z" fill="#003594"/>
    <rect x="906" y="41" width="6" height="22" rx="3" fill="#C2C5CC"/>
    <path d="M836 220C836 209.455 837.742 208 849.515 208C861.258 208 863 209.455 863 220C863 230.545 861.288 232 849.515 232C837.742 232 836 230.545 836 220Z" fill="#003594"/>
    <rect x="862" y="209" width="6" height="22" rx="3" fill="#C2C5CC"/>
    <path d="M836 192C836 181.455 837.742 180 849.515 180C861.258 180 863 181.455 863 192C863 202.545 861.288 204 849.515 204C837.742 204 836 202.545 836 192Z" fill="#003594"/>
    <rect x="862" y="181" width="6" height="22" rx="3" fill="#C2C5CC"/>
    <path d="M836 164C836 153.455 837.742 152 849.515 152C861.258 152 863 153.455 863 164C863 174.545 861.288 176 849.515 176C837.742 176 836 174.545 836 164Z" fill="#003594"/>
    <rect x="862" y="153" width="6" height="22" rx="3" fill="#C2C5CC"/>
    <path d="M847.306 140V133.196H845.29V132.452C845.962 132.428 846.466 132.344 846.802 132.2C847.146 132.048 847.43 131.748 847.654 131.3H848.398V140H847.306ZM855.132 137.144C855.132 136.472 854.936 135.96 854.544 135.608C854.16 135.256 853.704 135.08 853.176 135.08C852.76 135.08 852.404 135.18 852.108 135.38C851.812 135.572 851.608 135.792 851.496 136.04L850.404 135.98L850.968 131.3H855.96V132.32H851.856L851.556 134.792C852.004 134.352 852.628 134.132 853.428 134.132C854.228 134.132 854.904 134.404 855.456 134.948C856.008 135.484 856.284 136.212 856.284 137.132C856.284 138.084 855.984 138.828 855.384 139.364C854.784 139.892 854.052 140.156 853.188 140.156C852.244 140.156 851.516 139.904 851.004 139.4C850.492 138.896 850.188 138.256 850.092 137.48H851.22C851.404 138.656 852.06 139.244 853.188 139.244C853.732 139.244 854.192 139.056 854.568 138.68C854.944 138.304 855.132 137.792 855.132 137.144Z" fill="#737576"/>
    <path d="M836 108C836 97.4545 837.742 96 849.515 96C861.258 96 863 97.4545 863 108C863 118.545 861.288 120 849.515 120C837.742 120 836 118.545 836 108Z" fill="#003594"/>
    <rect x="862" y="97" width="6" height="22" rx="3" fill="#C2C5CC"/>
    <path d="M836 80C836 69.4545 837.742 68 849.515 68C861.258 68 863 69.4545 863 80C863 90.5455 861.288 92 849.515 92C837.742 92 836 90.5455 836 80Z" fill="#003594"/>
    <rect x="862" y="69" width="6" height="22" rx="3" fill="#C2C5CC"/>
    <path d="M836 52C836 41.4545 837.742 40 849.515 40C861.258 40 863 41.4545 863 52C863 62.5455 861.288 64 849.515 64C837.742 64 836 62.5455 836 52Z" fill="#003594"/>
    <rect x="862" y="41" width="6" height="22" rx="3" fill="#C2C5CC"/>
    <path d="M792 220C792 209.455 793.742 208 805.515 208C817.258 208 819 209.455 819 220C819 230.545 817.288 232 805.515 232C793.742 232 792 230.545 792 220Z" fill="#003594"/>
    <rect x="818" y="209" width="6" height="22" rx="3" fill="#C2C5CC"/>
    <path d="M792 192C792 181.455 793.742 180 805.515 180C817.258 180 819 181.455 819 192C819 202.545 817.288 204 805.515 204C793.742 204 792 202.545 792 192Z" fill="#003594"/>
    <rect x="818" y="181" width="6" height="22" rx="3" fill="#C2C5CC"/>
    <path d="M792 164C792 153.455 793.742 152 805.515 152C817.258 152 819 153.455 819 164C819 174.545 817.288 176 805.515 176C793.742 176 792 174.545 792 164Z" fill="#003594"/>
    <rect x="818" y="153" width="6" height="22" rx="3" fill="#C2C5CC"/>
    <path d="M803.207 140V133.196H801.191V132.452C801.863 132.428 802.367 132.344 802.703 132.2C803.047 132.048 803.331 131.748 803.555 131.3H804.299V140H803.207ZM812.689 137.852H811.093V140H809.989V137.852H805.669V136.82L809.977 131.3H811.093V136.82H812.689V137.852ZM806.881 136.82H809.989V132.8L806.881 136.82Z" fill="#737576"/>
    <path d="M792 108C792 97.4545 793.742 96 805.515 96C817.258 96 819 97.4545 819 108C819 118.545 817.288 120 805.515 120C793.742 120 792 118.545 792 108Z" fill="#003594"/>
    <rect x="818" y="97" width="6" height="22" rx="3" fill="#C2C5CC"/>
    <path d="M792 80C792 69.4545 793.742 68 805.515 68C817.258 68 819 69.4545 819 80C819 90.5455 817.288 92 805.515 92C793.742 92 792 90.5455 792 80Z" fill="#003594"/>
    <rect x="818" y="69" width="6" height="22" rx="3" fill="#C2C5CC"/>
    <path d="M792 52C792 41.4545 793.742 40 805.515 40C817.258 40 819 41.4545 819 52C819 62.5455 817.288 64 805.515 64C793.742 64 792 62.5455 792 52Z" fill="#003594"/>
    <rect x="818" y="41" width="6" height="22" rx="3" fill="#C2C5CC"/>
    <path d="M748 220C748 209.455 749.742 208 761.515 208C773.258 208 775 209.455 775 220C775 230.545 773.288 232 761.515 232C749.742 232 748 230.545 748 220Z" fill="#003594"/>
    <rect x="774" y="209" width="6" height="22" rx="3" fill="#C2C5CC"/>
    <path d="M748 192C748 181.455 749.742 180 761.515 180C773.258 180 775 181.455 775 192C775 202.545 773.288 204 761.515 204C749.742 204 748 202.545 748 192Z" fill="#003594"/>
    <rect x="774" y="181" width="6" height="22" rx="3" fill="#C2C5CC"/>
    <path d="M748 164C748 153.455 749.742 152 761.515 152C773.258 152 775 153.455 775 164C775 174.545 773.288 176 761.515 176C749.742 176 748 174.545 748 164Z" fill="#003594"/>
    <rect x="774" y="153" width="6" height="22" rx="3" fill="#C2C5CC"/>
    <path d="M759.43 140V133.196H757.414V132.452C758.086 132.428 758.59 132.344 758.926 132.2C759.27 132.048 759.554 131.748 759.778 131.3H760.522V140H759.43ZM767.04 137.564C767.04 136.46 766.204 135.908 764.532 135.908H764.352V134.912H764.496C766.04 134.912 766.812 134.432 766.812 133.472C766.812 133.024 766.652 132.676 766.332 132.428C766.012 132.18 765.608 132.056 765.12 132.056C764.56 132.056 764.116 132.212 763.788 132.524C763.46 132.828 763.272 133.236 763.224 133.748H762.096C762.16 132.964 762.46 132.336 762.996 131.864C763.532 131.384 764.248 131.144 765.144 131.144C765.968 131.144 766.644 131.324 767.172 131.684C767.7 132.044 767.964 132.6 767.964 133.352C767.964 133.8 767.84 134.204 767.592 134.564C767.344 134.916 766.996 135.184 766.548 135.368C767.652 135.712 768.204 136.44 768.204 137.552C768.204 138.384 767.9 139.028 767.292 139.484C766.692 139.932 765.948 140.156 765.06 140.156C764.1 140.156 763.36 139.9 762.84 139.388C762.32 138.876 762.028 138.224 761.964 137.432H763.092C763.156 137.992 763.352 138.436 763.68 138.764C764.016 139.084 764.48 139.244 765.072 139.244C765.664 139.244 766.14 139.096 766.5 138.8C766.86 138.504 767.04 138.092 767.04 137.564Z" fill="#737576"/>
    <path d="M748 108C748 97.4545 749.742 96 761.515 96C773.258 96 775 97.4545 775 108C775 118.545 773.288 120 761.515 120C749.742 120 748 118.545 748 108Z" fill="#003594"/>
    <rect x="774" y="97" width="6" height="22" rx="3" fill="#C2C5CC"/>
    <path d="M748 80C748 69.4545 749.742 68 761.515 68C773.258 68 775 69.4545 775 80C775 90.5455 773.288 92 761.515 92C749.742 92 748 90.5455 748 80Z" fill="#003594"/>
    <rect x="774" y="69" width="6" height="22" rx="3" fill="#C2C5CC"/>
    <path d="M748 52C748 41.4545 749.742 40 761.515 40C773.258 40 775 41.4545 775 52C775 62.5455 773.288 64 761.515 64C749.742 64 748 62.5455 748 52Z" fill="#003594"/>
    <rect x="774" y="41" width="6" height="22" rx="3" fill="#C2C5CC"/>
    <path d="M704 220C704 209.455 705.742 208 717.515 208C729.258 208 731 209.455 731 220C731 230.545 729.288 232 717.515 232C705.742 232 704 230.545 704 220Z" fill="#003594"/>
    <rect x="730" y="209" width="6" height="22" rx="3" fill="#C2C5CC"/>
    <path d="M704 192C704 181.455 705.742 180 717.515 180C729.258 180 731 181.455 731 192C731 202.545 729.288 204 717.515 204C705.742 204 704 202.545 704 192Z" fill="#003594"/>
    <rect x="730" y="181" width="6" height="22" rx="3" fill="#C2C5CC"/>
    <path d="M704 164C704 153.455 705.742 152 717.515 152C729.258 152 731 153.455 731 164C731 174.545 729.288 176 717.515 176C705.742 176 704 174.545 704 164Z" fill="#003594"/>
    <rect x="730" y="153" width="6" height="22" rx="3" fill="#C2C5CC"/>
    <path d="M715.412 140V133.196H713.396V132.452C714.068 132.428 714.572 132.344 714.908 132.2C715.252 132.048 715.536 131.748 715.76 131.3H716.504V140H715.412ZM724.054 133.424C724.054 133.912 723.938 134.4 723.706 134.888C723.474 135.368 723.13 135.848 722.674 136.328C722.226 136.8 721.758 137.236 721.27 137.636C720.79 138.036 720.206 138.484 719.518 138.98H724.294V140H718.03V139.016C718.854 138.408 719.542 137.876 720.094 137.42C720.654 136.956 721.154 136.496 721.594 136.04C722.042 135.576 722.37 135.144 722.578 134.744C722.794 134.336 722.902 133.944 722.902 133.568C722.902 133.112 722.758 132.748 722.47 132.476C722.182 132.196 721.782 132.056 721.27 132.056C720.75 132.056 720.31 132.216 719.95 132.536C719.59 132.848 719.406 133.34 719.398 134.012H718.27C718.254 133.148 718.522 132.456 719.074 131.936C719.634 131.408 720.374 131.144 721.294 131.144C722.118 131.144 722.782 131.344 723.286 131.744C723.798 132.144 724.054 132.704 724.054 133.424Z" fill="#737576"/>
    <path d="M704 108C704 97.4545 705.742 96 717.515 96C729.258 96 731 97.4545 731 108C731 118.545 729.288 120 717.515 120C705.742 120 704 118.545 704 108Z" fill="#003594"/>
    <rect x="730" y="97" width="6" height="22" rx="3" fill="#C2C5CC"/>
    <path d="M704 80C704 69.4545 705.742 68 717.515 68C729.258 68 731 69.4545 731 80C731 90.5455 729.288 92 717.515 92C705.742 92 704 90.5455 704 80Z" fill="#003594"/>
    <rect x="730" y="69" width="6" height="22" rx="3" fill="#C2C5CC"/>
    <path d="M704 52C704 41.4545 705.742 40 717.515 40C729.258 40 731 41.4545 731 52C731 62.5455 729.288 64 717.515 64C705.742 64 704 62.5455 704 52Z" fill="#003594"/>
    <rect x="730" y="41" width="6" height="22" rx="3" fill="#C2C5CC"/>
    <path d="M660 220C660 209.455 661.742 208 673.515 208C685.258 208 687 209.455 687 220C687 230.545 685.288 232 673.515 232C661.742 232 660 230.545 660 220Z" fill="#003594"/>
    <rect x="686" y="209" width="6" height="22" rx="3" fill="#C2C5CC"/>
    <path d="M660 192C660 181.455 661.742 180 673.515 180C685.258 180 687 181.455 687 192C687 202.545 685.288 204 673.515 204C661.742 204 660 202.545 660 192Z" fill="#003594"/>
    <rect x="686" y="181" width="6" height="22" rx="3" fill="#C2C5CC"/>
    <path d="M660 164C660 153.455 661.742 152 673.515 152C685.258 152 687 153.455 687 164C687 174.545 685.288 176 673.515 176C661.742 176 660 174.545 660 164Z" fill="#003594"/>
    <rect x="686" y="153" width="6" height="22" rx="3" fill="#C2C5CC"/>
    <path d="M672.625 140V133.196H670.609V132.452C671.281 132.428 671.785 132.344 672.121 132.2C672.465 132.048 672.749 131.748 672.973 131.3H673.717V140H672.625ZM677.277 140V133.196H675.261V132.452C675.933 132.428 676.437 132.344 676.773 132.2C677.117 132.048 677.401 131.748 677.625 131.3H678.369V140H677.277Z" fill="#737576"/>
    <path d="M660 108C660 97.4545 661.742 96 673.515 96C685.258 96 687 97.4545 687 108C687 118.545 685.288 120 673.515 120C661.742 120 660 118.545 660 108Z" fill="#003594"/>
    <rect x="686" y="97" width="6" height="22" rx="3" fill="#C2C5CC"/>
    <path d="M660 80C660 69.4545 661.742 68 673.515 68C685.258 68 687 69.4545 687 80C687 90.5455 685.288 92 673.515 92C661.742 92 660 90.5455 660 80Z" fill="#003594"/>
    <rect x="686" y="69" width="6" height="22" rx="3" fill="#C2C5CC"/>
    <path d="M660 52C660 41.4545 661.742 40 673.515 40C685.258 40 687 41.4545 687 52C687 62.5455 685.288 64 673.515 64C661.742 64 660 62.5455 660 52Z" fill="#003594"/>
    <rect x="686" y="41" width="6" height="22" rx="3" fill="#C2C5CC"/>
    <path d="M616 220C616 209.455 617.742 208 629.515 208C641.258 208 643 209.455 643 220C643 230.545 641.288 232 629.515 232C617.742 232 616 230.545 616 220Z" fill="#003594"/>
    <rect x="642" y="209" width="6" height="22" rx="3" fill="#C2C5CC"/>
    <path d="M616 192C616 181.455 617.742 180 629.515 180C641.258 180 643 181.455 643 192C643 202.545 641.288 204 629.515 204C617.742 204 616 202.545 616 192Z" fill="#003594"/>
    <rect x="642" y="181" width="6" height="22" rx="3" fill="#C2C5CC"/>
    <path d="M616 164C616 153.455 617.742 152 629.515 152C641.258 152 643 153.455 643 164C643 174.545 641.288 176 629.515 176C617.742 176 616 174.545 616 164Z" fill="#003594"/>
    <rect x="642" y="153" width="6" height="22" rx="3" fill="#C2C5CC"/>
    <path d="M627.484 140V133.196H625.468V132.452C626.14 132.428 626.644 132.344 626.98 132.2C627.324 132.048 627.608 131.748 627.832 131.3H628.576V140H627.484ZM636.234 138.968C635.674 139.76 634.83 140.156 633.702 140.156C632.574 140.156 631.726 139.76 631.158 138.968C630.598 138.176 630.318 137.068 630.318 135.644C630.318 134.228 630.598 133.124 631.158 132.332C631.726 131.54 632.574 131.144 633.702 131.144C634.83 131.144 635.674 131.54 636.234 132.332C636.802 133.124 637.086 134.228 637.086 135.644C637.086 137.068 636.802 138.176 636.234 138.968ZM635.334 132.968C634.942 132.36 634.398 132.056 633.702 132.056C633.006 132.056 632.462 132.36 632.07 132.968C631.678 133.568 631.482 134.46 631.482 135.644C631.482 136.828 631.678 137.724 632.07 138.332C632.462 138.94 633.006 139.244 633.702 139.244C634.398 139.244 634.942 138.94 635.334 138.332C635.726 137.724 635.922 136.828 635.922 135.644C635.922 134.46 635.726 133.568 635.334 132.968Z" fill="#737576"/>
    <path d="M616 108C616 97.4545 617.742 96 629.515 96C641.258 96 643 97.4545 643 108C643 118.545 641.288 120 629.515 120C617.742 120 616 118.545 616 108Z" fill="#003594"/>
    <rect x="642" y="97" width="6" height="22" rx="3" fill="#C2C5CC"/>
    <path d="M616 80C616 69.4545 617.742 68 629.515 68C641.258 68 643 69.4545 643 80C643 90.5455 641.288 92 629.515 92C617.742 92 616 90.5455 616 80Z" fill="#003594"/>
    <rect x="642" y="69" width="6" height="22" rx="3" fill="#C2C5CC"/>
    <path d="M616 52C616 41.4545 617.742 40 629.515 40C641.258 40 643 41.4545 643 52C643 62.5455 641.288 64 629.515 64C617.742 64 616 62.5455 616 52Z" fill="#003594"/>
    <rect x="642" y="41" width="6" height="22" rx="3" fill="#C2C5CC"/>
    <path d="M572 220C572 209.455 573.742 208 585.515 208C597.258 208 599 209.455 599 220C599 230.545 597.288 232 585.515 232C573.742 232 572 230.545 572 220Z" fill="#003594"/>
    <rect x="598" y="209" width="6" height="22" rx="3" fill="#008C5F"/>
    <path d="M584.282 224V220.384H580.666V219.008H584.282V215.488H585.738V219.008H589.354V220.384H585.738V224H584.282Z" fill="white"/>
    <path d="M572 192C572 181.455 573.742 180 585.515 180C597.258 180 599 181.455 599 192C599 202.545 597.288 204 585.515 204C573.742 204 572 202.545 572 192Z" fill="#003594"/>
    <rect x="598" y="181" width="6" height="22" rx="3" fill="#008C5F"/>
    <path d="M584.282 196V192.384H580.666V191.008H584.282V187.488H585.738V191.008H589.354V192.384H585.738V196H584.282Z" fill="white"/>
    <path d="M572 164C572 153.455 573.742 152 585.515 152C597.258 152 599 153.455 599 164C599 174.545 597.288 176 585.515 176C573.742 176 572 174.545 572 164Z" fill="#003594"/>
    <path d="M572 164C572 153.455 573.742 152 585.515 152C597.258 152 599 153.455 599 164C599 174.545 597.288 176 585.515 176C573.742 176 572 174.545 572 164Z" fill="#DFE3EB"/>
    <rect x="598" y="153" width="6" height="22" rx="3" fill="#C2C5CC"/>
    <path d="M588.942 135.884C588.478 136.692 587.71 137.096 586.638 137.096C585.83 137.096 585.162 136.82 584.634 136.268C584.106 135.716 583.842 135.004 583.842 134.132C583.842 133.3 584.126 132.596 584.694 132.02C585.262 131.436 585.998 131.144 586.902 131.144C589.014 131.144 590.07 132.544 590.07 135.344C590.07 135.992 590.006 136.592 589.878 137.144C589.758 137.696 589.57 138.204 589.314 138.668C589.058 139.132 588.702 139.496 588.246 139.76C587.798 140.024 587.274 140.156 586.674 140.156C585.882 140.156 585.262 139.948 584.814 139.532C584.366 139.116 584.09 138.6 583.986 137.984H585.174C585.246 138.376 585.422 138.684 585.702 138.908C585.99 139.132 586.354 139.244 586.794 139.244C587.45 139.244 587.962 138.944 588.33 138.344C588.706 137.736 588.91 136.916 588.942 135.884ZM586.914 132.056C586.354 132.056 585.894 132.248 585.534 132.632C585.182 133.008 585.006 133.492 585.006 134.084C585.006 134.684 585.182 135.176 585.534 135.56C585.886 135.944 586.342 136.136 586.902 136.136C587.47 136.136 587.926 135.944 588.27 135.56C588.622 135.176 588.798 134.684 588.798 134.084C588.798 133.476 588.626 132.988 588.282 132.62C587.938 132.244 587.482 132.056 586.914 132.056Z" fill="#737576"/>
    <path d="M572 108C572 97.4545 573.742 96 585.515 96C597.258 96 599 97.4545 599 108C599 118.545 597.288 120 585.515 120C573.742 120 572 118.545 572 108Z" fill="#003594"/>
    <rect x="598" y="97" width="6" height="22" rx="3" fill="#008C5F"/>
    <path d="M584.282 112V108.384H580.666V107.008H584.282V103.488H585.738V107.008H589.354V108.384H585.738V112H584.282Z" fill="white"/>
    <path d="M572 80C572 69.4545 573.742 68 585.515 68C597.258 68 599 69.4545 599 80C599 90.5455 597.288 92 585.515 92C573.742 92 572 90.5455 572 80Z" fill="#003594"/>
    <rect x="598" y="69" width="6" height="22" rx="3" fill="#008C5F"/>
    <path d="M584.282 84V80.384H580.666V79.008H584.282V75.488H585.738V79.008H589.354V80.384H585.738V84H584.282Z" fill="white"/>
    <path d="M572 52C572 41.4545 573.742 40 585.515 40C597.258 40 599 41.4545 599 52C599 62.5455 597.288 64 585.515 64C573.742 64 572 62.5455 572 52Z" fill="#003594"/>
    <rect x="598" y="41" width="6" height="22" rx="3" fill="#008C5F"/>
    <path d="M584.282 56V52.384H580.666V51.008H584.282V47.488H585.738V51.008H589.354V52.384H585.738V56H584.282Z" fill="white"/>
    <rect x="544" y="16" width="24" height="24" fill="white"/>
    <path d="M552.923 31.7924C552.923 32.2562 552.539 32.6315 552.065 32.6315H548.858C548.384 32.6315 548 32.2562 548 31.7924V20.8391C548 20.3753 548.384 19.9999 548.858 19.9999H563.142C563.616 19.9999 564 20.3753 564 20.8391V31.7924C564 32.2562 563.616 32.6315 563.142 32.6315H559.936C559.461 32.6315 559.077 32.2562 559.077 31.7924V31.0646C559.077 30.6008 559.461 30.2255 559.936 30.2255H560.681C561.154 30.2255 561.539 29.8502 561.539 29.3864V23.2451C561.539 22.7813 561.154 22.4059 560.681 22.4059H551.32C550.846 22.4059 550.461 22.7813 550.461 23.2451V29.3864C550.461 29.8502 550.846 30.2255 551.32 30.2255H552.065C552.539 30.2255 552.923 30.6008 552.923 31.0646V31.7924Z" fill="#C2C5CC"/>
    <path d="M555.693 24.6153C555.862 24.4454 556.138 24.4454 556.308 24.6153L558.95 28.0999C559.224 28.3737 559.03 28.842 558.644 28.842H557.666C557.538 28.842 557.423 28.8972 557.343 28.9852C557.273 29.0623 557.231 29.1647 557.231 29.2771V35.5655C557.231 35.8055 557.037 35.9999 556.796 35.9999H555.205C554.964 35.9999 554.77 35.8055 554.77 35.5655V29.2771C554.77 29.0365 554.575 28.842 554.335 28.842H553.358C552.97 28.842 552.776 28.3737 553.05 28.0999L555.693 24.6153Z" fill="#C2C5CC"/>
    <rect x="544" y="232" width="24" height="24" fill="white"/>
    <path d="M555.693 247.385C555.862 247.554 556.138 247.554 556.308 247.385L558.95 243.9C559.224 243.626 559.03 243.158 558.643 243.158H557.666C557.425 243.158 557.231 242.963 557.231 242.723V236.434C557.231 236.194 557.037 236 556.796 236H555.205C554.964 236 554.77 236.194 554.77 236.434V242.723C554.77 242.963 554.575 243.158 554.335 243.158H553.358C552.97 243.158 552.776 243.626 553.05 243.9L555.693 247.385Z" fill="#C2C5CC"/>
    <path d="M552.923 240.208C552.923 239.744 552.539 239.368 552.065 239.368H548.858C548.384 239.368 548 239.744 548 240.208V251.161C548 251.625 548.384 252 548.858 252H563.142C563.616 252 564 251.625 564 251.161V240.208C564 239.744 563.616 239.368 563.142 239.368H559.936C559.461 239.368 559.077 239.744 559.077 240.208V240.935C559.077 241.399 559.461 241.774 559.936 241.774H560.681C561.154 241.774 561.539 242.15 561.539 242.614V248.755C561.539 249.219 561.154 249.594 560.681 249.594H551.32C550.846 249.594 550.461 249.219 550.461 248.755V242.614C550.461 242.15 550.846 241.774 551.32 241.774H552.065C552.539 241.774 552.923 241.399 552.923 240.935V240.208Z" fill="#C2C5CC"/>
    <path d="M508 220C508 209.455 509.742 208 521.515 208C533.258 208 535 209.455 535 220C535 230.545 533.288 232 521.515 232C509.742 232 508 230.545 508 220Z" fill="#003594"/>
    <path d="M508 220C508 209.455 509.742 208 521.515 208C533.258 208 535 209.455 535 220C535 230.545 533.288 232 521.515 232C509.742 232 508 230.545 508 220Z" fill="#DFE3EB"/>
    <rect x="534" y="209" width="6" height="22" rx="3" fill="#C2C5CC"/>
    <path d="M508 192C508 181.455 509.742 180 521.515 180C533.258 180 535 181.455 535 192C535 202.545 533.288 204 521.515 204C509.742 204 508 202.545 508 192Z" fill="#003594"/>
    <rect x="534" y="181" width="6" height="22" rx="3" fill="#FFC332"/>
    <path d="M508 164C508 153.455 509.742 152 521.515 152C533.258 152 535 153.455 535 164C535 174.545 533.288 176 521.515 176C509.742 176 508 174.545 508 164Z" fill="#003594"/>
    <rect x="534" y="153" width="6" height="22" rx="3" fill="#FFC332"/>
    <path d="M525.904 133.364C525.904 133.756 525.804 134.136 525.604 134.504C525.412 134.864 525.112 135.152 524.704 135.368C525.224 135.576 525.596 135.88 525.82 136.28C526.052 136.672 526.168 137.096 526.168 137.552C526.168 138.36 525.868 138.996 525.268 139.46C524.676 139.924 523.92 140.156 523 140.156C522.072 140.156 521.308 139.924 520.708 139.46C520.116 138.996 519.82 138.36 519.82 137.552C519.82 137.096 519.932 136.672 520.156 136.28C520.388 135.88 520.768 135.576 521.296 135.368C520.888 135.152 520.584 134.864 520.384 134.504C520.192 134.136 520.096 133.756 520.096 133.364C520.096 132.716 520.36 132.184 520.888 131.768C521.416 131.352 522.12 131.144 523 131.144C523.88 131.144 524.584 131.352 525.112 131.768C525.64 132.184 525.904 132.716 525.904 133.364ZM523 132.056C522.456 132.056 522.016 132.188 521.68 132.452C521.352 132.716 521.188 133.064 521.188 133.496C521.188 133.936 521.352 134.3 521.68 134.588C522.016 134.876 522.456 135.02 523 135.02C523.536 135.02 523.968 134.876 524.296 134.588C524.632 134.3 524.8 133.936 524.8 133.496C524.8 133.064 524.632 132.716 524.296 132.452C523.968 132.188 523.536 132.056 523 132.056ZM521.524 136.304C521.164 136.624 520.984 137.04 520.984 137.552C520.984 138.064 521.164 138.476 521.524 138.788C521.892 139.092 522.384 139.244 523 139.244C523.608 139.244 524.096 139.092 524.464 138.788C524.832 138.476 525.016 138.064 525.016 137.552C525.016 137.04 524.832 136.624 524.464 136.304C524.096 135.984 523.608 135.824 523 135.824C522.384 135.824 521.892 135.984 521.524 136.304Z" fill="#737576"/>
    <path d="M508 108C508 97.4545 509.742 96 521.515 96C533.258 96 535 97.4545 535 108C535 118.545 533.288 120 521.515 120C509.742 120 508 118.545 508 108Z" fill="#003594"/>
    <rect x="534" y="97" width="6" height="22" rx="3" fill="#FFC332"/>
    <path d="M508 80C508 69.4545 509.742 68 521.515 68C533.258 68 535 69.4545 535 80C535 90.5455 533.288 92 521.515 92C509.742 92 508 90.5455 508 80Z" fill="#003594"/>
    <rect x="534" y="69" width="6" height="22" rx="3" fill="#FFC332"/>
    <path d="M508 52C508 41.4545 509.742 40 521.515 40C533.258 40 535 41.4545 535 52C535 62.5455 533.288 64 521.515 64C509.742 64 508 62.5455 508 52Z" fill="#003594"/>
    <rect x="534" y="41" width="6" height="22" rx="3" fill="#FFC332"/>
    <path d="M464 220C464 209.455 465.742 208 477.515 208C489.258 208 491 209.455 491 220C491 230.545 489.288 232 477.515 232C465.742 232 464 230.545 464 220Z" fill="#003594"/>
    <rect x="490" y="209" width="6" height="22" rx="3" fill="#C2C5CC"/>
    <path d="M464 192C464 181.455 465.742 180 477.515 180C489.258 180 491 181.455 491 192C491 202.545 489.288 204 477.515 204C465.742 204 464 202.545 464 192Z" fill="#003594"/>
    <rect x="490" y="181" width="6" height="22" rx="3" fill="#C2C5CC"/>
    <path d="M464 164C464 153.455 465.742 152 477.515 152C489.258 152 491 153.455 491 164C491 174.545 489.288 176 477.515 176C465.742 176 464 174.545 464 164Z" fill="#003594"/>
    <path d="M464 164C464 153.455 465.742 152 477.515 152C489.258 152 491 153.455 491 164C491 174.545 489.288 176 477.515 176C465.742 176 464 174.545 464 164Z" fill="#DFE3EB"/>
    <rect x="490" y="153" width="6" height="22" rx="3" fill="#C2C5CC"/>
    <path d="M476.556 131.3H482.58V132.32C481.5 133.2 480.64 134.296 480 135.608C479.368 136.92 479 138.384 478.896 140H477.576C477.672 138.464 478.044 137.04 478.692 135.728C479.34 134.408 480.212 133.272 481.308 132.32H476.556V131.3Z" fill="#737576"/>
    <path d="M464 108C464 97.4545 465.742 96 477.515 96C489.258 96 491 97.4545 491 108C491 118.545 489.288 120 477.515 120C465.742 120 464 118.545 464 108Z" fill="#003594"/>
    <rect x="490" y="97" width="6" height="22" rx="3" fill="#C2C5CC"/>
    <path d="M464 80C464 69.4545 465.742 68 477.515 68C489.258 68 491 69.4545 491 80C491 90.5455 489.288 92 477.515 92C465.742 92 464 90.5455 464 80Z" fill="#003594"/>
    <rect x="490" y="69" width="6" height="22" rx="3" fill="#C2C5CC"/>
    <path d="M464 52C464 41.4545 465.742 40 477.515 40C489.258 40 491 41.4545 491 52C491 62.5455 489.288 64 477.515 64C465.742 64 464 62.5455 464 52Z" fill="#003594"/>
    <rect x="490" y="41" width="6" height="22" rx="3" fill="#C2C5CC"/>
    <path d="M420 220C420 209.455 421.742 208 433.515 208C445.258 208 447 209.455 447 220C447 230.545 445.288 232 433.515 232C421.742 232 420 230.545 420 220Z" fill="#003594"/>
    <rect x="446" y="209" width="6" height="22" rx="3" fill="#C2C5CC"/>
    <path d="M420 192C420 181.455 421.742 180 433.515 180C445.258 180 447 181.455 447 192C447 202.545 445.288 204 433.515 204C421.742 204 420 202.545 420 192Z" fill="#003594"/>
    <path d="M420 192C420 181.455 421.742 180 433.515 180C445.258 180 447 181.455 447 192C447 202.545 445.288 204 433.515 204C421.742 204 420 202.545 420 192Z" fill="#DFE3EB"/>
    <rect x="446" y="181" width="6" height="22" rx="3" fill="#C2C5CC"/>
    <path d="M420 164C420 153.455 421.742 152 433.515 152C445.258 152 447 153.455 447 164C447 174.545 445.288 176 433.515 176C421.742 176 420 174.545 420 164Z" fill="#003594"/>
    <path d="M420 164C420 153.455 421.742 152 433.515 152C445.258 152 447 153.455 447 164C447 174.545 445.288 176 433.515 176C421.742 176 420 174.545 420 164Z" fill="#DFE3EB"/>
    <rect x="446" y="153" width="6" height="22" rx="3" fill="#C2C5CC"/>
    <path d="M433.013 135.416C433.477 134.608 434.241 134.204 435.305 134.204C436.121 134.204 436.793 134.48 437.321 135.032C437.849 135.584 438.113 136.292 438.113 137.156C438.113 137.988 437.829 138.696 437.261 139.28C436.693 139.864 435.957 140.156 435.053 140.156C432.941 140.156 431.885 138.756 431.885 135.956C431.885 135.444 431.921 134.964 431.993 134.516C432.065 134.06 432.185 133.624 432.353 133.208C432.529 132.784 432.741 132.424 432.989 132.128C433.245 131.824 433.569 131.584 433.961 131.408C434.353 131.232 434.793 131.144 435.281 131.144C436.073 131.144 436.693 131.352 437.141 131.768C437.589 132.184 437.865 132.7 437.969 133.316H436.781C436.709 132.924 436.529 132.616 436.241 132.392C435.953 132.168 435.589 132.056 435.149 132.056C434.493 132.056 433.981 132.36 433.613 132.968C433.245 133.568 433.045 134.384 433.013 135.416ZM435.041 139.244C435.601 139.244 436.057 139.056 436.409 138.68C436.769 138.296 436.949 137.808 436.949 137.216C436.949 136.616 436.769 136.124 436.409 135.74C436.057 135.348 435.605 135.152 435.053 135.152C434.485 135.152 434.025 135.348 433.673 135.74C433.321 136.124 433.145 136.616 433.145 137.216C433.145 137.816 433.317 138.304 433.661 138.68C434.005 139.056 434.465 139.244 435.041 139.244Z" fill="#737576"/>
    <path d="M420 108C420 97.4545 421.742 96 433.515 96C445.258 96 447 97.4545 447 108C447 118.545 445.288 120 433.515 120C421.742 120 420 118.545 420 108Z" fill="#003594"/>
    <path d="M420 108C420 97.4545 421.742 96 433.515 96C445.258 96 447 97.4545 447 108C447 118.545 445.288 120 433.515 120C421.742 120 420 118.545 420 108Z" fill="#DFE3EB"/>
    <rect x="446" y="97" width="6" height="22" rx="3" fill="#C2C5CC"/>
    <path d="M420 80C420 69.4545 421.742 68 433.515 68C445.258 68 447 69.4545 447 80C447 90.5455 445.288 92 433.515 92C421.742 92 420 90.5455 420 80Z" fill="#003594"/>
    <path d="M420 80C420 69.4545 421.742 68 433.515 68C445.258 68 447 69.4545 447 80C447 90.5455 445.288 92 433.515 92C421.742 92 420 90.5455 420 80Z" fill="#DFE3EB"/>
    <rect x="446" y="69" width="6" height="22" rx="3" fill="#C2C5CC"/>
    <path d="M420 52C420 41.4545 421.742 40 433.515 40C445.258 40 447 41.4545 447 52C447 62.5455 445.288 64 433.515 64C421.742 64 420 62.5455 420 52Z" fill="#003594"/>
    <path d="M420 52C420 41.4545 421.742 40 433.515 40C445.258 40 447 41.4545 447 52C447 62.5455 445.288 64 433.515 64C421.742 64 420 62.5455 420 52Z" fill="#DFE3EB"/>
    <rect x="446" y="41" width="6" height="22" rx="3" fill="#C2C5CC"/>
    <path d="M376 220C376 209.455 377.742 208 389.515 208C401.258 208 403 209.455 403 220C403 230.545 401.288 232 389.515 232C377.742 232 376 230.545 376 220Z" fill="#003594"/>
    <path d="M376 220C376 209.455 377.742 208 389.515 208C401.258 208 403 209.455 403 220C403 230.545 401.288 232 389.515 232C377.742 232 376 230.545 376 220Z" fill="#DFE3EB"/>
    <rect x="402" y="209" width="6" height="22" rx="3" fill="#C2C5CC"/>
    <path d="M376 192C376 181.455 377.742 180 389.515 180C401.258 180 403 181.455 403 192C403 202.545 401.288 204 389.515 204C377.742 204 376 202.545 376 192Z" fill="#003594"/>
    <path d="M376 192C376 181.455 377.742 180 389.515 180C401.258 180 403 181.455 403 192C403 202.545 401.288 204 389.515 204C377.742 204 376 202.545 376 192Z" fill="#DFE3EB"/>
    <rect x="402" y="181" width="6" height="22" rx="3" fill="#C2C5CC"/>
    <path d="M376 164C376 153.455 377.742 152 389.515 152C401.258 152 403 153.455 403 164C403 174.545 401.288 176 389.515 176C377.742 176 376 174.545 376 164Z" fill="#003594"/>
    <path d="M376 164C376 153.455 377.742 152 389.515 152C401.258 152 403 153.455 403 164C403 174.545 401.288 176 389.515 176C377.742 176 376 174.545 376 164Z" fill="#DFE3EB"/>
    <rect x="402" y="153" width="6" height="22" rx="3" fill="#C2C5CC"/>
    <path d="M392.923 137.144C392.923 136.472 392.727 135.96 392.335 135.608C391.951 135.256 391.495 135.08 390.967 135.08C390.551 135.08 390.195 135.18 389.899 135.38C389.603 135.572 389.399 135.792 389.287 136.04L388.195 135.98L388.759 131.3H393.751V132.32H389.647L389.347 134.792C389.795 134.352 390.419 134.132 391.219 134.132C392.019 134.132 392.695 134.404 393.247 134.948C393.799 135.484 394.075 136.212 394.075 137.132C394.075 138.084 393.775 138.828 393.175 139.364C392.575 139.892 391.843 140.156 390.979 140.156C390.035 140.156 389.307 139.904 388.795 139.4C388.283 138.896 387.979 138.256 387.883 137.48H389.011C389.195 138.656 389.851 139.244 390.979 139.244C391.523 139.244 391.983 139.056 392.359 138.68C392.735 138.304 392.923 137.792 392.923 137.144Z" fill="#737576"/>
    <path d="M376 108C376 97.4545 377.742 96 389.515 96C401.258 96 403 97.4545 403 108C403 118.545 401.288 120 389.515 120C377.742 120 376 118.545 376 108Z" fill="#003594"/>
    <rect x="402" y="97" width="6" height="22" rx="3" fill="#C2C5CC"/>
    <path d="M376 80C376 69.4545 377.742 68 389.515 68C401.258 68 403 69.4545 403 80C403 90.5455 401.288 92 389.515 92C377.742 92 376 90.5455 376 80Z" fill="#003594"/>
    <path d="M376 80C376 69.4545 377.742 68 389.515 68C401.258 68 403 69.4545 403 80C403 90.5455 401.288 92 389.515 92C377.742 92 376 90.5455 376 80Z" fill="#DFE3EB"/>
    <rect x="402" y="69" width="6" height="22" rx="3" fill="#C2C5CC"/>
    <path d="M376 52C376 41.4545 377.742 40 389.515 40C401.258 40 403 41.4545 403 52C403 62.5455 401.288 64 389.515 64C377.742 64 376 62.5455 376 52Z" fill="#003594"/>
    <path d="M376 52C376 41.4545 377.742 40 389.515 40C401.258 40 403 41.4545 403 52C403 62.5455 401.288 64 389.515 64C377.742 64 376 62.5455 376 52Z" fill="#DFE3EB"/>
    <rect x="402" y="41" width="6" height="22" rx="3" fill="#C2C5CC"/>
    <path d="M332 220C332 209.455 333.742 208 345.515 208C357.258 208 359 209.455 359 220C359 230.545 357.288 232 345.515 232C333.742 232 332 230.545 332 220Z" fill="#003594"/>
    <path d="M332 220C332 209.455 333.742 208 345.515 208C357.258 208 359 209.455 359 220C359 230.545 357.288 232 345.515 232C333.742 232 332 230.545 332 220Z" fill="#DFE3EB"/>
    <rect x="358" y="209" width="6" height="22" rx="3" fill="#C2C5CC"/>
    <path d="M332 192C332 181.455 333.742 180 345.515 180C357.258 180 359 181.455 359 192C359 202.545 357.288 204 345.515 204C333.742 204 332 202.545 332 192Z" fill="#003594"/>
    <path d="M332 192C332 181.455 333.742 180 345.515 180C357.258 180 359 181.455 359 192C359 202.545 357.288 204 345.515 204C333.742 204 332 202.545 332 192Z" fill="#DFE3EB"/>
    <rect x="358" y="181" width="6" height="22" rx="3" fill="#C2C5CC"/>
    <path d="M332 164C332 153.455 333.742 152 345.515 152C357.258 152 359 153.455 359 164C359 174.545 357.288 176 345.515 176C333.742 176 332 174.545 332 164Z" fill="#003594"/>
    <path d="M332 164C332 153.455 333.742 152 345.515 152C357.258 152 359 153.455 359 164C359 174.545 357.288 176 345.515 176C333.742 176 332 174.545 332 164Z" fill="#DFE3EB"/>
    <rect x="358" y="153" width="6" height="22" rx="3" fill="#C2C5CC"/>
    <path d="M350.48 137.852H348.884V140H347.78V137.852H343.46V136.82L347.768 131.3H348.884V136.82H350.48V137.852ZM344.672 136.82H347.78V132.8L344.672 136.82Z" fill="#737576"/>
    <path d="M332 108C332 97.4545 333.742 96 345.515 96C357.258 96 359 97.4545 359 108C359 118.545 357.288 120 345.515 120C333.742 120 332 118.545 332 108Z" fill="#003594"/>
    <path d="M332 108C332 97.4545 333.742 96 345.515 96C357.258 96 359 97.4545 359 108C359 118.545 357.288 120 345.515 120C333.742 120 332 118.545 332 108Z" fill="#DFE3EB"/>
    <rect x="358" y="97" width="6" height="22" rx="3" fill="#C2C5CC"/>
    <path d="M332 80C332 69.4545 333.742 68 345.515 68C357.258 68 359 69.4545 359 80C359 90.5455 357.288 92 345.515 92C333.742 92 332 90.5455 332 80Z" fill="#003594"/>
    <path d="M332 80C332 69.4545 333.742 68 345.515 68C357.258 68 359 69.4545 359 80C359 90.5455 357.288 92 345.515 92C333.742 92 332 90.5455 332 80Z" fill="#DFE3EB"/>
    <rect x="358" y="69" width="6" height="22" rx="3" fill="#C2C5CC"/>
    <path d="M332 52C332 41.4545 333.742 40 345.515 40C357.258 40 359 41.4545 359 52C359 62.5455 357.288 64 345.515 64C333.742 64 332 62.5455 332 52Z" fill="#003594"/>
    <path d="M332 52C332 41.4545 333.742 40 345.515 40C357.258 40 359 41.4545 359 52C359 62.5455 357.288 64 345.515 64C333.742 64 332 62.5455 332 52Z" fill="#DFE3EB"/>
    <rect x="358" y="41" width="6" height="22" rx="3" fill="#C2C5CC"/>
    <path d="M288 220C288 209.455 289.742 208 301.515 208C313.258 208 315 209.455 315 220C315 230.545 313.288 232 301.515 232C289.742 232 288 230.545 288 220Z" fill="#003594"/>
    <rect x="314" y="209" width="6" height="22" rx="3" fill="#008C5F"/>
    <path d="M300.282 224V220.384H296.666V219.008H300.282V215.488H301.738V219.008H305.354V220.384H301.738V224H300.282Z" fill="white"/>
    <path d="M288 192C288 181.455 289.742 180 301.515 180C313.258 180 315 181.455 315 192C315 202.545 313.288 204 301.515 204C289.742 204 288 202.545 288 192Z" fill="#003594"/>
    <rect x="314" y="181" width="6" height="22" rx="3" fill="#008C5F"/>
    <path d="M300.282 196V192.384H296.666V191.008H300.282V187.488H301.738V191.008H305.354V192.384H301.738V196H300.282Z" fill="white"/>
    <path d="M288 164C288 153.455 289.742 152 301.515 152C313.258 152 315 153.455 315 164C315 174.545 313.288 176 301.515 176C289.742 176 288 174.545 288 164Z" fill="#003594"/>
    <path d="M288 164C288 153.455 289.742 152 301.515 152C313.258 152 315 153.455 315 164C315 174.545 313.288 176 301.515 176C289.742 176 288 174.545 288 164Z" fill="#DFE3EB"/>
    <rect x="314" y="153" width="6" height="22" rx="3" fill="#C2C5CC"/>
    <path d="M304.831 137.564C304.831 136.46 303.995 135.908 302.323 135.908H302.143V134.912H302.287C303.831 134.912 304.603 134.432 304.603 133.472C304.603 133.024 304.443 132.676 304.123 132.428C303.803 132.18 303.399 132.056 302.911 132.056C302.351 132.056 301.907 132.212 301.579 132.524C301.251 132.828 301.063 133.236 301.015 133.748H299.887C299.951 132.964 300.251 132.336 300.787 131.864C301.323 131.384 302.039 131.144 302.935 131.144C303.759 131.144 304.435 131.324 304.963 131.684C305.491 132.044 305.755 132.6 305.755 133.352C305.755 133.8 305.631 134.204 305.383 134.564C305.135 134.916 304.787 135.184 304.339 135.368C305.443 135.712 305.995 136.44 305.995 137.552C305.995 138.384 305.691 139.028 305.083 139.484C304.483 139.932 303.739 140.156 302.851 140.156C301.891 140.156 301.151 139.9 300.631 139.388C300.111 138.876 299.819 138.224 299.755 137.432H300.883C300.947 137.992 301.143 138.436 301.471 138.764C301.807 139.084 302.271 139.244 302.863 139.244C303.455 139.244 303.931 139.096 304.291 138.8C304.651 138.504 304.831 138.092 304.831 137.564Z" fill="#737576"/>
    <path d="M288 108C288 97.4545 289.742 96 301.515 96C313.258 96 315 97.4545 315 108C315 118.545 313.288 120 301.515 120C289.742 120 288 118.545 288 108Z" fill="#003594"/>
    <path d="M288 108C288 97.4545 289.742 96 301.515 96C313.258 96 315 97.4545 315 108C315 118.545 313.288 120 301.515 120C289.742 120 288 118.545 288 108Z" fill="#DFE3EB"/>
    <rect x="314" y="97" width="6" height="22" rx="3" fill="#C2C5CC"/>
    <path d="M288 80C288 69.4545 289.742 68 301.515 68C313.258 68 315 69.4545 315 80C315 90.5455 313.288 92 301.515 92C289.742 92 288 90.5455 288 80Z" fill="#003594"/>
    <path d="M288 80C288 69.4545 289.742 68 301.515 68C313.258 68 315 69.4545 315 80C315 90.5455 313.288 92 301.515 92C289.742 92 288 90.5455 288 80Z" fill="#DFE3EB"/>
    <rect x="314" y="69" width="6" height="22" rx="3" fill="#C2C5CC"/>
    <path d="M288 52C288 41.4545 289.742 40 301.515 40C313.258 40 315 41.4545 315 52C315 62.5455 313.288 64 301.515 64C289.742 64 288 62.5455 288 52Z" fill="#003594"/>
    <path d="M288 52C288 41.4545 289.742 40 301.515 40C313.258 40 315 41.4545 315 52C315 62.5455 313.288 64 301.515 64C289.742 64 288 62.5455 288 52Z" fill="#DFE3EB"/>
    <rect x="314" y="41" width="6" height="22" rx="3" fill="#C2C5CC"/>
    <path d="M270.267 215.3H271.683L274.959 224H273.639L272.955 222.116H268.959L268.287 224H267.039L270.267 215.3ZM269.331 221.072H272.571L270.939 216.536L269.331 221.072Z" fill="#737576"/>
    <path d="M268.001 187.3H271.133C273.173 187.3 274.193 188.016 274.193 189.448C274.193 189.864 274.105 190.244 273.929 190.588C273.761 190.932 273.529 191.192 273.233 191.368C274.113 191.736 274.553 192.424 274.553 193.432C274.553 194.304 274.265 194.952 273.689 195.376C273.121 195.792 272.369 196 271.433 196H268.001V187.3ZM269.225 191.02H271.325C272.413 191.02 272.957 190.552 272.957 189.616C272.957 189.184 272.809 188.864 272.513 188.656C272.225 188.44 271.829 188.332 271.325 188.332H269.225V191.02ZM269.225 194.968H271.445C272.677 194.968 273.293 194.46 273.293 193.444C273.293 192.94 273.137 192.572 272.825 192.34C272.513 192.108 272.029 191.992 271.373 191.992H269.225V194.968Z" fill="#737576"/>
    <path d="M274.974 165.228C274.79 166.164 274.358 166.888 273.678 167.4C272.998 167.904 272.174 168.156 271.206 168.156C269.982 168.156 269.018 167.74 268.314 166.908C267.61 166.076 267.258 164.984 267.258 163.632C267.258 162.28 267.626 161.196 268.362 160.38C269.098 159.556 270.078 159.144 271.302 159.144C272.214 159.144 272.998 159.404 273.654 159.924C274.318 160.444 274.742 161.16 274.926 162.072H273.738C273.602 161.504 273.318 161.048 272.886 160.704C272.462 160.352 271.914 160.176 271.242 160.176C270.442 160.176 269.786 160.48 269.274 161.088C268.762 161.696 268.506 162.544 268.506 163.632C268.506 164.712 268.762 165.564 269.274 166.188C269.786 166.812 270.454 167.124 271.278 167.124C271.95 167.124 272.498 166.952 272.922 166.608C273.354 166.264 273.642 165.804 273.786 165.228H274.974Z" fill="#737576"/>
    <path d="M270.025 103.3C271.521 103.3 272.685 103.636 273.517 104.308C274.349 104.972 274.765 106.084 274.765 107.644C274.765 108.452 274.649 109.144 274.417 109.72C274.193 110.296 273.861 110.748 273.421 111.076C272.989 111.404 272.493 111.64 271.933 111.784C271.381 111.928 270.745 112 270.025 112H267.649V103.3H270.025ZM269.989 104.332H268.873V110.968H269.989C270.397 110.968 270.753 110.948 271.057 110.908C271.361 110.868 271.677 110.784 272.005 110.656C272.333 110.52 272.597 110.336 272.797 110.104C273.005 109.864 273.177 109.54 273.313 109.132C273.449 108.716 273.517 108.22 273.517 107.644C273.517 107.076 273.449 106.584 273.313 106.168C273.177 105.752 273.005 105.428 272.797 105.196C272.589 104.964 272.321 104.784 271.993 104.656C271.673 104.52 271.361 104.432 271.057 104.392C270.753 104.352 270.397 104.332 269.989 104.332Z" fill="#737576"/>
    <path d="M268.352 75.3H274.256V76.356H269.576V78.996H273.98V80.052H269.576V82.944H274.256V84H268.352V75.3Z" fill="#737576"/>
    <path d="M268.675 47.3H274.327V48.356H269.899V50.996H274.075V52.052H269.899V56H268.675V47.3Z" fill="#737576"/>
    <path fill-rule="evenodd" clip-rule="evenodd" d="M254 24H251V118.5C251 119.328 251.672 120 252.5 120C253.328 120 254 119.328 254 118.5V24ZM252.5 152C251.672 152 251 152.672 251 153.5V248H254V153.5C254 152.672 253.328 152 252.5 152Z" fill="#EFF1F5"/>
    <path d="M204 212C204 198.818 206.064 197 220.018 197C233.935 197 236 198.818 236 212C236 225.182 233.971 227 220.018 227C206.065 227 204 225.182 204 212Z" fill="#111820"/>
    <path d="M204 212C204 198.818 206.064 197 220.018 197C233.935 197 236 198.818 236 212C236 225.182 233.971 227 220.018 227C206.065 227 204 225.182 204 212Z" fill="#DFE3EB"/>
    <rect x="235" y="198" width="7" height="28" rx="3.5" fill="#C2C5CC"/>
    <rect x="211" y="198" width="5" height="22" rx="2.5" transform="rotate(-90 211 198)" fill="#C2C5CC"/>
    <rect x="211" y="231" width="5" height="22" rx="2.5" transform="rotate(-90 211 231)" fill="#C2C5CC"/>
    <path d="M204 172C204 158.818 206.064 157 220.018 157C233.935 157 236 158.818 236 172C236 185.182 233.971 187 220.018 187C206.065 187 204 185.182 204 172Z" fill="#111820"/>
    <path d="M204 172C204 158.818 206.064 157 220.018 157C233.935 157 236 158.818 236 172C236 185.182 233.971 187 220.018 187C206.065 187 204 185.182 204 172Z" fill="#DFE3EB"/>
    <rect x="235" y="158" width="7" height="28" rx="3.5" fill="#C2C5CC"/>
    <rect x="211" y="158" width="5" height="22" rx="2.5" transform="rotate(-90 211 158)" fill="#C2C5CC"/>
    <rect x="211" y="191" width="5" height="22" rx="2.5" transform="rotate(-90 211 191)" fill="#C2C5CC"/>
    <path d="M224.845 133.424C224.845 133.912 224.729 134.4 224.497 134.888C224.265 135.368 223.921 135.848 223.465 136.328C223.017 136.8 222.549 137.236 222.061 137.636C221.581 138.036 220.997 138.484 220.309 138.98H225.085V140H218.821V139.016C219.645 138.408 220.333 137.876 220.885 137.42C221.445 136.956 221.945 136.496 222.385 136.04C222.833 135.576 223.161 135.144 223.369 134.744C223.585 134.336 223.693 133.944 223.693 133.568C223.693 133.112 223.549 132.748 223.261 132.476C222.973 132.196 222.573 132.056 222.061 132.056C221.541 132.056 221.101 132.216 220.741 132.536C220.381 132.848 220.197 133.34 220.189 134.012H219.061C219.045 133.148 219.313 132.456 219.865 131.936C220.425 131.408 221.165 131.144 222.085 131.144C222.909 131.144 223.573 131.344 224.077 131.744C224.589 132.144 224.845 132.704 224.845 133.424Z" fill="#737576"/>
    <path d="M204 100C204 86.8182 206.064 85 220.018 85C233.935 85 236 86.8182 236 100C236 113.182 233.971 115 220.018 115C206.065 115 204 113.182 204 100Z" fill="#111820"/>
    <path d="M204 100C204 86.8182 206.064 85 220.018 85C233.935 85 236 86.8182 236 100C236 113.182 233.971 115 220.018 115C206.065 115 204 113.182 204 100Z" fill="#DFE3EB"/>
    <rect x="235" y="86" width="7" height="28" rx="3.5" fill="#C2C5CC"/>
    <rect x="211" y="86" width="5" height="22" rx="2.5" transform="rotate(-90 211 86)" fill="#C2C5CC"/>
    <rect x="211" y="119" width="5" height="22" rx="2.5" transform="rotate(-90 211 119)" fill="#C2C5CC"/>
    <path d="M204 60C204 46.8182 206.064 45 220.018 45C233.935 45 236 46.8182 236 60C236 73.1818 233.971 75 220.018 75C206.065 75 204 73.1818 204 60Z" fill="#111820"/>
    <path d="M204 60C204 46.8182 206.064 45 220.018 45C233.935 45 236 46.8182 236 60C236 73.1818 233.971 75 220.018 75C206.065 75 204 73.1818 204 60Z" fill="#DFE3EB"/>
    <rect x="235" y="46" width="7" height="28" rx="3.5" fill="#C2C5CC"/>
    <rect x="211" y="46" width="5" height="22" rx="2.5" transform="rotate(-90 211 46)" fill="#C2C5CC"/>
    <rect x="211" y="79" width="5" height="22" rx="2.5" transform="rotate(-90 211 79)" fill="#C2C5CC"/>
    <path d="M144 212C144 198.818 146.064 197 160.018 197C173.935 197 176 198.818 176 212C176 225.182 173.971 227 160.018 227C146.065 227 144 225.182 144 212Z" fill="#111820"/>
    <path d="M144 212C144 198.818 146.064 197 160.018 197C173.935 197 176 198.818 176 212C176 225.182 173.971 227 160.018 227C146.065 227 144 225.182 144 212Z" fill="#DFE3EB"/>
    <rect x="175" y="198" width="7" height="28" rx="3.5" fill="#C2C5CC"/>
    <rect x="151" y="198" width="5" height="22" rx="2.5" transform="rotate(-90 151 198)" fill="#C2C5CC"/>
    <rect x="151" y="231" width="5" height="22" rx="2.5" transform="rotate(-90 151 231)" fill="#C2C5CC"/>
    <path d="M144 172C144 158.818 146.064 157 160.018 157C173.935 157 176 158.818 176 172C176 185.182 173.971 187 160.018 187C146.065 187 144 185.182 144 172Z" fill="#111820"/>
    <path d="M144 172C144 158.818 146.064 157 160.018 157C173.935 157 176 158.818 176 172C176 185.182 173.971 187 160.018 187C146.065 187 144 185.182 144 172Z" fill="#DFE3EB"/>
    <rect x="175" y="158" width="7" height="28" rx="3.5" fill="#C2C5CC"/>
    <rect x="151" y="158" width="5" height="22" rx="2.5" transform="rotate(-90 151 158)" fill="#C2C5CC"/>
    <rect x="151" y="191" width="5" height="22" rx="2.5" transform="rotate(-90 151 191)" fill="#C2C5CC"/>
    <path d="M162.451 140V133.196H160.435V132.452C161.107 132.428 161.611 132.344 161.947 132.2C162.291 132.048 162.575 131.748 162.799 131.3H163.543V140H162.451Z" fill="#737576"/>
    <path d="M144 100C144 86.8182 146.064 85 160.018 85C173.935 85 176 86.8182 176 100C176 113.182 173.971 115 160.018 115C146.065 115 144 113.182 144 100Z" fill="#111820"/>
    <path d="M144 100C144 86.8182 146.064 85 160.018 85C173.935 85 176 86.8182 176 100C176 113.182 173.971 115 160.018 115C146.065 115 144 113.182 144 100Z" fill="#DFE3EB"/>
    <rect x="175" y="86" width="7" height="28" rx="3.5" fill="#C2C5CC"/>
    <rect x="151" y="86" width="5" height="22" rx="2.5" transform="rotate(-90 151 86)" fill="#C2C5CC"/>
    <rect x="151" y="119" width="5" height="22" rx="2.5" transform="rotate(-90 151 119)" fill="#C2C5CC"/>
    <path d="M144 60C144 46.8182 146.064 45 160.018 45C173.935 45 176 46.8182 176 60C176 73.1818 173.971 75 160.018 75C146.065 75 144 73.1818 144 60Z" fill="#111820"/>
    <path d="M144 60C144 46.8182 146.064 45 160.018 45C173.935 45 176 46.8182 176 60C176 73.1818 173.971 75 160.018 75C146.065 75 144 73.1818 144 60Z" fill="#DFE3EB"/>
    <rect x="175" y="46" width="7" height="28" rx="3.5" fill="#C2C5CC"/>
    <rect x="151" y="46" width="5" height="22" rx="2.5" transform="rotate(-90 151 46)" fill="#C2C5CC"/>
    <rect x="151" y="79" width="5" height="22" rx="2.5" transform="rotate(-90 151 79)" fill="#C2C5CC"/>
    <path d="M122.267 208.3H123.683L126.959 217H125.639L124.955 215.116H120.959L120.287 217H119.039L122.267 208.3ZM121.331 214.072H124.571L122.939 209.536L121.331 214.072Z" fill="#737576"/>
    <path d="M126.474 172.228C126.29 173.164 125.858 173.888 125.178 174.4C124.498 174.904 123.674 175.156 122.706 175.156C121.482 175.156 120.518 174.74 119.814 173.908C119.11 173.076 118.758 171.984 118.758 170.632C118.758 169.28 119.126 168.196 119.862 167.38C120.598 166.556 121.578 166.144 122.802 166.144C123.714 166.144 124.498 166.404 125.154 166.924C125.818 167.444 126.242 168.16 126.426 169.072H125.238C125.102 168.504 124.818 168.048 124.386 167.704C123.962 167.352 123.414 167.176 122.742 167.176C121.942 167.176 121.286 167.48 120.774 168.088C120.262 168.696 120.006 169.544 120.006 170.632C120.006 171.712 120.262 172.564 120.774 173.188C121.286 173.812 121.954 174.124 122.778 174.124C123.45 174.124 123.998 173.952 124.422 173.608C124.854 173.264 125.142 172.804 125.286 172.228H126.474Z" fill="#737576"/>
    <path d="M121.525 96.3C123.021 96.3 124.185 96.636 125.017 97.308C125.849 97.972 126.265 99.084 126.265 100.644C126.265 101.452 126.149 102.144 125.917 102.72C125.693 103.296 125.361 103.748 124.921 104.076C124.489 104.404 123.993 104.64 123.433 104.784C122.881 104.928 122.245 105 121.525 105H119.149V96.3H121.525ZM121.489 97.332H120.373V103.968H121.489C121.897 103.968 122.253 103.948 122.557 103.908C122.861 103.868 123.177 103.784 123.505 103.656C123.833 103.52 124.097 103.336 124.297 103.104C124.505 102.864 124.677 102.54 124.813 102.132C124.949 101.716 125.017 101.22 125.017 100.644C125.017 100.076 124.949 99.584 124.813 99.168C124.677 98.752 124.505 98.428 124.297 98.196C124.089 97.964 123.821 97.784 123.493 97.656C123.173 97.52 122.861 97.432 122.557 97.392C122.253 97.352 121.897 97.332 121.489 97.332Z" fill="#737576"/>
    <path d="M120.175 54.3H125.827V55.356H121.399V57.996H125.575V59.052H121.399V63H120.175V54.3Z" fill="#737576"/>
    <path fill-rule="evenodd" clip-rule="evenodd" d="M102 24H99V118.5C99 119.328 99.6719 120 100.5 120C101.328 120 102 119.328 102 118.5V24ZM100.5 152C99.6719 152 99 152.672 99 153.5V248H102V153.5C102 152.672 101.328 152 100.5 152Z" fill="#EFF1F5"/>
    <rect x="67" y="16" width="24" height="24" fill="white"/>
    <path d="M75.9229 31.7924C75.9229 32.2562 75.5391 32.6315 75.0654 32.6315H71.8584C71.3838 32.6315 71 32.2562 71 31.7924V20.8391C71 20.3753 71.3838 19.9999 71.8584 19.9999H86.1421C86.6162 19.9999 87 20.3753 87 20.8391V31.7924C87 32.2562 86.6162 32.6315 86.1421 32.6315H82.9355C82.4609 32.6315 82.0771 32.2562 82.0771 31.7924V31.0646C82.0771 30.6008 82.4609 30.2255 82.9355 30.2255H83.6807C84.1543 30.2255 84.5386 29.8502 84.5386 29.3864V23.2451C84.5386 22.7813 84.1543 22.4059 83.6807 22.4059H74.3198C73.8457 22.4059 73.4614 22.7813 73.4614 23.2451V29.3864C73.4614 29.8502 73.8457 30.2255 74.3198 30.2255H75.0654C75.5391 30.2255 75.9229 30.6008 75.9229 31.0646V31.7924Z" fill="#C2C5CC"/>
    <path d="M78.6934 24.6153C78.8623 24.4454 79.1382 24.4454 79.3081 24.6153L81.9502 28.0999C82.2241 28.3737 82.0303 28.842 81.6436 28.842H80.6655C80.4253 28.842 80.231 29.0365 80.231 29.2771V35.5655C80.231 35.8055 80.0366 35.9999 79.7964 35.9999H78.2046C77.9639 35.9999 77.7695 35.8055 77.7695 35.5655V29.2771C77.7695 29.0365 77.5752 28.842 77.335 28.842H76.3579C76.1357 28.842 75.9771 28.6879 75.9341 28.5048C75.9019 28.3688 75.9336 28.2166 76.0503 28.0999L78.6934 24.6153Z" fill="#C2C5CC"/>
    <rect x="67" y="232" width="24" height="24" fill="white"/>
    <path d="M78.6934 247.385C78.8623 247.554 79.1382 247.554 79.3081 247.385L81.9502 243.9C82.2241 243.626 82.0303 243.158 81.6431 243.158H80.6655C80.4253 243.158 80.231 242.963 80.231 242.723V236.434C80.231 236.194 80.0366 236 79.7964 236H78.2046C77.9639 236 77.7695 236.194 77.7695 236.434V242.723C77.7695 242.963 77.5752 243.158 77.335 243.158H76.3579C75.9702 243.158 75.7764 243.626 76.0503 243.9L78.6934 247.385Z" fill="#C2C5CC"/>
    <path d="M75.9229 240.208C75.9229 239.744 75.5391 239.368 75.0654 239.368H71.8584C71.3838 239.368 71 239.744 71 240.208V251.161C71 251.625 71.3838 252 71.8584 252H86.1421C86.6162 252 87 251.625 87 251.161V240.208C87 239.744 86.6162 239.368 86.1421 239.368H82.9355C82.4609 239.368 82.0771 239.744 82.0771 240.208V240.935C82.0771 241.399 82.4609 241.774 82.9355 241.774H83.6807C84.1543 241.774 84.5386 242.15 84.5386 242.614V248.755C84.5386 249.219 84.1543 249.594 83.6807 249.594H74.3198C73.8457 249.594 73.4614 249.219 73.4614 248.755V242.614C73.4614 242.15 73.8457 241.774 74.3198 241.774H75.0654C75.5391 241.774 75.9229 241.399 75.9229 240.935V240.208Z" fill="#C2C5CC"/>
    <path fill-rule="evenodd" clip-rule="evenodd" d="M27 156C27 153.791 28.7909 152 31 152H59C61.2091 152 63 153.791 63 156V247L27 242.366V156Z" fill="#EFF1F5"/>
    <path d="M37.8643 188C38.8936 188 39.7275 187.105 39.7275 186C39.7275 184.895 38.8936 184 37.8643 184C36.835 184 36.0005 184.895 36.0005 186C36.0005 187.105 36.835 188 37.8643 188Z" fill="#C2C5CC"/>
    <path d="M41.1963 190.089C40.8467 189.065 40.2607 188.545 39.4546 188.545H36.8447C36.0386 188.545 35.4526 189.065 35.1035 190.089C34.8345 190.876 34.396 192.108 34.021 193.152C33.6406 194.213 33.3257 195.081 33.3193 195.098C33.1768 195.492 33.3774 195.927 33.7681 196.071C34.1577 196.215 34.5913 196.013 34.7344 195.619L34.7588 195.552C34.9062 195.145 35.6841 192.998 36.2314 191.437L36.2207 191.534C36.2021 191.702 36.165 191.868 35.1616 197.086C35.1484 197.154 35.1523 197.224 35.1724 197.29C35.1885 197.342 35.2144 197.391 35.2495 197.434C35.3291 197.531 35.4473 197.588 35.5723 197.588H36.147V203.09C36.147 203.592 36.5518 204 37.0508 204C37.5503 204 37.9546 203.592 37.9546 203.09V197.588H38.3452V203.09C38.3452 203.592 38.75 204 39.249 204C39.748 204 40.1528 203.592 40.1528 203.09V197.588H40.7275C40.8525 197.588 40.9712 197.531 41.0508 197.434C41.1299 197.337 41.1621 197.209 41.1382 197.086L40.2866 192.661C40.1035 191.709 40.0874 191.614 40.0767 191.518L40.0654 191.412C40.7148 193.203 41.7666 195.906 41.8188 196.04C41.9707 196.43 42.4077 196.622 42.7949 196.469C43.1821 196.316 43.373 195.876 43.2212 195.486C43.2065 195.448 41.7353 191.667 41.1963 190.089Z" fill="#C2C5CC"/>
    <path d="M53.293 188.545C54.2153 188.545 54.9697 189.347 54.9746 190.331L55.001 195.904C55.0029 196.323 54.686 196.664 54.29 196.666C53.8994 196.666 53.5815 196.329 53.5796 195.912L53.5532 190.339C53.5518 190.252 53.4849 190.182 53.4033 190.183C53.3218 190.184 53.2559 190.255 53.2559 190.342C53.2563 192.042 53.2598 194.269 53.2637 196.502C53.2676 198.909 53.2715 201.322 53.2715 203.09C53.2715 203.593 52.8896 204 52.4185 204C51.9478 204 51.5659 203.593 51.5659 203.09V195.815H51.1978V203.09C51.1978 203.593 50.8159 204 50.3447 204C49.874 204 49.4922 203.593 49.4922 203.09L49.4917 190.348C49.4917 190.257 49.4238 190.182 49.3379 190.179C49.3003 190.178 49.2656 190.191 49.2378 190.214C49.2021 190.243 49.1782 190.288 49.1753 190.339L49.1494 195.912C49.1475 196.329 48.8296 196.666 48.4351 196.666C48.0425 196.664 47.7261 196.323 47.728 195.904L47.7544 190.331C47.7588 189.347 48.5132 188.545 49.436 188.545H53.293Z" fill="#C2C5CC"/>
    <path d="M51.4102 188C52.4394 188 53.2734 187.105 53.2734 186C53.2734 184.895 52.4394 184 51.4102 184C50.3809 184 49.5464 184.895 49.5464 186C49.5464 187.105 50.3809 188 51.4102 188Z" fill="#C2C5CC"/>
    <path d="M44.2734 184.687C44.2734 184.308 44.6196 184 45.0464 184C45.4731 184 45.8188 184.308 45.8188 184.687V201.495C45.8188 201.874 45.4731 202.182 45.0464 202.182C44.6196 202.182 44.2734 201.874 44.2734 201.495V184.687Z" fill="#C2C5CC"/>
    <path fill-rule="evenodd" clip-rule="evenodd" d="M27 28.7229L63 25V116C63 118.209 61.2091 120 59 120H31C28.7909 120 27 118.209 27 116V28.7229Z" fill="#EFF1F5"/>
    <path d="M39.7383 69.2613L41.9497 77.0323C42.0889 77.5227 41.9355 78.0361 41.5322 78.4279C41.1294 78.8196 40.52 79.0476 39.8755 79.0476L40.7358 86.4468C40.8062 87.2867 39.9512 88 38.8701 88C37.8374 88 37 87.3472 37 86.542V68.5631C37 68.2521 37.3232 68 37.7222 68C38.6904 68 39.5283 68.5244 39.7383 69.2613Z" fill="#C2C5CC"/>
    <path d="M50.457 68.7448C50.457 68.3334 50.8027 68 51.2285 68C51.6548 68 52 68.3334 52 68.7448V73.7956C52 74.4876 51.7075 75.1208 51.2417 75.5745C50.6567 76.1445 50.3408 76.9219 50.3682 77.7239L50.7573 86.2465C50.79 87.2056 49.9927 88 49 88C48.0063 88 47.21 87.2046 47.2427 86.2465L47.6318 77.7239C47.6592 76.9219 47.3433 76.1444 46.7583 75.5745C46.2725 75.1011 46 74.4619 46 73.7956L46.0171 72.6013V68.7448C46.0171 68.3335 46.3628 68.0001 46.7886 68.0001C47.2148 68.0001 47.5601 68.3335 47.5601 68.7448V72.6013H48.2285V68.7448C48.2285 68.3335 48.5737 68.0001 49 68.0001C49.4263 68.0001 49.7715 68.3335 49.7715 68.7448V72.6012H50.457V68.7448Z" fill="#C2C5CC"/>
</svg>
