<?xml version="1.0" encoding="UTF-8"?>
<svg width="58px" height="28px" viewBox="0 0 58 28" version="1.1" xmlns="http://www.w3.org/2000/svg" xmlns:xlink="http://www.w3.org/1999/xlink">
    <!-- Generator: sketchtool 42 (36781) - http://www.bohemiancoding.com/sketch -->
    <title>C2EFFB60-415F-4F81-A671-03094F687354</title>
    <desc>Created with sketchtool.</desc>
    <defs>
        <path d="M7.32968141,18.1761883 L3.55002006,3.87436936 C3.11566877,2.23083229 4.07450923,0.546460018 5.69589674,0.105976042 C7.31728426,-0.334507934 8.97831289,0.638121866 9.41266418,2.28165894 L11.4403896,9.95434683 L20.4297225,11.0878406 C21.6154241,11.2471166 22.6205538,12.1363324 22.938561,13.3396364 C22.9710588,13.4626044 23.9793918,21.8876557 23.9793918,21.8876557 C24.1484485,23.4085568 23.2641307,24.7983391 21.8138591,25.1923358 L11.8620207,27.8959618 C11.0800906,28.1083895 10.2486064,27.9906524 9.559977,27.5872356 L0.379561423,22.2132989 C0.0182039702,22.0020852 -0.106969338,21.5343874 0.0994923704,21.1669228 L0.945600544,19.6593078 C1.26801852,19.0931068 1.79835468,18.6687128 2.43445157,18.4959037 C2.56196408,18.4612622 2.64872041,18.4492402 2.80785176,18.4346776 C2.83624283,18.4321409 7.32968141,18.1761883 7.32968141,18.1761883 Z" id="path-1"></path>
        <mask id="mask-2" maskContentUnits="userSpaceOnUse" maskUnits="objectBoundingBox" x="0" y="0" width="24" height="28" fill="white">
            <use xlink:href="#path-1"></use>
        </mask>
    </defs>
    <g id="Web" stroke="none" stroke-width="1" fill="none" fill-rule="evenodd">
        <g id="01-2_meme_page_tutorial" transform="translate(-16.000000, -58.000000)">
            <g id="swipe" transform="translate(16.000000, 58.000000)">
                <g>
                    <g>
                        <path d="M15.4152069,4 C16.3494403,4 41.8938,3.19922881 57.1446142,2.71938574 C58.2851286,2.68278114 58.2851286,1.8576239 57.1446142,1.8576239 C41.8945524,1.16171752 16.3495696,-4.4408921e-16 15.4152069,-4.4408921e-16 C14.0813249,-4.4408921e-16 13,0.6745166 13,2 C13,3.3254834 14.0813249,4 15.4152069,4 Z" id="Oval-6" fill="#FFFFFF"></path>
                        <use id="hand" stroke="#FFFFFF" mask="url(#mask-2)" stroke-width="4" stroke-linecap="round" stroke-linejoin="round" xlink:href="#path-1"></use>
                    </g>
                </g>
            </g>
        </g>
    </g>
</svg>
