<svg width="32" height="24" viewBox="0 0 32 24" fill="none" xmlns="http://www.w3.org/2000/svg">
    <path d="M-5.11514e-07 12C-3.41866e-05 1.45455 1.7419 1.82934e-06 13.5148 1.30212e-06C25.258 7.76229e-07 27 1.45455 27 12C27 22.5455 25.2877 24 13.5148 24C1.74193 24 3.31636e-05 22.5455 -5.11514e-07 12Z" fill="#003594"/>
    <path d="M-5.11514e-07 12C-3.41866e-05 1.45455 1.7419 1.82934e-06 13.5148 1.30212e-06C25.258 7.76229e-07 27 1.45455 27 12C27 22.5455 25.2877 24 13.5148 24C1.74193 24 3.31636e-05 22.5455 -5.11514e-07 12Z" fill="#DFE3EB"/>
    <rect x="26" y="1" width="6" height="22" rx="3" fill="#C2C5CC"/>
</svg>
