<svg width="26" height="29" viewBox="0 0 26 29" xmlns="http://www.w3.org/2000/svg"><title>0D5D8D56-CC7D-4BE3-912A-79DBFEA0B1C3</title><path d="M1.024 0L14.91 14.49 1.003 29C.353 28.906 0 28.229 0 27.273V1.683C0 .655.46.14 1.024 0zm14.799 13.536L4.093 1.296a1035972.647 1035972.647 0 0 1 15.165 8.656l-3.435 3.584zm9.377-.192c1.395.795.68 1.79 0 2.18l-4.824 2.763-3.64-3.797 3.703-3.864c2.511 1.434 4.375 2.497 4.76 2.718zm-9.377 2.099l3.374 3.52-.023.013-14.93 8.55 11.579-12.083z" fill="#FFF" fill-rule="evenodd"/></svg>