<svg width="20" height="21" viewBox="0 0 20 21" shape-rendering="auto" xmlns="http://www.w3.org/2000/svg" xmlns:xlink="http://www.w3.org/1999/xlink"><title>9D79923A-0D5F-48B1-9926-E376DB872123</title><defs><path d="M3.72 6.797a.75.75 0 1 0 1.06 1.06l.71-.71v6.854a2.49 2.49 0 0 0 2.5 2.491l1.764.007a.75.75 0 1 0 0-1.499l-1.765-.007c-.556 0-1-.442-1-.992V6.958l.89.888a.75.75 0 0 0 1.06-1.06L6.87 4.72a.75.75 0 0 0-.873-.137.748.748 0 0 0-.209.147L3.72 6.797zm9.292.2a.992.992 0 0 0-1-.992l-1.764-.007a.75.75 0 1 1 0-1.499l1.764.007a2.49 2.49 0 0 1 2.5 2.491v6.854l.709-.71a.75.75 0 0 1 1.06 1.06l-2.068 2.068a.748.748 0 0 1-.209.147.75.75 0 0 1-.873-.136l-2.068-2.068a.75.75 0 1 1 1.06-1.06l.889.888V6.997z" id="a"/><filter x="-50%" y="-50%" width="200%" height="200%" filterUnits="objectBoundingBox" id="b"><feMorphology radius=".5" operator="dilate" in="SourceAlpha" result="shadowSpreadOuter1"/><feOffset in="shadowSpreadOuter1" result="shadowOffsetOuter1"/><feGaussianBlur stdDeviation="2" in="shadowOffsetOuter1" result="shadowBlurOuter1"/><feComposite in="shadowBlurOuter1" in2="SourceAlpha" operator="out" result="shadowBlurOuter1"/><feColorMatrix values="0 0 0 0 0 0 0 0 0 0 0 0 0 0 0 0 0 0 0.16 0" in="shadowBlurOuter1"/></filter><mask id="c" x="-.5" y="-.5" width="14" height="13"><path fill="#fff" d="M3.001 3.999h14v13h-14z"/><use xlink:href="#a"/></mask></defs><g transform="rotate(90 10 10.5)" fill-rule="nonzero" fill="none"><use fill="#000" filter="url(#b)" xlink:href="#a"/><use fill="#FFF" fill-rule="evenodd" xlink:href="#a"/><use stroke-opacity=".16" stroke="#000" mask="url(#c)" stroke-linecap="round" xlink:href="#a"/></g></svg>
