<?xml version="1.0" encoding="UTF-8"?>
<svg width="25px" height="24px" viewBox="0 0 25 24" version="1.1" xmlns="http://www.w3.org/2000/svg" xmlns:xlink="http://www.w3.org/1999/xlink">
    <!-- Generator: sketchtool 41.2 (35397) - http://www.bohemiancoding.com/sketch -->
    <title>D8815C36-39BE-4553-B4FC-141468756F33</title>
    <desc>Created with sketchtool.</desc>
    <defs></defs>
    <g id="Icons" stroke="none" stroke-width="1" fill="none" fill-rule="evenodd">
        <g id="icons_web" transform="translate(-300.000000, -250.000000)" fill="#FFFFFF">
            <g id="amazon" transform="translate(300.000000, 250.000000)">
                <g>
                    <g>
                        <path d="M21.0160714,19.0915102 C20.8936224,19.0905306 20.7681122,19.118449 20.6512755,19.1708571 C20.5186224,19.2217959 20.3844388,19.2800816 20.2584184,19.3315102 L20.0711735,19.406449 L19.8278061,19.4985306 L19.8278061,19.5014694 C17.1910714,20.5285714 14.4216837,21.129551 11.8589286,21.1829388 C11.765051,21.1853878 11.6706633,21.1853878 11.5778061,21.1853878 C7.54872449,21.1873469 4.25994898,19.3927347 0.941071429,17.6245714 C0.824744898,17.5662857 0.707908163,17.5354286 0.591071429,17.5354286 C0.441071429,17.5354286 0.288520408,17.5888163 0.177295918,17.6892245 C0.0655612245,17.7896327 -0.000765306122,17.9360816 0.000255102041,18.0844898 C-0.000255102041,18.2779592 0.108418367,18.4547755 0.258928571,18.5698776 C3.37321429,21.1648163 6.78596939,23.5765714 11.3752551,23.5785306 C11.465051,23.5785306 11.5558673,23.5765714 11.6482143,23.5746122 C14.5670918,23.5114286 17.8701531,22.5651429 20.432398,21.0198367 L20.4471939,21.009551 C20.7829082,20.8170612 21.1186224,20.5981224 21.434949,20.3551837 C21.632398,20.2146122 21.767602,19.9966531 21.7655612,19.768898 C21.7594388,19.3657959 21.4017857,19.0915102 21.0160714,19.0915102 Z M24.5715306,17.6584653 L24.5715306,17.6574857 C24.5613265,17.4106286 24.5067347,17.2240163 24.400102,17.0682612 L24.389898,17.0540571 L24.3766327,17.0388735 C24.2679592,16.9252408 24.1643878,16.8821388 24.0506122,16.8341388 C23.714898,16.7097306 23.2256122,16.6436082 22.6358163,16.641649 C22.2123469,16.641649 21.7439796,16.6798531 21.2756122,16.778302 L21.2745918,16.7484245 L20.8011224,16.8997714 L20.7934694,16.9036898 L20.5261224,16.9869551 L20.5261224,16.9982204 C20.2133673,17.1226286 19.9281633,17.2783837 19.6633673,17.4620571 C19.5006122,17.5805878 19.3623469,17.7368327 19.3546939,17.9763429 C19.3511224,18.1071184 19.4194898,18.2569959 19.5353061,18.3461388 C19.6495918,18.4352816 19.7822449,18.4646694 19.8995918,18.4646694 C19.9271429,18.4646694 19.9526531,18.4636898 19.9756122,18.4597714 L19.9985714,18.4578122 L20.0164286,18.4548735 C20.247551,18.4078531 20.5847959,18.3765061 20.9781633,18.3221388 C21.3159184,18.2873633 21.6745918,18.2604245 21.9863265,18.2604245 C22.2062245,18.2594449 22.4031633,18.273649 22.5393878,18.3020571 C22.6067347,18.3157714 22.6572449,18.3329143 22.6868367,18.3466286 C22.6955102,18.3505469 22.7021429,18.3544653 22.7067347,18.3569143 C22.7123469,18.3750367 22.7210204,18.4210776 22.72,18.4867102 C22.7230612,18.7369959 22.6113265,19.1993633 22.4608163,19.6514449 C22.3133673,20.1040163 22.1342857,20.5575673 22.0143878,20.8587918 C21.9868367,20.9288327 21.9684694,21.0042612 21.9684694,21.0875265 C21.9669388,21.2089959 22.017449,21.3554449 22.1271429,21.4529143 C22.2337755,21.5503837 22.3715306,21.588098 22.4878571,21.588098 L22.4934694,21.588098 C22.6679592,21.5866286 22.8154082,21.5205061 22.9429592,21.4245061 C24.142449,20.3890776 24.5592857,18.7369959 24.5756122,17.8058939 L24.5715306,17.6584653 Z" id="Combined-Shape"></path>
                        <path d="M13.0072449,12.7533061 C12.6276531,13.4796735 11.9761224,13.9484082 11.2710204,14.1080816 C11.1633673,14.1080816 11.0006122,14.1590204 10.8368367,14.1590204 C9.645,14.1590204 8.93938776,13.2734694 8.93938776,11.9720816 C8.93938776,10.3062857 9.97,9.52506122 11.2705102,9.16114286 C11.9761224,9.00538776 12.7888776,8.952 13.6026531,8.952 L13.6026531,9.57795918 C13.6031633,10.7750204 13.6567347,11.7110204 13.0072449,12.7533061 L13.0072449,12.7533061 Z M13.6031633,6.55934694 C12.897551,6.61077551 12.0842857,6.66171429 11.2710204,6.76506122 C10.0240816,6.92326531 8.77612245,7.12995918 7.74653061,7.59967347 C5.74040816,8.37991837 4.38479592,10.0462041 4.38479592,12.4922449 C4.38479592,15.5642449 6.445,17.1262041 9.04806122,17.1262041 C9.91489796,17.1262041 10.6215306,17.020898 11.2705102,16.8656327 C12.3011224,16.5531429 13.1684694,15.9810612 14.1995918,14.9382857 C14.7955102,15.72 14.9587755,16.0853878 15.9888776,16.917551 C16.2592857,17.020898 16.5302041,17.020898 16.7465306,16.8656327 C17.3980612,16.3449796 18.5373469,15.4070204 19.1332653,14.8873469 C19.4052041,14.6791837 19.3511224,14.3666939 19.1868367,14.1080816 C18.5919388,13.3777959 17.9939796,12.7533061 17.9939796,11.347102 L17.9939796,6.66171429 C17.9939796,4.68342857 18.1577551,2.86138776 16.6388776,1.50955102 C15.3929592,0.416816327 13.4404082,0 11.9215306,0 L11.2705102,0 C8.50622449,0.153306122 5.57714286,1.29942857 4.92612245,4.58008163 C4.81744898,4.99787755 5.14346939,5.15216327 5.36132653,5.20408163 L8.39653061,5.568 C8.72357143,5.51706122 8.88479592,5.25502041 8.93938776,4.99689796 C9.21081633,3.85077551 10.1863265,3.27771429 11.2705102,3.17338776 L11.4883673,3.17338776 C12.1388776,3.17338776 12.8439796,3.43493878 13.2230612,3.95510204 C13.6567347,4.58008163 13.6026531,5.41371429 13.6026531,6.14253061 L13.6026531,6.55934694 L13.6031633,6.55934694 Z" id="Fill-6"></path>
                    </g>
                </g>
            </g>
        </g>
    </g>
</svg>