<?xml version="1.0" encoding="UTF-8"?>
<svg width="20px" height="24px" viewBox="0 0 20 24" version="1.1" xmlns="http://www.w3.org/2000/svg" xmlns:xlink="http://www.w3.org/1999/xlink">
    <!-- Generator: sketchtool 41.2 (35397) - http://www.bohemiancoding.com/sketch -->
    <title>64F2804E-E469-46B5-9188-1620DEB0021C</title>
    <desc>Created with sketchtool.</desc>
    <defs></defs>
    <g id="Icons" stroke="none" stroke-width="1" fill="none" fill-rule="evenodd">
        <g id="icons_web" transform="translate(-200.000000, -250.000000)" fill="#FEFEFE">
            <g id="appStore" transform="translate(200.000000, 250.000000)">
                <g>
                    <path d="M16.704666,12.7531521 C16.6737145,9.71305185 19.2416888,8.25446719 19.3565088,8.18129405 C17.9132713,6.11878704 15.6647962,5.83585089 14.8640515,5.80414252 C12.9525481,5.61389235 11.1319023,6.9046666 10.1619229,6.9046666 C9.19394041,6.9046666 7.69528981,5.83194832 6.10977538,5.85926629 C4.02404513,5.88951119 2.10155897,7.04467122 1.02824159,8.86912159 C-1.13786266,12.5404621 0.474110285,17.9825927 2.5848014,20.9626909 C3.61668375,22.4188365 4.84725461,24.0584027 6.46122442,23.9984007 C8.01778424,23.9383988 8.60436467,23.0149537 10.485915,23.0149537 C12.3669661,23.0149537 12.8951381,23.9984007 14.5410579,23.9671802 C16.2144345,23.9379109 17.2752715,22.482741 18.2986671,21.0202538 C19.4828108,19.3284907 19.9710454,17.6899001 20,17.6064827 C19.9635571,17.5903847 16.7376144,16.38254 16.704666,12.7531521 Z M13.6118645,3.83183361 C14.4680224,2.81619038 15.048113,1.40443653 14.8908595,0 C13.6547972,0.0487820957 12.1591419,0.802465474 11.2720326,1.81713306 C10.4777778,2.71765055 9.78236795,4.15086852 9.96857603,5.53042619 C11.3469152,5.63530769 12.7527114,4.84552556 13.6118645,3.83183361 Z"></path>
                </g>
            </g>
        </g>
    </g>
</svg>