<?xml version="1.0" encoding="UTF-8"?>
<svg width="14px" height="8px" viewBox="0 0 14 8" version="1.1" xmlns="http://www.w3.org/2000/svg" xmlns:xlink="http://www.w3.org/1999/xlink">
    <!-- Generator: sketchtool 41.2 (35397) - http://www.bohemiancoding.com/sketch -->
    <title>1B0FF9CA-6EEF-407F-9C03-C6BA684DDEC3</title>
    <desc>Created with sketchtool.</desc>
    <defs></defs>
    <g id="Icons" stroke="none" stroke-width="1" fill="none" fill-rule="evenodd">
        <g id="icons_web" transform="translate(-200.000000, -200.000000)" fill="#FFFFFF">
            <g id="arrowUpSmall" transform="translate(200.000000, 200.000000)">
                <g>
                    <path d="M10.6910405,4.723529 C10.6965004,4.71830718 10.7019157,4.71301154 10.7072852,4.70764208 C10.9045196,4.51040765 11.0021408,4.25128144 11.0001485,3.99278038 C10.9982846,3.73933078 10.9006702,3.48646813 10.7073062,3.29309268 C10.701937,3.28772313 10.6965219,3.28242741 10.6910622,3.27720551 L4.70692835,-2.70692835 C4.31640406,-3.09745264 3.68323908,-3.09745264 3.29271479,-2.70692835 C2.9021905,-2.31640406 2.9021905,-1.68323908 3.29271479,-1.29271479 L8.5857654,4.00033583 L3.29273581,9.29305062 C2.90219991,9.6835633 2.90218108,10.3167283 3.29269376,10.7072642 C3.68320644,11.0978001 4.31637142,11.0978189 4.70690732,10.7073062 L10.6910405,4.723529 Z" transform="translate(7.000000, 4.000178) scale(1, -1) rotate(-270.000000) translate(-7.000000, -4.000178) "></path>
                </g>
            </g>
        </g>
    </g>
</svg>
