<?xml version="1.0" encoding="UTF-8"?>
<svg width="34px" height="34px" viewBox="0 0 34 34" version="1.1" xmlns="http://www.w3.org/2000/svg" xmlns:xlink="http://www.w3.org/1999/xlink">
    <!-- Generator: sketchtool 42 (36781) - http://www.bohemiancoding.com/sketch -->
    <title>F0485A5F-9388-4916-B07E-133D8472F9E9</title>
    <desc>Created with sketchtool.</desc>
    <defs>
        <path d="M4,16 C4,20.3169657 6.27957143,24.1015429 9.70066857,26.2156 C10.1239257,25.0527143 10.9539829,22.7721143 10.9567429,22.7645714 C11.3009714,21.8187657 10.7897714,20.9986857 10.5293543,20.44696 C10.3465429,20.0598229 10.1742571,19.6940457 10.1182686,19.1109486 C10.0646629,18.5555886 10.0474171,18.1775029 10.0610629,17.8055714 C10.0869314,17.0136571 10.35568,16.77508 10.66732,16.4989429 C10.7133143,16.4582286 10.7602343,16.4170686 10.8065886,16.3737657 C11.2287829,15.9800971 11.6191771,15.69952 11.7351829,15.6178686 C11.94556,15.4727714 12.0575371,15.2213543 12.0685086,14.8706629 L12.0992114,13.8294571 C12.1070457,13.5767543 12.1016971,13.2639314 12.0960229,12.9326971 C12.0884114,12.4864171 12.0807657,12.0247257 12.1051943,11.6943314 L12.4576171,8.42974857 C12.5039029,7.80324571 12.9117829,7.26489143 13.3866743,7.20382857 C13.4887429,7.19090286 13.5884629,7.20168571 13.6832286,7.23619429 C14.0191429,7.35844 14.2361029,7.76035429 14.2228171,8.23193714 L14.0314171,11.4608629 C14.0189543,11.9152171 14.0968343,12.5992 14.1592343,13.1485943 C14.1790857,13.3166971 14.19652,13.4732286 14.2100629,13.6088457 L14.2241029,13.7458343 C14.2353143,13.8562514 14.2649886,14.0080686 14.3897029,14.0534629 C14.50612,14.09584 14.6131943,14.0130743 14.67556,13.9535714 C14.69152,13.9455486 14.7050286,13.9340971 14.7166686,13.9198343 C15.0306571,13.5238 15.5542686,13.34548 15.9881886,13.4846971 L16.0265714,13.4975029 C16.5252057,13.6789943 16.7848857,14.2680571 16.6440571,14.8979371 C16.6159771,15.0227029 16.6694457,15.13 16.7904743,15.1800914 C16.8516914,15.2023771 16.9731314,15.1957429 17.0324971,15.1252171 C17.4271943,14.6557086 17.7828057,14.3765029 18.2292914,14.5390171 L18.2653943,14.5527314 C19.0915086,14.90152 18.7800229,16.2106171 18.7739886,16.2384229 C18.7462686,16.4644 18.8484571,16.5368629 18.91192,16.5599543 C18.9409943,16.5705314 18.9727771,16.5746971 19.0063086,16.5725029 C19.0398229,16.5702571 19.0706629,16.5546229 19.0927771,16.5291829 L19.27456,16.3165771 C19.4458686,16.1171886 19.6372171,15.9382686 19.8226,15.7655886 C20.0454057,15.5580229 20.2755486,15.3435829 20.4813657,15.0821029 L22.2607771,12.6008286 C22.5783143,12.1977143 23.0095429,12.0062114 23.3340914,12.1243257 C23.4015143,12.1488743 23.4619771,12.1866571 23.5135771,12.2364229 C23.8073029,12.5211486 23.7827886,13.1809086 23.4589943,13.7066114 L21.6888914,16.5823771 C21.3648571,17.1066229 20.8391714,17.9098171 20.5115886,18.3796171 C20.4955086,18.4066857 18.9014457,21.0802686 18.3788114,21.9702914 C18.2704857,22.1544743 17.9867886,22.4678286 17.6576114,22.8301086 C17.0826914,23.4646171 16.4307143,24.1835029 16.2353886,24.7201257 L15.0549657,27.9633314 C15.3667943,27.98764 15.6819486,28 16,28 C22.6274114,28 28,22.6274286 28,16 C28,9.37258857 22.6274114,4 16,4 C9.37257143,4 4,9.37258857 4,16 Z" id="path-1"></path>
        <filter x="-50%" y="-50%" width="200%" height="200%" filterUnits="objectBoundingBox" id="filter-2">
            <feMorphology radius="0.5" operator="dilate" in="SourceAlpha" result="shadowSpreadOuter1"></feMorphology>
            <feOffset dx="0" dy="0" in="shadowSpreadOuter1" result="shadowOffsetOuter1"></feOffset>
            <feGaussianBlur stdDeviation="2" in="shadowOffsetOuter1" result="shadowBlurOuter1"></feGaussianBlur>
            <feComposite in="shadowBlurOuter1" in2="SourceAlpha" operator="out" result="shadowBlurOuter1"></feComposite>
            <feColorMatrix values="0 0 0 0 0   0 0 0 0 0   0 0 0 0 0  0 0 0 0.3 0" type="matrix" in="shadowBlurOuter1"></feColorMatrix>
        </filter>
        <mask id="mask-3" maskContentUnits="userSpaceOnUse" maskUnits="objectBoundingBox" x="-0.5" y="-0.5" width="25" height="25">
            <rect x="3.5" y="3.5" width="25" height="25" fill="white"></rect>
            <use xlink:href="#path-1" fill="black"></use>
        </mask>
    </defs>
    <g id="Icons" stroke="none" stroke-width="1" fill="none" fill-rule="evenodd">
        <g id="icons_web" transform="translate(-499.000000, -449.000000)">
            <g id="coubWeb" transform="translate(500.000000, 450.000000)">
                <g>
                    <g>
                        <use fill="black" fill-opacity="1" filter="url(#filter-2)" xlink:href="#path-1"></use>
                        <use fill="#FFFFFF" fill-rule="evenodd" xlink:href="#path-1"></use>
                        <use stroke-opacity="0.23" stroke="#000000" mask="url(#mask-3)" stroke-width="1" stroke-linecap="round" xlink:href="#path-1"></use>
                    </g>
                </g>
            </g>
        </g>
    </g>
</svg>
