<?xml version="1.0" encoding="UTF-8"?>
<svg width="16px" height="16px" viewBox="0 0 16 16" version="1.1" xmlns="http://www.w3.org/2000/svg" xmlns:xlink="http://www.w3.org/1999/xlink">
    <!-- Generator: sketchtool 41.2 (35397) - http://www.bohemiancoding.com/sketch -->
    <title>7AB7042B-4566-447C-8189-D736366E9508</title>
    <desc>Created with sketchtool.</desc>
    <defs></defs>
    <g id="Icons" stroke="none" stroke-width="1" fill="none" fill-rule="evenodd">
        <g id="icons_web" transform="translate(-150.000000, -200.000000)" fill="#FFFFFF">
            <g id="cross" transform="translate(150.000000, 200.000000)">
                <g>
                    <path d="M9.76776695,8 L15.6338835,13.8661165 C16.1220388,14.3542719 16.1220388,15.1457281 15.6338835,15.6338835 C15.1457281,16.1220388 14.3542719,16.1220388 13.8661165,15.6338835 L8,9.76776695 L2.13388348,15.6338835 C1.64572811,16.1220388 0.854271888,16.1220388 0.366116524,15.6338835 C-0.122038841,15.1457281 -0.122038841,14.3542719 0.366116524,13.8661165 L6.23223305,8 L0.366116524,2.13388348 C-0.122038841,1.64572811 -0.122038841,0.854271888 0.366116524,0.366116524 C0.854271888,-0.122038841 1.64572811,-0.122038841 2.13388348,0.366116524 L8,6.23223305 L13.8661165,0.366116524 C14.3542719,-0.122038841 15.1457281,-0.122038841 15.6338835,0.366116524 C16.1220388,0.854271888 16.1220388,1.64572811 15.6338835,2.13388348 L9.76776695,8 Z"></path>
                </g>
            </g>
        </g>
    </g>
</svg>