<?xml version="1.0" encoding="UTF-8"?>
<svg width="22px" height="22px" viewBox="0 0 22 22" version="1.1" xmlns="http://www.w3.org/2000/svg" xmlns:xlink="http://www.w3.org/1999/xlink">
    <!-- Generator: sketchtool 41.2 (35397) - http://www.bohemiancoding.com/sketch -->
    <title>88041054-DE16-4F56-8DD7-76E6644D3179</title>
    <desc>Created with sketchtool.</desc>
    <defs></defs>
    <g id="Icons" stroke="none" stroke-width="1" fill="none" fill-rule="evenodd">
        <g id="icons_web" transform="translate(-350.000000, -450.000000)" fill="#FFFFFF">
            <g id="fbMsngr" transform="translate(350.000000, 450.000000)">
                <g>
                    <path d="M12.1448362,13.8482045 L9.25795837,10.8035616 L3.68329774,13.7499902 L9.65614842,7.46427589 L12.5430262,10.3124902 L18.1176869,7.36606161 L12.1448362,13.8482045 Z M11.0000398,-9.82142859e-06 C4.9248543,-9.82142859e-06 3.98190045e-05,4.59514196 3.98190045e-05,10.263383 C3.98190045e-05,13.4425795 1.54939729,16.2839187 3.98194027,18.1664902 L3.98194027,21.9999902 L7.72671855,20.0646777 C8.76071855,20.365017 9.86012127,20.5267759 11.0000398,20.5267759 C17.0751258,20.5267759 22.0000398,15.9317223 22.0000398,10.263383 C22.0000398,4.59514196 17.0751258,-9.82142859e-06 11.0000398,-9.82142859e-06 L11.0000398,-9.82142859e-06 Z"></path>
                </g>
            </g>
        </g>
    </g>
</svg>