<?xml version="1.0" encoding="UTF-8"?>
<svg width="80px" height="80px" viewBox="0 0 80 80" version="1.1" xmlns="http://www.w3.org/2000/svg" xmlns:xlink="http://www.w3.org/1999/xlink">
    <!-- Generator: sketchtool 41.2 (35397) - http://www.bohemiancoding.com/sketch -->
    <title>356AFB43-A8C6-41E9-9636-086936C852CE</title>
    <desc>Created with sketchtool.</desc>
    <defs></defs>
    <g id="Icons" stroke="none" stroke-width="1" fill="none" fill-rule="evenodd">
        <g id="icons_web" transform="translate(-150.000000, -350.000000)">
            <g id="gifBig" transform="translate(150.000000, 350.000000)">
                <g>
                    <g>
                        <circle id="Oval-40" fill-opacity="0.400000006" fill="#000000" cx="40" cy="40" r="40"></circle>
                        <path d="M39,32 L43,32 L43,48 L39,48 L39,32 Z M23.6666667,32 C22.0666667,32 21,33.3333333 21,34.6666667 L21,45.3333333 C21,46.6666667 22.0666667,48 23.6666667,48 L32.3636068,48 C33.9636068,48.0947266 35.0302734,46.7613932 35.0302734,45.4280599 L35.0302734,40 L31.0302734,40 L31.0302734,44 L25,44 L25,36 L35.0302734,36 L35.0302734,33.5008327 C35.0302734,32.6719457 34.353459,32 33.5212742,32 L23.6666667,32 Z M59,36 L59,32 L47,32 L47,48 L51,48 L51,43 L56,43 L56,39 L51,39 L51,36 L59,36 Z" id="Shape" fill="#FFFFFF"></path>
                    </g>
                </g>
            </g>
        </g>
    </g>
</svg>