<?xml version="1.0" encoding="UTF-8"?>
<svg width="26px" height="29px" viewBox="0 0 26 29" version="1.1" xmlns="http://www.w3.org/2000/svg" xmlns:xlink="http://www.w3.org/1999/xlink">
    <!-- Generator: sketchtool 41.2 (35397) - http://www.bohemiancoding.com/sketch -->
    <title>C06FA876-7054-46D2-AC13-C3ABF4640D6D</title>
    <desc>Created with sketchtool.</desc>
    <defs></defs>
    <g id="Icons" stroke="none" stroke-width="1" fill="none" fill-rule="evenodd">
        <g id="icons_web" transform="translate(-250.000000, -600.000000)" fill="#171A1E">
            <g id="googlePlayBigDark" transform="translate(250.000000, 600.000000)">
                <g>
                    <path d="M1.02367636,-1.77635684e-15 C0.459697553,0.138799035 0,0.654177624 0,1.68381001 L0,27.2725482 C0,28.2286193 0.352406122,28.9059676 1.00346514,29 L14.9096386,14.4895395 L1.02367636,-1.77635684e-15 Z M15.8230349,13.5363703 L19.2576507,9.95234073 C19.228194,9.93546888 19.1998123,9.91927191 19.1701405,9.90240007 C19.1701405,9.90240007 8.57946572,3.85710596 4.09236178,1.29596007 L15.8230349,13.5363703 Z M25.1997254,13.3435813 C24.8139923,13.1233475 22.9500455,12.0595215 20.438695,10.6263146 L16.7366031,14.489517 L20.3761263,18.2874815 C23.057122,16.7519187 25.0001934,15.6392769 25.1997254,15.5247733 C25.8808862,15.1346963 26.594514,14.1392575 25.1997254,13.3435813 Z M15.8230349,15.4426862 L4.24330083,27.5258508 C7.61040264,25.5975115 14.2603212,21.7891989 19.1737957,18.9754253 L19.1742257,18.9756502 C19.1817512,18.971376 19.1890616,18.9671018 19.1965871,18.9628276 L15.8230349,15.4426862 Z"></path>
                </g>
            </g>
        </g>
    </g>
</svg>
