<?xml version="1.0" encoding="UTF-8"?>
<svg width="30px" height="30px" viewBox="0 0 30 30" version="1.1" xmlns="http://www.w3.org/2000/svg" xmlns:xlink="http://www.w3.org/1999/xlink">
    <!-- Generator: sketchtool 41.2 (35397) - http://www.bohemiancoding.com/sketch -->
    <title>BE6B35BD-AFC7-46B3-A09F-D879EB656939</title>
    <desc>Created with sketchtool.</desc>
    <defs></defs>
    <g id="Icons" stroke="none" stroke-width="1" fill="none" fill-rule="evenodd">
        <g id="icons_web" transform="translate(-150.000000, -250.000000)" fill="#FFCC00">
            <g id="ifunnyLogo" transform="translate(150.000000, 250.000000)">
                <g>
                    <path d="M24.5526651,18.5460142 C22.706816,22.1501179 19.0464623,24.3890094 15.0000708,24.3890094 C10.9536085,24.3890094 7.29325472,22.1501179 5.44740566,18.5458726 C5.28707547,18.2328538 5.41082547,17.8490802 5.72391509,17.6888208 C6.03693396,17.5286321 6.42063679,17.6523113 6.58096698,17.9653302 C8.20790094,21.1420047 11.4338915,23.1154245 15.0000708,23.1154245 C18.5661792,23.1154245 21.7921698,21.1420755 23.4191038,17.9654717 C23.5793632,17.6525943 23.9629953,17.5285613 24.2761557,17.6889623 C24.5891745,17.8492217 24.7129953,18.2329953 24.5526651,18.5460142 M10.4716981,7.64242925 C11.4370047,7.64242925 12.0288679,8.83025943 12.0288679,10.2955189 C12.0288679,11.7607783 11.4370047,12.9480425 10.4716981,12.9486085 C9.49125,12.9491038 8.9145283,11.7607783 8.9145283,10.2955189 C8.9145283,8.83025943 9.49125,7.64242925 10.4716981,7.64242925 M19.5283019,7.64242925 C20.4936085,7.64242925 21.0854717,8.83025943 21.0854717,10.2955189 C21.0854717,11.7607783 20.4936085,12.9480425 19.5283019,12.9486085 C18.5478538,12.9491038 17.9711321,11.7607783 17.9711321,10.2955189 C17.9711321,8.83025943 18.5478538,7.64242925 19.5283019,7.64242925 M15,0 C6.71575472,0 0,6.71568396 0,15 C0,23.2842453 6.71575472,30 15,30 C23.2842453,30 30,23.2842453 30,15 C30,6.71568396 23.2842453,0 15,0"></path>
                </g>
            </g>
        </g>
    </g>
</svg>
