<?xml version="1.0" encoding="UTF-8"?>
<svg width="33px" height="33px" viewBox="0 0 33 33" version="1.1" xmlns="http://www.w3.org/2000/svg" xmlns:xlink="http://www.w3.org/1999/xlink">
    <!-- Generator: sketchtool 42 (36781) - http://www.bohemiancoding.com/sketch -->
    <title>E5FFE616-BA13-437B-9B29-07D72166EF1C</title>
    <desc>Created with sketchtool.</desc>
    <defs>
        <path d="M11.496372,4.56349204e-06 C8.37416766,4.56349204e-06 7.98262004,0.0132386905 6.75645536,0.0691871032 C5.53275496,0.124998611 4.69708829,0.319357738 3.96578869,0.603572024 C3.20984623,0.897324008 2.5686756,1.29042321 1.92955853,1.92954028 C1.29044147,2.56870298 0.897342262,3.20982798 0.603544643,3.96581607 C0.319330357,4.69707004 0.125016865,5.53278234 0.0691597222,6.7564371 C0.0132113095,7.98264742 2.28174613e-05,8.37410377 2.28174613e-05,11.4963538 C2.28174613e-05,14.6186038 0.0132113095,15.0101058 0.0691597222,16.2363161 C0.125016865,17.4599708 0.319330357,18.2956831 0.603544643,19.0269371 C0.897342262,19.7828796 1.29044147,20.4240502 1.92955853,21.0632129 C2.5686756,21.70233 3.20984623,22.0953835 3.96578869,22.3892268 C4.69708829,22.6733954 5.53275496,22.8677546 6.75645536,22.9236117 C7.98262004,22.9795145 8.37416766,22.9927486 11.496372,22.9927486 C14.618622,22.9927486 15.0100784,22.9795145 16.2362887,22.9236117 C17.4599891,22.8677546 18.2956558,22.6733954 19.0269554,22.3892268 C19.7829435,22.0953835 20.4240685,21.70233 21.0631855,21.0632129 C21.7023482,20.4240502 22.0954018,19.7829252 22.3891994,19.0269371 C22.6734137,18.2956831 22.8677728,17.4599708 22.9235387,16.2363161 C22.9795327,15.0101058 22.9927669,14.6186038 22.9927669,11.4963538 C22.9927669,8.3741494 22.9795327,7.98264742 22.9235387,6.7564371 C22.8677728,5.53278234 22.6734137,4.69707004 22.3891994,3.96581607 C22.0954018,3.20982798 21.7023482,2.56870298 21.0631855,1.92954028 C20.4240685,1.29042321 19.7829435,0.897324008 19.0269554,0.603572024 C18.2956558,0.319357738 17.4599891,0.124998611 16.2362887,0.0691871032 C15.0100784,0.0132386905 14.618622,4.56349204e-06 11.496372,4.56349204e-06 M11.496372,2.07141925 C14.5660506,2.07141925 14.929624,2.08310179 16.14187,2.13841131 C17.262755,2.18956806 17.8714792,2.37685377 18.2765804,2.53429425 C18.8132014,2.74284583 19.1962153,2.99196687 19.5984871,3.39423869 C20.0007589,3.79655615 20.24988,4.1795244 20.4584772,4.71614544 C20.615872,5.12124663 20.8031577,5.73001647 20.8543145,6.85085575 C20.9095784,8.06310179 20.9213065,8.42672083 20.9213065,11.4963538 C20.9213065,14.5660323 20.9095784,14.9296514 20.8543145,16.1418518 C20.8031577,17.2627823 20.615872,17.8715065 20.4584772,18.2766077 C20.24988,18.8131831 20.0007589,19.196197 19.5984871,19.5984688 C19.1962153,20.0007863 18.8132014,20.2499073 18.2765804,20.4584589 C17.8714792,20.6158538 17.262755,20.8031851 16.14187,20.8542962 C14.9298065,20.9096058 14.5662788,20.9213339 11.496372,20.9213339 C8.42646528,20.9213339 8.0629375,20.9096058 6.85087401,20.8542962 C5.72998909,20.8031851 5.12121925,20.6158538 4.71611806,20.4584589 C4.17954266,20.2499073 3.79652877,20.0007863 3.39430258,19.5984688 C2.99198512,19.196197 2.74281845,18.8131831 2.53426687,18.2766077 C2.37687202,17.8715065 2.18958631,17.2627823 2.13842956,16.1418974 C2.08312004,14.9296514 2.0714375,14.5660323 2.0714375,11.4963538 C2.0714375,8.42672083 2.08312004,8.06310179 2.13842956,6.85085575 C2.18958631,5.73001647 2.37687202,5.12124663 2.53426687,4.71614544 C2.74281845,4.1795244 2.99198512,3.79655615 3.39425694,3.39428433 C3.79652877,2.99196687 4.17954266,2.74284583 4.71611806,2.53429425 C5.12121925,2.37685377 5.72998909,2.18956806 6.85082837,2.13841131 C8.06312004,2.08310179 8.42669345,2.07141925 11.496372,2.07141925" id="path-1"></path>
        <filter x="-50%" y="-50%" width="200%" height="200%" filterUnits="objectBoundingBox" id="filter-2">
            <feMorphology radius="0.5" operator="dilate" in="SourceAlpha" result="shadowSpreadOuter1"></feMorphology>
            <feOffset dx="0" dy="0" in="shadowSpreadOuter1" result="shadowOffsetOuter1"></feOffset>
            <feGaussianBlur stdDeviation="2" in="shadowOffsetOuter1" result="shadowBlurOuter1"></feGaussianBlur>
            <feComposite in="shadowBlurOuter1" in2="SourceAlpha" operator="out" result="shadowBlurOuter1"></feComposite>
            <feColorMatrix values="0 0 0 0 0   0 0 0 0 0   0 0 0 0 0  0 0 0 0.3 0" type="matrix" in="shadowBlurOuter1"></feColorMatrix>
        </filter>
        <mask id="mask-3" maskContentUnits="userSpaceOnUse" maskUnits="objectBoundingBox" x="-0.5" y="-0.5" width="23.992744" height="23.992744">
            <rect x="-0.499977183" y="-0.499995437" width="23.992744" height="23.992744" fill="white"></rect>
            <use xlink:href="#path-1" fill="black"></use>
        </mask>
        <path d="M11.496372,15.3285006 C9.37996131,15.3285006 7.6642252,13.6127645 7.6642252,11.4963538 C7.6642252,9.37994306 9.37996131,7.66425258 11.496372,7.66425258 C13.6127827,7.66425258 15.3285188,9.37994306 15.3285188,11.4963538 C15.3285188,13.6127645 13.6127827,15.3285006 11.496372,15.3285006 M11.496372,5.5928379 C8.23593948,5.5928379 5.59281052,8.23592123 5.59281052,11.4963538 C5.59281052,14.7568319 8.23593948,17.3999153 11.496372,17.3999153 C14.7568046,17.3999153 17.3998879,14.7568319 17.3998879,11.4963538 C17.3998879,8.23592123 14.7568046,5.5928379 11.496372,5.5928379" id="path-4"></path>
        <filter x="-50%" y="-50%" width="200%" height="200%" filterUnits="objectBoundingBox" id="filter-5">
            <feMorphology radius="0.5" operator="dilate" in="SourceAlpha" result="shadowSpreadOuter1"></feMorphology>
            <feOffset dx="0" dy="0" in="shadowSpreadOuter1" result="shadowOffsetOuter1"></feOffset>
            <feGaussianBlur stdDeviation="2" in="shadowOffsetOuter1" result="shadowBlurOuter1"></feGaussianBlur>
            <feComposite in="shadowBlurOuter1" in2="SourceAlpha" operator="out" result="shadowBlurOuter1"></feComposite>
            <feColorMatrix values="0 0 0 0 0   0 0 0 0 0   0 0 0 0 0  0 0 0 0.3 0" type="matrix" in="shadowBlurOuter1"></feColorMatrix>
        </filter>
        <mask id="mask-6" maskContentUnits="userSpaceOnUse" maskUnits="objectBoundingBox" x="-0.5" y="-0.5" width="12.8070774" height="12.8070774">
            <rect x="5.09281052" y="5.0928379" width="12.8070774" height="12.8070774" fill="white"></rect>
            <use xlink:href="#path-4" fill="black"></use>
        </mask>
        <path d="M19.0127218,5.35958869 C19.0127218,6.12150933 18.3950988,6.73913234 17.6331782,6.73913234 C16.8712575,6.73913234 16.2535889,6.12150933 16.2535889,5.35958869 C16.2535889,4.59766806 16.8712575,3.9799994 17.6331782,3.9799994 C18.3950988,3.9799994 19.0127218,4.59766806 19.0127218,5.35958869" id="path-7"></path>
        <filter x="-50%" y="-50%" width="200%" height="200%" filterUnits="objectBoundingBox" id="filter-8">
            <feMorphology radius="0.5" operator="dilate" in="SourceAlpha" result="shadowSpreadOuter1"></feMorphology>
            <feOffset dx="0" dy="0" in="shadowSpreadOuter1" result="shadowOffsetOuter1"></feOffset>
            <feGaussianBlur stdDeviation="2" in="shadowOffsetOuter1" result="shadowBlurOuter1"></feGaussianBlur>
            <feComposite in="shadowBlurOuter1" in2="SourceAlpha" operator="out" result="shadowBlurOuter1"></feComposite>
            <feColorMatrix values="0 0 0 0 0   0 0 0 0 0   0 0 0 0 0  0 0 0 0.3 0" type="matrix" in="shadowBlurOuter1"></feColorMatrix>
        </filter>
        <mask id="mask-9" maskContentUnits="userSpaceOnUse" maskUnits="objectBoundingBox" x="-0.5" y="-0.5" width="3.75913294" height="3.75913294">
            <rect x="15.7535889" y="3.4799994" width="3.75913294" height="3.75913294" fill="white"></rect>
            <use xlink:href="#path-7" fill="black"></use>
        </mask>
    </defs>
    <g id="Icons" stroke="none" stroke-width="1" fill="none" fill-rule="evenodd">
        <g id="icons_web" transform="translate(-449.000000, -449.000000)">
            <g id="instagramWeb" transform="translate(450.000000, 450.000000)">
                <g>
                    <g transform="translate(4.000000, 4.000000)">
                        <g id="Fill-1">
                            <use fill="black" fill-opacity="1" filter="url(#filter-2)" xlink:href="#path-1"></use>
                            <use fill="#FFFFFF" fill-rule="evenodd" xlink:href="#path-1"></use>
                            <use stroke-opacity="0.23" stroke="#000000" mask="url(#mask-3)" stroke-width="1" stroke-linecap="round" xlink:href="#path-1"></use>
                        </g>
                        <g id="Fill-4">
                            <use fill="black" fill-opacity="1" filter="url(#filter-5)" xlink:href="#path-4"></use>
                            <use fill="#FFFFFF" fill-rule="evenodd" xlink:href="#path-4"></use>
                            <use stroke-opacity="0.23" stroke="#000000" mask="url(#mask-6)" stroke-width="1" stroke-linecap="round" xlink:href="#path-4"></use>
                        </g>
                        <g id="Fill-6">
                            <use fill="black" fill-opacity="1" filter="url(#filter-8)" xlink:href="#path-7"></use>
                            <use fill="#FFFFFF" fill-rule="evenodd" xlink:href="#path-7"></use>
                            <use stroke-opacity="0.23" stroke="#000000" mask="url(#mask-9)" stroke-width="1" stroke-linecap="round" xlink:href="#path-7"></use>
                        </g>
                    </g>
                </g>
            </g>
        </g>
    </g>
</svg>
