<?xml version="1.0" encoding="UTF-8"?>
<svg width="34px" height="17px" viewBox="0 0 34 17" version="1.1" xmlns="http://www.w3.org/2000/svg" xmlns:xlink="http://www.w3.org/1999/xlink">
    <!-- Generator: sketchtool 41.2 (35397) - http://www.bohemiancoding.com/sketch -->
    <title>852D6A22-610B-44F1-9173-F30AA93E45A2</title>
    <desc>Created with sketchtool.</desc>
    <defs></defs>
    <g id="Icons" stroke="none" stroke-width="1" fill="none" fill-rule="evenodd">
        <g id="icons_web" transform="translate(-300.000000, -500.000000)">
            <g id="kikActive" transform="translate(300.000000, 500.000000)">
                <g>
                    <g>
                        <path d="M29.0845297,14.2432464 L29.1094984,14.2250953 L25.8914516,9.88690781 L28.1940661,7.61953281 L28.1749411,7.6016474 C28.4779307,7.28298594 28.6651964,6.85231927 28.6651964,6.37711615 C28.6651964,5.3969599 27.8733682,4.60238698 26.8965766,4.60238698 C26.3763943,4.60238698 25.9099568,4.82914219 25.586337,5.18800156 L25.5838578,5.18569948 L22.3113578,8.38612656 L22.2939151,1.87441823 L22.2704516,1.8741526 C22.2723109,1.84139219 22.2753214,1.80898594 22.2753214,1.77569427 C22.2753214,0.794918229 21.496863,-8.85416664e-06 20.5364516,-8.85416664e-06 C19.5760401,-8.85416664e-06 18.7973161,0.794918229 18.7973161,1.77569427 C18.7973161,1.79650156 18.7997068,1.81668906 18.8005036,1.83740781 L18.7585349,1.83687656 L18.7585349,15.2041891 L18.7986443,15.2057828 C18.7983786,15.2175589 18.796962,15.2289807 18.796962,15.2408453 C18.796962,16.2107307 19.5718786,16.9969807 20.528837,16.9969807 C21.4521495,16.9969807 22.2043109,16.2637672 22.2555766,15.3407203 L22.2808109,15.3416943 L22.2808109,13.0373089 L23.1736651,12.2090901 L26.0969568,16.1169651 C26.4026911,16.6429911 26.9655505,16.9969807 27.6111964,16.9969807 C28.5820557,16.9969807 29.3691911,16.1987776 29.3691911,15.2141943 C29.3691911,14.8557776 29.2639151,14.5227724 29.0845297,14.2432464 Z M10.3509635,14.2250865 L7.13282813,9.88689896 L9.43553125,7.61952396 L9.41631771,7.60163854 C9.71939583,7.28297708 9.90657292,6.85231042 9.90657292,6.37710729 C9.90657292,5.39695104 9.11483333,4.60237813 8.13786458,4.60237813 C7.61768229,4.60237813 7.15133333,4.82913333 6.827625,5.18799271 L6.82523438,5.18569063 L3.55273438,8.38611771 L3.53529167,1.87440938 L3.51173958,1.87414375 C3.51351042,1.84138333 3.51660938,1.80897708 3.51660938,1.77577396 C3.51660938,0.794909375 2.73815104,-1.77083333e-05 1.77765104,-1.77083333e-05 C0.817505208,-1.77083333e-05 0.03878125,0.794909375 0.03878125,1.77577396 C0.03878125,1.79649271 0.041171875,1.81668021 0.0417916667,1.83739896 L0.000177083333,1.83686771 L0,15.2041802 L0.03984375,15.205774 C0.0396666667,15.21755 0.0381614583,15.2289719 0.0381614583,15.2408365 C0.0381614583,16.2107219 0.813520833,16.9969719 1.77003646,16.9969719 C2.6934375,16.9969719 3.4456875,16.2638469 3.49704167,15.3407115 L3.52209896,15.3416854 L3.5221875,13.0373 L4.41495313,12.2090813 L7.33709375,16.1151854 C7.64273958,16.6421854 8.20621875,16.9969719 8.85266146,16.9969719 C9.82352083,16.9969719 10.6106563,16.1987688 10.6106563,15.2141854 C10.6106563,14.8557688 10.5053802,14.5227635 10.3259063,14.2432375 L10.3509635,14.2250865 Z M16.2803156,6.43363229 L16.2572948,6.43354375 C16.257826,6.41574688 16.259951,6.39848125 16.259951,6.38050729 C16.259951,5.39778333 15.475826,4.60135104 14.5084198,4.60135104 C13.540925,4.60135104 12.7566229,5.39778333 12.7566229,6.38050729 C12.7566229,6.39440833 12.7583052,6.40768958 12.7586594,6.42141354 L12.7378521,6.421325 L12.7340448,15.2428198 L12.757774,15.2428198 C12.7700813,16.214476 13.5486281,16.9986896 14.5084198,16.9986896 C15.4680344,16.9986896 16.2463156,16.2145646 16.2587115,15.2429969 L16.2804927,15.2429969 L16.2803156,6.43363229 Z" id="Combined-Shape" fill="#82BC23"></path>
                        <path d="M32.0348531,8.49651146 C33.1157698,8.49651146 33.991801,9.36873542 33.991801,10.4446937 C33.991801,11.5208292 33.1157698,12.3929646 32.0348531,12.3929646 C30.9539365,12.3929646 30.0779052,11.5208292 30.0779052,10.4446937 C30.0779052,9.36873542 30.9539365,8.49651146 32.0348531,8.49651146" id="Fill-10" fill="#3DB4E7"></path>
                    </g>
                </g>
            </g>
        </g>
    </g>
</svg>
