<?xml version="1.0" encoding="UTF-8"?>
<svg width="34px" height="17px" viewBox="0 0 34 17" version="1.1" xmlns="http://www.w3.org/2000/svg" xmlns:xlink="http://www.w3.org/1999/xlink">
    <!-- Generator: sketchtool 41.2 (35397) - http://www.bohemiancoding.com/sketch -->
    <title>C1182FA2-634C-4533-A487-38A614EABF00</title>
    <desc>Created with sketchtool.</desc>
    <defs></defs>
    <g id="Icons" stroke="none" stroke-width="1" fill="none" fill-rule="evenodd">
        <g id="icons_web" transform="translate(-300.000000, -450.000000)" fill="#FFFFFF">
            <g id="kik" transform="translate(300.000000, 450.000000)">
                <g>
                    <path d="M29.091545,14.2466996 L29.1165198,14.2285442 L25.8976967,9.88931029 L28.2008667,7.62138839 L28.1817371,7.60349866 C28.4847997,7.28476034 28.6721105,6.85398979 28.6721105,6.37867204 C28.6721105,5.39827938 27.8800914,4.60351481 26.9030641,4.60351481 C26.3827564,4.60351481 25.9162064,4.83032471 25.5925085,5.18927064 L25.5900287,5.186968 L22.3167394,8.38816704 L22.2992925,1.87488806 L22.2758233,1.87462237 C22.2776831,1.84185405 22.2806943,1.80943998 22.2806943,1.77614029 C22.2806943,0.795127679 21.5020482,8.85630231e-06 20.541405,8.85630231e-06 C19.5807619,8.85630231e-06 18.8018501,0.795127679 18.8018501,1.77614029 C18.8018501,1.7969526 18.8042413,1.81714497 18.8050384,1.83786872 L18.7630595,1.83733734 L18.7630595,15.2078741 L18.8031786,15.2094682 C18.8029129,15.2212471 18.8014959,15.2326717 18.8014959,15.2445392 C18.8014959,16.2146585 19.5765995,17.0010982 20.5337886,17.0010982 C21.4573238,17.0010982 22.2096667,16.2677078 22.2609447,15.3444383 L22.2861852,15.3454125 L22.2861852,13.0404712 L23.1792547,12.2120527 L26.1032515,16.1208703 C26.4090596,16.6470232 26.9720547,17.0010982 27.6178563,17.0010982 C28.5889498,17.0010982 29.3762751,16.2027025 29.3762751,15.2178817 C29.3762751,14.8593786 29.2709737,14.5262931 29.091545,14.2466996 Z M10.3534602,14.2285353 L7.13454859,9.88930143 L9.43780714,7.62137953 L9.41858896,7.6034898 C9.72174019,7.28475148 9.90896242,6.85398093 9.90896242,6.37866319 C9.90896242,5.39827052 9.11703187,4.60350595 8.13982747,4.60350595 C7.61951971,4.60350595 7.15305826,4.83031585 6.82927185,5.18926179 L6.82688065,5.18695915 L3.55359131,8.38815819 L3.53614439,1.8748792 L3.51258663,1.87461351 C3.51435789,1.84184519 3.5174576,1.80943113 3.5174576,1.77621999 C3.5174576,0.795118823 2.73881149,-3.55271368e-15 1.77807982,-3.55271368e-15 C0.817702394,-3.55271368e-15 0.0387906042,0.795118823 0.0387906042,1.77621999 C0.0387906042,1.79694374 0.0411818058,1.81713611 0.041801747,1.83785986 L0.000177126047,1.83732848 L0,15.2078652 L0.0398533605,15.2094594 C0.0396762344,15.2212382 0.038170663,15.2326629 0.038170663,15.2445303 C0.038170663,16.2146497 0.813717058,17.0010893 1.7704634,17.0010893 C2.69408717,17.0010893 3.44651861,16.2677875 3.49788517,15.3444294 L3.5229485,15.3454036 L3.52303707,13.0404624 L4.41601803,12.2120438 L7.33886349,16.1190902 C7.64458304,16.6462173 8.20819812,17.0010893 8.85479676,17.0010893 C9.82589031,17.0010893 10.6132156,16.2026937 10.6132156,15.2178729 C10.6132156,14.8593697 10.5079141,14.5262842 10.3283969,14.2466907 L10.3534602,14.2285353 Z M16.2842425,6.43520182 L16.2612161,6.43511326 C16.2617475,6.41731209 16.263873,6.4000423 16.263873,6.38206401 C16.263873,5.39910301 15.4795589,4.60247862 14.5119193,4.60247862 C13.5441911,4.60247862 12.7596999,5.39910301 12.7596999,6.38206401 C12.7596999,6.3959684 12.7613826,6.40925286 12.7617368,6.42298012 L12.7409245,6.42289156 L12.7371163,15.2465141 L12.7608512,15.2465141 C12.7731614,16.2184048 13.5518961,17.0028074 14.5119193,17.0028074 C15.4717653,17.0028074 16.2502343,16.2184933 16.2626331,15.2466913 L16.2844196,15.2466913 L16.2842425,6.43520182 Z M32.0425801,8.49857856 C33.1237574,8.49857856 34,9.37101291 34,10.4472308 C34,11.5236257 33.1237574,12.3959715 32.0425801,12.3959715 C30.9614027,12.3959715 30.0851601,11.5236257 30.0851601,10.4472308 C30.0851601,9.37101291 30.9614027,8.49857856 32.0425801,8.49857856 Z"></path>
                </g>
            </g>
        </g>
    </g>
</svg>