<?xml version="1.0" encoding="UTF-8"?>
<svg width="50px" height="64px" viewBox="0 0 50 64" version="1.1" xmlns="http://www.w3.org/2000/svg" xmlns:xlink="http://www.w3.org/1999/xlink">
    <!-- Generator: sketchtool 41.2 (35397) - http://www.bohemiancoding.com/sketch -->
    <title>D64F836D-9240-4E74-A780-308F7DC04FB5</title>
    <desc>Created with sketchtool.</desc>
    <defs></defs>
    <g id="Icons" stroke="none" stroke-width="1" fill="none" fill-rule="evenodd">
        <g id="icons_web" transform="translate(-158.000000, -450.000000)" fill="#FFFFFF">
            <g id="madeWithFun" transform="translate(158.000000, 450.000000)">
                <g>
                    <g>
                        <path d="M0.0003,5.9921 C0.0003,2.6821 2.6883,0.0001 6.0063,0.0001 L43.9933,0.0001 C47.3113,0.0001 50.0003,2.6881 50.0003,5.9921 L50.0003,64.0001 L0.0003,64.0001 L0.0003,5.9921 Z" id="Fill-1" opacity="0.07"></path>
                        <g id="mwf" opacity="0.6" transform="translate(9.000000, 16.000000)">
                            <path d="M31.8833638,28.506596 C28.8142328,34.362362 22.7280877,38 16.0000698,38 C9.27193415,38 3.18578903,34.362362 0.11665803,28.506366 C-0.149926256,27.9977888 0.0558354018,27.3742528 0.576415924,27.1138714 C1.0968788,26.8536049 1.73486935,27.0545527 2.00145363,27.5631299 C4.70659002,32.7244305 10.0705106,35.9307435 16.0000698,35.9307435 C21.9295113,35.9307435 27.2934318,32.7245455 29.9985682,27.5633599 C30.2650349,27.0550125 30.9029078,26.8534899 31.4236059,27.1141013 C31.9440688,27.3744827 32.1499481,27.9980187 31.8833638,28.506596" id="Path"></path>
                            <path d="M10.3340064,6.09997559 L10.3340064,0.0302753315 L8.08630629,0.0302753315 L7.18540625,2.70567544 L6.30270622,0.0302753315 L4.03680612,0.0302753315 L4.03680612,6.09997559 L5.75670619,6.09997559 L5.75670619,2.81487545 L6.85780624,6.09997559 L7.51300627,6.09997559 L8.62320631,2.81487545 L8.62320631,6.09997559 L10.3340064,6.09997559 Z M16.9193734,6.09997559 L15.1357733,0.0302753315 L13.0518732,0.0302753315 L11.2682731,6.09997559 L13.1337732,6.09997559 L13.3066732,5.31737555 L14.8809733,5.31737555 L15.0538733,6.09997559 L16.9193734,6.09997559 Z M14.5442733,3.81587549 L13.6433732,3.81587549 L14.0983733,1.80477541 L14.5442733,3.81587549 Z M20.1559402,6.09997559 C21.9395403,6.09997559 22.9860404,4.88967554 22.9860404,3.06057546 C22.9860404,1.24057538 21.9304403,0.0302753315 20.1468402,0.0302753315 L17.8536401,0.0302753315 L17.8536401,6.09997559 L20.1559402,6.09997559 Z M20.1468402,4.59847552 L19.5735402,4.59847552 L19.5735402,1.53177539 L20.1468402,1.53177539 C20.8566403,1.53177539 21.2388403,2.03227542 21.2388403,3.06057546 C21.2388403,4.0251755 20.8202403,4.59847552 20.1468402,4.59847552 L20.1468402,4.59847552 Z M28.0244073,6.09997559 L28.0244073,4.59847552 L25.9132072,4.59847552 L25.9132072,3.77947549 L27.9607073,3.77947549 L27.9607073,2.27797543 L25.9132072,2.27797543 L25.9132072,1.53177539 L28.0244073,1.53177539 L28.0244073,0.0302753315 L24.1933071,0.0302753315 L24.1933071,6.09997559 L28.0244073,6.09997559 Z" id="MADE"></path>
                            <path d="M10.270094,15.0999756 L11.8768941,8.22987546 L9.79629401,8.22987546 L9.157694,12.1953755 L8.35429399,8.22987546 L6.88139396,8.22987546 L6.08829395,12.1953755 L5.43939393,8.22987546 L3.3587939,8.22987546 L4.97589393,15.0999756 L6.96379396,15.0999756 L7.62299397,11.3713755 L8.27189399,15.0999756 L10.270094,15.0999756 Z M14.9634608,15.0999756 L14.9634608,8.22987546 L13.0167608,8.22987546 L13.0167608,15.0999756 L14.9634608,15.0999756 Z M19.7083276,15.0999756 L19.7083276,9.92937549 L21.1194277,9.92937549 L21.1194277,8.22987546 L16.3299276,8.22987546 L16.3299276,9.92937549 L17.7513276,9.92937549 L17.7513276,15.0999756 L19.7083276,15.0999756 Z M28.1096945,15.0999756 L28.1096945,8.22987546 L26.1629945,8.22987546 L26.1629945,10.7121755 L24.4325944,10.7121755 L24.4325944,8.22987546 L22.4858944,8.22987546 L22.4858944,15.0999756 L24.4325944,15.0999756 L24.4325944,12.4116755 L26.1629945,12.4116755 L26.1629945,15.0999756 L28.1096945,15.0999756 Z" id="WITH"></path>
                            <path d="M6.52839385,26.0999756 L6.52839385,22.7339756 L9.49839381,22.7339756 L9.49839381,20.5559757 L6.52839385,20.5559757 L6.52839385,19.4735757 L9.59079381,19.4735757 L9.59079381,17.2955757 L4.03359389,17.2955757 L4.03359389,26.0999756 L6.52839385,26.0999756 Z M15.1171937,26.2583756 C17.3347937,26.2583756 18.7735937,25.0043756 18.7735937,22.8659756 L18.7735937,17.2955757 L16.2523937,17.2955757 L16.2523937,22.8923756 C16.2523937,23.6183756 15.8563937,24.0671756 15.1171937,24.0671756 C14.3779937,24.0671756 13.9819938,23.6183756 13.9819938,22.8923756 L13.9819938,17.2955757 L11.4607938,17.2955757 L11.4607938,22.8791756 C11.4607938,25.0043756 12.9127938,26.2583756 15.1171937,26.2583756 L15.1171937,26.2583756 Z M28.1147936,26.0999756 L28.1147936,17.2955757 L25.6199936,17.2955757 L25.6199936,21.0971757 L23.4551936,17.2955757 L20.9207937,17.2955757 L20.9207937,26.0999756 L23.4155936,26.0999756 L23.4155936,22.0343756 L25.7519936,26.0999756 L28.1147936,26.0999756 Z" id="FUN"></path>
                        </g>
                    </g>
                </g>
            </g>
        </g>
    </g>
</svg>