<?xml version="1.0" encoding="UTF-8"?>
<svg width="14px" height="13px" viewBox="0 0 14 13" version="1.1" xmlns="http://www.w3.org/2000/svg" xmlns:xlink="http://www.w3.org/1999/xlink">
    <!-- Generator: sketchtool 42 (36781) - http://www.bohemiancoding.com/sketch -->
    <title>4618DFAB-D424-4AD7-8ADB-B9E466730281</title>
    <desc>Created with sketchtool.</desc>
    <defs></defs>
    <g id="Web" stroke="none" stroke-width="1" fill="none" fill-rule="evenodd">
        <g id="04-1_password-reset_3" transform="translate(-413.000000, -286.000000)">
            <g id="match" transform="translate(413.000000, 286.000000)">
                <g id="Combined-Shape">
                    <g>
                        <path d="M7.15656205,5.32871933 C5.98300391,2.99273294 4,1 4,1 C4,1 0,5.01962483 0,8.33333333 C0,11.6470418 1.790861,13 4,13 C6.209139,13 8,11.6470418 8,8.33333333 C8,8.02970468 7.9664172,7.72014936 7.90540585,7.40830265 L5.90969533,9.40401316 C5.96838044,9.59225429 6,9.79243457 6,10 C6,11.1045695 5.1045695,12 4,12 C2.8954305,12 2,11.1045695 2,10 C2,8.8954305 2.8954305,8 4,8 C4.15021818,8 4.29656829,8.01656116 4.43732411,8.04795726 L7.15656205,5.32871933 Z" fill="#FFCC00"></path>
                        <path d="M7.15656205,5.32871933 L12.4852814,-1.77635684e-14 L13.8994949,1.41421356 L7.90540585,7.40830265 C7.76938682,6.71306986 7.49704107,6.0064483 7.15656205,5.32871933 Z" fill="#FAECA2"></path>
                    </g>
                </g>
            </g>
        </g>
    </g>
</svg>