<?xml version="1.0" encoding="UTF-8"?>
<svg width="20px" height="20px" viewBox="0 0 20 20" version="1.1" xmlns="http://www.w3.org/2000/svg" xmlns:xlink="http://www.w3.org/1999/xlink">
    <!-- Generator: sketchtool 41.2 (35397) - http://www.bohemiancoding.com/sketch -->
    <title>73217CBB-C50C-4ADD-BF41-6BD7DEB7E7F7</title>
    <desc>Created with sketchtool.</desc>
    <defs></defs>
    <g id="Icons" stroke="none" stroke-width="1" fill="none" fill-rule="evenodd">
        <g id="icons_web" transform="translate(-300.000000, -50.000000)" fill="#FFFFFF">
            <g id="more" transform="translate(300.000000, 50.000000)">
                <g>
                    <path d="M14,9.69636011 C14,8.75948629 14.7523694,8 15.6963601,8 L16.3036399,8 C17.2405137,8 18,8.7523694 18,9.69636011 L18,10.3036399 C18,11.2405137 17.2476306,12 16.3036399,12 L15.6963601,12 C14.7594863,12 14,11.2476306 14,10.3036399 L14,9.69636011 Z M8,9.69636011 C8,8.75948629 8.7523694,8 9.69636011,8 L10.3036399,8 C11.2405137,8 12,8.7523694 12,9.69636011 L12,10.3036399 C12,11.2405137 11.2476306,12 10.3036399,12 L9.69636011,12 C8.75948629,12 8,11.2476306 8,10.3036399 L8,9.69636011 Z M2,9.69636011 C2,8.75948629 2.7523694,8 3.69636011,8 L4.30363989,8 C5.24051371,8 6,8.7523694 6,9.69636011 L6,10.3036399 C6,11.2405137 5.2476306,12 4.30363989,12 L3.69636011,12 C2.75948629,12 2,11.2476306 2,10.3036399 L2,9.69636011 Z"></path>
                </g>
            </g>
        </g>
    </g>
</svg>