<?xml version="1.0" encoding="UTF-8"?>
<svg width="100px" height="100px" viewBox="0 0 100 100" version="1.1" xmlns="http://www.w3.org/2000/svg" xmlns:xlink="http://www.w3.org/1999/xlink">
    <!-- Generator: sketchtool 41.2 (35397) - http://www.bohemiancoding.com/sketch -->
    <title>BA7D8163-A402-4FA4-A582-1D7BF364C35D</title>
    <desc>Created with sketchtool.</desc>
    <defs></defs>
    <g id="Icons" stroke="none" stroke-width="1" fill="none" fill-rule="evenodd">
        <g id="icons_web" transform="translate(-50.000000, -450.000000)">
            <g id="profile" transform="translate(50.000000, 450.000000)">
                <g>
                    <rect id="Rectangle-6" fill="#080D11" x="0" y="0" width="100" height="100"></rect>
                    <g opacity="0.3" stroke-width="1" transform="translate(26.000000, 26.000000)" fill="#FFFFFF">
                        <path d="M4,44.9931545 C4,38.9228798 8.92364414,34 14.9931567,34 L33.0068433,34 C39.0787864,34 44,38.9207946 44,44.9931545 L44,46 C44,47.1045695 44.8954305,48 46,48 C47.1045695,48 48,47.1045695 48,46 L48,44.9931545 C48,36.7115793 41.2878491,30 33.0068433,30 L14.9931567,30 C6.71464414,30 0,36.7136018 0,44.9931545 L0,46 C0,47.1045695 0.8954305,48 2,48 C3.1045695,48 4,47.1045695 4,46 L4,44.9931545 Z" id="Rectangle-2"></path>
                        <path d="M33,13 C33,8.02943725 28.9705627,4 24,4 C19.0294373,4 15,8.02943725 15,13 C15,17.9705627 19.0294373,22 24,22 C28.9705627,22 33,17.9705627 33,13 Z M11,13 C11,5.82029825 16.8202983,0 24,0 C31.1797017,0 37,5.82029825 37,13 C37,20.1797017 31.1797017,26 24,26 C16.8202983,26 11,20.1797017 11,13 Z" id="Oval-2"></path>
                    </g>
                </g>
            </g>
        </g>
    </g>
</svg>