<?xml version="1.0" encoding="UTF-8"?>
<svg width="20px" height="20px" viewBox="0 0 20 20" version="1.1" xmlns="http://www.w3.org/2000/svg" xmlns:xlink="http://www.w3.org/1999/xlink">
    <!-- Generator: sketchtool 41.2 (35397) - http://www.bohemiancoding.com/sketch -->
    <title>896C9D5F-9DD1-4772-84E4-149BDCC72FA6</title>
    <desc>Created with sketchtool.</desc>
    <defs></defs>
    <g id="Icons" stroke="none" stroke-width="1" fill="none" fill-rule="evenodd">
        <g id="icons_web" transform="translate(-250.000000, -50.000000)" fill="#FFFFFF">
            <g id="search" transform="translate(250.000000, 50.000000)">
                <g>
                    <g>
                        <path d="M16,9 C16,5.13400675 12.8659932,2 9,2 C5.13400675,2 2,5.13400675 2,9 C2,12.8659932 5.13400675,16 9,16 C12.8659932,16 16,12.8659932 16,9 Z M0,9 C0,4.02943725 4.02943725,0 9,0 C13.9705627,0 18,4.02943725 18,9 C18,13.9705627 13.9705627,18 9,18 C4.02943725,18 0,13.9705627 0,9 Z" id="Oval"></path>
                        <path d="M18.2928932,19.7071068 C18.6834175,20.0976311 19.3165825,20.0976311 19.7071068,19.7071068 C20.0976311,19.3165825 20.0976311,18.6834175 19.7071068,18.2928932 L15.7071068,14.2928932 C15.3165825,13.9023689 14.6834175,13.9023689 14.2928932,14.2928932 C13.9023689,14.6834175 13.9023689,15.3165825 14.2928932,15.7071068 L18.2928932,19.7071068 Z" id="Line"></path>
                    </g>
                </g>
            </g>
        </g>
    </g>
</svg>