<?xml version="1.0" encoding="UTF-8"?>
<svg width="32px" height="32px" viewBox="0 0 32 32" version="1.1" xmlns="http://www.w3.org/2000/svg" xmlns:xlink="http://www.w3.org/1999/xlink">
    <!-- Generator: sketchtool 42 (36781) - http://www.bohemiancoding.com/sketch -->
    <title>89E1D032-5A59-4AAA-9341-BE1F8561BA77</title>
    <desc>Created with sketchtool.</desc>
    <defs></defs>
    <g id="Icons" stroke="none" stroke-width="1" fill="none" fill-rule="evenodd">
        <g id="icons_web" transform="translate(-450.000000, -800.000000)">
            <g id="smileyNeutral" transform="translate(450.000000, 800.000000)">
                <g>
                    <g>
                        <path d="M15.9999467,0 C24.8365039,0 32,7.16341333 32,16 C32,24.83648 24.8365039,32 15.9999467,32 C7.16349612,32 0,24.83648 0,16 C0,7.16341333 7.16349612,0 15.9999467,0" id="Fill-1" fill="#FFCC00"></path>
                        <path d="M21.7693555,21.1733333 L10.0933953,21.1733333 C9.7704186,21.1733333 9.50867774,20.9106133 9.50867774,20.5866667 C9.50867774,20.26272 9.7704186,20 10.0933953,20 L21.7693555,20 C22.0922259,20 22.3540731,20.26272 22.3540731,20.5866667 C22.3540731,20.9106133 22.0922259,21.1733333 21.7693555,21.1733333 Z M12.7726777,12.21664 C12.7726777,13.77952 12.1435216,15.0458667 11.1171827,15.0465067 C10.074897,15.0471467 9.46179402,13.77952 9.46179402,12.21664 C9.46179402,10.6536533 10.074897,9.38666667 11.1171827,9.38666667 C12.1435216,9.38666667 12.7726777,10.6536533 12.7726777,12.21664 Z M22.4009993,12.21664 C22.4009993,13.77952 21.7717369,15.0458667 20.7455043,15.0465067 C19.7032186,15.0471467 19.0900093,13.77952 19.0900093,12.21664 C19.0900093,10.6536533 19.7031123,9.38666667 20.7455043,9.38666667 C21.7717369,9.38666667 22.4009993,10.6536533 22.4009993,12.21664 Z" id="Combined-Shape" fill="#080D11"></path>
                    </g>
                </g>
            </g>
        </g>
    </g>
</svg>
