<?xml version="1.0" encoding="UTF-8"?>
<svg width="22px" height="22px" viewBox="0 0 22 22" version="1.1" xmlns="http://www.w3.org/2000/svg" xmlns:xlink="http://www.w3.org/1999/xlink">
    <!-- Generator: sketchtool 41.2 (35397) - http://www.bohemiancoding.com/sketch -->
    <title>683B37CA-8C0D-4F6A-A67D-6DC35B87F409</title>
    <desc>Created with sketchtool.</desc>
    <defs></defs>
    <g id="Icons" stroke="none" stroke-width="1" fill="none" fill-rule="evenodd">
        <g id="icons_web" transform="translate(-50.000000, -100.000000)" fill="#FFCC00">
            <g id="smileActive" transform="translate(50.000000, 100.000000)">
                <g id="Combined-Shape">
                    <g>
                        <path d="M11,22 C17.0751322,22 22,17.0751322 22,11 C22,4.92486775 17.0751322,0 11,0 C4.92486775,0 0,4.92486775 0,11 C0,17.0751322 4.92486775,22 11,22 Z M11,18.0000284 C13.1888651,18.0000284 15.2394898,17.1153579 16.7354289,15.5772072 C17.1204828,15.1812881 17.1116747,14.5481844 16.7157556,14.1631305 C16.3198365,13.7780766 15.6867328,13.7868846 15.3016789,14.1828038 C14.1785155,15.33766 12.6431766,16.0000284 11,16.0000284 C9.36561987,16.0000284 7.83781531,15.3447892 6.71593728,14.2008416 C6.32923511,13.8065322 5.69610016,13.8003654 5.3017908,14.1870676 C4.90748144,14.5737697 4.90131459,15.2069047 5.28801677,15.601214 C6.78227042,17.1248626 8.82287215,18.0000284 11,18.0000284 Z M13,7.74382395 C13,7.05687895 13.554831,6.5 14.25,6.5 C14.9403559,6.5 15.5,7.06233555 15.5,7.74382395 L15.5,8.75617605 C15.5,9.44312105 14.945169,10 14.25,10 C13.5596441,10 13,9.43766445 13,8.75617605 L13,7.74382395 Z M6.5,7.74382395 C6.5,7.05687895 7.05483103,6.5 7.75,6.5 C8.44035594,6.5 9,7.06233555 9,7.74382395 L9,8.75617605 C9,9.44312105 8.44516897,10 7.75,10 C7.05964406,10 6.5,9.43766445 6.5,8.75617605 L6.5,7.74382395 Z"></path>
                    </g>
                </g>
            </g>
        </g>
    </g>
</svg>