<?xml version="1.0" encoding="UTF-8"?>
<svg width="18px" height="18px" viewBox="0 0 18 18" version="1.1" xmlns="http://www.w3.org/2000/svg" xmlns:xlink="http://www.w3.org/1999/xlink">
    <!-- Generator: sketchtool 41.2 (35397) - http://www.bohemiancoding.com/sketch -->
    <title>1900A304-0052-45B8-A42C-702B056A55DE</title>
    <desc>Created with sketchtool.</desc>
    <defs></defs>
    <g id="Icons" stroke="none" stroke-width="1" fill="none" fill-rule="evenodd">
        <g id="icons_web" transform="translate(-50.000000, -150.000000)" fill="#FFFFFF">
            <g id="smileSmall" transform="translate(50.000000, 150.000000)">
                <g>
                    <g>
                        <path d="M16.5,9 C16.5,4.85786438 13.1421356,1.5 9,1.5 C4.85786438,1.5 1.5,4.85786438 1.5,9 C1.5,13.1421356 4.85786438,16.5 9,16.5 C13.1421356,16.5 16.5,13.1421356 16.5,9 Z M0,9 C0,4.02943725 4.02943725,0 9,0 C13.9705627,0 18,4.02943725 18,9 C18,13.9705627 13.9705627,18 9,18 C4.02943725,18 0,13.9705627 0,9 Z" id="Oval-4"></path>
                        <path d="M10.5,6.49895656 C10.5,5.94724809 10.9438648,5.5 11.5,5.5 C12.0522847,5.5 12.5,5.94266033 12.5,6.49895656 L12.5,7.50104344 C12.5,8.05275191 12.0561352,8.5 11.5,8.5 C10.9477153,8.5 10.5,8.05733967 10.5,7.50104344 L10.5,6.49895656 Z M5.5,6.49895656 C5.5,5.94724809 5.94386482,5.5 6.5,5.5 C7.05228475,5.5 7.5,5.94266033 7.5,6.49895656 L7.5,7.50104344 C7.5,8.05275191 7.05613518,8.5 6.5,8.5 C5.94771525,8.5 5.5,8.05733967 5.5,7.50104344 L5.5,6.49895656 Z M9,14 C10.4342075,14 11.7851787,13.4715569 12.7657457,12.5428133 C13.066478,12.2579748 13.0793625,11.7832759 12.794524,11.4825436 C12.5096855,11.1818113 12.0349866,11.1689268 11.7342543,11.4537652 C11.0347759,12.1162759 10.0537807,12.5 9,12.5 C7.95555091,12.5 6.98836273,12.1236634 6.25921548,11.4493644 C5.95510783,11.1681324 5.48059632,11.1866769 5.19936438,11.4907845 C4.91813243,11.7948922 4.93667686,12.2694037 5.24078452,12.5506356 C6.24795564,13.4820449 7.57910454,14 9,14 Z" id="Combined-Shape"></path>
                    </g>
                </g>
            </g>
        </g>
    </g>
</svg>