<?xml version="1.0" encoding="UTF-8"?>
<svg width="32px" height="32px" viewBox="0 0 32 32" version="1.1" xmlns="http://www.w3.org/2000/svg" xmlns:xlink="http://www.w3.org/1999/xlink">
    <!-- Generator: sketchtool 42 (36781) - http://www.bohemiancoding.com/sketch -->
    <title>90143116-C1A3-49F7-9810-82935658A619</title>
    <desc>Created with sketchtool.</desc>
    <defs></defs>
    <g id="Icons" stroke="none" stroke-width="1" fill="none" fill-rule="evenodd">
        <g id="icons_web" transform="translate(-400.000000, -800.000000)">
            <g id="smileyYum" transform="translate(400.000000, 800.000000)">
                <g>
                    <g>
                        <path d="M15.9999787,0 C24.8365653,0 31.9999787,7.16341333 31.9999787,16 C31.9999787,24.8365867 24.8365653,32 15.9999787,32 C7.16349867,32 -2.13333333e-05,24.8365867 -2.13333333e-05,16 C-2.13333333e-05,7.16341333 7.16349867,0 15.9999787,0" id="Fill-1" fill="#FFCC00"></path>
                        <path d="M13.5999787,25.3986453 L13.5999787,26.945312 C13.5999787,28.270752 14.6745387,29.345312 15.9999787,29.345312 C17.3255253,29.345312 18.3999787,28.270752 18.3999787,26.945312 L18.3999787,25.3986453 L13.5999787,25.3986453 Z" id="Fill-8" fill="#EE4566"></path>
                        <path d="M22.703936,10.9818667 C22.703936,12.5447467 22.0726827,13.8112 21.0429227,13.81184 C19.9971627,13.8123733 19.382016,12.5447467 19.382016,10.9818667 C19.382016,9.41898667 19.9971627,8.152 21.0429227,8.152 C22.0726827,8.152 22.703936,9.41898667 22.703936,10.9818667 Z M9.29696,12.2134293 C9.24661333,12.2134293 9.19573333,12.208736 9.14453333,12.198816 C8.71061333,12.1150827 8.42688,11.6955627 8.51050667,11.2617493 C8.65525333,10.511776 9.44181333,9.09332267 11.3826133,9.09332267 C13.3409067,9.09332267 14.06112,10.5381227 14.16832,11.302176 L12.5837867,11.5244693 L12.5858133,11.5375893 C12.4472533,10.7541227 11.6298667,10.6933227 11.3826133,10.6933227 C10.2626133,10.6933227 10.0884267,11.529376 10.0816,11.564896 C10.0077867,11.9475093 9.67264,12.2134293 9.29696,12.2134293 Z M16.0253973,25.95968 C12.0704107,25.95968 9.51819733,24.2528 8.073504,22.8208 C6.506784,21.2679467 5.880544,19.7169067 5.854624,19.6516267 C5.73515733,19.3505067 5.882464,19.0094933 6.183584,18.8900267 C6.48449067,18.7707733 6.82497067,18.91744 6.944864,19.21792 C6.95339733,19.2388267 7.52971733,20.64352 8.934624,22.0221867 C10.8038507,23.85632 13.1895573,24.7863467 16.0253973,24.7863467 C18.8259307,24.7863467 21.192224,23.8562133 23.058784,22.0218667 C24.466144,20.6385067 25.050464,19.2290133 25.056224,19.21504 C25.178464,18.9154133 25.5204373,18.77088 25.820064,18.89216 C26.119904,19.0136533 26.2650773,19.3543467 26.144224,19.6545067 C26.117984,19.71968 25.4832107,21.2688 23.9197973,22.82048 C22.4768107,24.2525867 19.935904,25.95968 16.0253973,25.95968 Z M7.11857067,8.43467733 C7.004864,8.43467733 6.89009067,8.40161067 6.78907733,8.33291733 C6.52113067,8.150624 6.45179733,7.78571733 6.63409067,7.51777067 C6.681024,7.448864 7.80913067,5.825504 9.99259733,5.59585067 C10.3147307,5.56171733 10.6034773,5.795744 10.6373973,6.11787733 C10.6713173,6.44011733 10.437504,6.728864 10.115264,6.76267733 C8.466944,6.93611733 7.612544,8.165664 7.60411733,8.17803733 C7.49051733,8.34475733 7.30619733,8.43467733 7.11857067,8.43467733 Z M24.134464,6.72801067 C23.9468373,6.72801067 23.7625173,6.63809067 23.6489173,6.47137067 C23.6152107,6.422944 22.7660373,5.22731733 21.1377707,5.05601067 C20.8155307,5.02219733 20.5817173,4.73345067 20.6156373,4.41121067 C20.6495573,4.08907733 20.9388373,3.855584 21.2604373,3.889184 C23.443904,4.11883733 24.5720107,5.74219733 24.618944,5.811104 C24.8012373,6.07905067 24.731904,6.44395733 24.4639573,6.62625067 C24.362944,6.694944 24.248064,6.72801067 24.134464,6.72801067 Z" id="Combined-Shape" fill="#171A1E"></path>
                    </g>
                </g>
            </g>
        </g>
    </g>
</svg>
