<?xml version="1.0" encoding="UTF-8"?>
<svg width="32px" height="32px" viewBox="0 0 32 32" version="1.1" xmlns="http://www.w3.org/2000/svg" xmlns:xlink="http://www.w3.org/1999/xlink">
    <!-- Generator: sketchtool 42 (36781) - http://www.bohemiancoding.com/sketch -->
    <title>DE6F5542-7176-4B59-9950-29CBE3C7C70E</title>
    <desc>Created with sketchtool.</desc>
    <defs></defs>
    <g id="Icons" stroke="none" stroke-width="1" fill="none" fill-rule="evenodd">
        <g id="icons_web" transform="translate(-400.000000, -750.000000)">
            <g id="smileyFeelgood" transform="translate(400.000000, 750.000000)">
                <g>
                    <g>
                        <path d="M16.0000427,1.06666667e-05 C24.8365227,1.06666667e-05 32.0000427,7.163424 32.0000427,16.0000107 C32.0000427,24.8364907 24.8365227,32.0000107 16.0000427,32.0000107 C7.163456,32.0000107 4.26666666e-05,24.8364907 4.26666666e-05,16.0000107 C4.26666666e-05,7.163424 7.163456,1.06666667e-05 16.0000427,1.06666667e-05" id="Fill-1" fill="#FFCC00"></path>
                        <path d="M23.3413973,7.01741424 C26.742144,7.01741424 29.4990507,9.45528091 29.4990507,12.4625342 C29.4990507,15.4698942 26.742144,17.9077609 23.3413973,17.9077609 C19.940544,17.9077609 17.1836373,15.4698942 17.1836373,12.4625342 C17.1836373,12.4625342 17.1785173,11.9727209 17.172864,11.3938409 L14.8271573,11.3938409 C14.821504,11.9727209 14.8162773,12.4625342 14.8162773,12.4625342 C14.8162773,15.4698942 12.0593707,17.9077609 8.65873067,17.9077609 C5.25787733,17.9077609 2.50097067,15.4698942 2.50097067,12.4625342 C2.50097067,9.45528091 5.25787733,7.01741424 8.65873067,7.01741424 C13.798464,7.01741424 14.8408107,6.61858757 14.8408107,9.63821424 C14.8408107,9.75117424 14.8396373,9.94328091 14.8379307,10.1726142 L17.161984,10.1726142 C17.160384,9.94328091 17.1592107,9.75117424 17.1592107,9.63821424 C17.1592107,6.61858757 18.2014507,7.01741424 23.3413973,7.01741424 Z M14.6938987,24.0055893 C14.6938987,25.0515627 13.8460053,25.899456 12.800032,25.899456 C11.753952,25.899456 10.9060587,25.0515627 10.9060587,24.0055893 C10.9060587,22.959616 11.753952,22.1117227 12.800032,22.1117227 C13.8460053,22.1117227 14.6938987,22.959616 14.6938987,24.0055893 Z" id="Combined-Shape" fill="#171A1E"></path>
                        <path d="M25.1891093,16.0100002 C24.995296,16.0100002 24.8082027,15.9037959 24.7138027,15.7191392 C24.5797227,15.4567773 24.683616,15.1352825 24.9459093,15.0010061 C26.216416,14.3508651 27.0056427,13.1525178 27.0056427,11.87369 C27.0056427,11.5788798 27.2444693,11.3400002 27.538976,11.3400002 C27.8335893,11.3400002 28.0723093,11.5788798 28.0723093,11.87369 C28.0723093,13.5553469 27.0604693,15.1178842 25.431456,15.9514011 C25.3538027,15.9911076 25.2709227,16.0100002 25.1891093,16.0100002 Z M10.3624427,16.0100002 C10.1686293,16.0100002 9.981536,15.9037959 9.887136,15.7191392 C9.753056,15.4567773 9.85694933,15.1352825 10.1192427,15.0010061 C11.3897493,14.3508651 12.178976,13.1525178 12.178976,11.87369 C12.178976,11.5788798 12.4178027,11.3400002 12.7123093,11.3400002 C13.0069227,11.3400002 13.2456427,11.5788798 13.2456427,11.87369 C13.2456427,13.5553469 12.2338027,15.1178842 10.6047893,15.9514011 C10.527136,15.9911076 10.444256,16.0100002 10.3624427,16.0100002 Z" id="Combined-Shape" fill="#FFFFFF"></path>
                    </g>
                </g>
            </g>
        </g>
    </g>
</svg>
