<?xml version="1.0" encoding="UTF-8"?>
<svg width="32px" height="32px" viewBox="0 0 32 32" version="1.1" xmlns="http://www.w3.org/2000/svg" xmlns:xlink="http://www.w3.org/1999/xlink">
    <!-- Generator: sketchtool 42 (36781) - http://www.bohemiancoding.com/sketch -->
    <title>F64DB1AB-7386-4F59-B02D-04FFEB1590CB</title>
    <desc>Created with sketchtool.</desc>
    <defs></defs>
    <g id="Icons" stroke="none" stroke-width="1" fill="none" fill-rule="evenodd">
        <g id="icons_web" transform="translate(-500.000000, -750.000000)">
            <g id="smileyIronic" transform="translate(500.000000, 750.000000)">
                <g>
                    <g>
                        <path d="M16.0000107,-1.06666667e-05 C24.8364907,-1.06666667e-05 32.0000107,7.16340267 32.0000107,15.9999893 C32.0000107,24.836576 24.8364907,31.9999893 16.0000107,31.9999893 C7.163424,31.9999893 1.06666667e-05,24.836576 1.06666667e-05,15.9999893 C1.06666667e-05,7.16340267 7.163424,-1.06666667e-05 16.0000107,-1.06666667e-05" id="Fill-1" fill="#FFCC00"></path>
                        <path d="M22.2847573,11.5442133 C22.526144,11.5408 22.724864,11.79872 22.730944,12.1233067 C22.7569707,13.5152 22.039104,14.7217067 21.024064,14.9921067 C19.8767573,15.2977067 18.758464,14.2906667 18.5313707,12.7470933 C18.504384,12.5636267 18.4907307,12.3746133 18.4910507,12.1853867 C18.4913707,11.8976 18.6437973,11.6576 18.8463573,11.6036267 C18.872704,11.5965867 18.9000107,11.5927467 18.9278507,11.5924267 L22.2847573,11.5442133 Z M13.0072,11.5836373 C13.2026133,11.6354773 13.3507733,11.8738773 13.3526933,12.1615573 C13.35408,12.3506773 13.3420267,12.539904 13.3170667,12.7236907 C13.10704,14.2697173 12.03568,15.2885973 10.9289067,14.9951573 C9.94970667,14.7355307 9.25146667,13.536704 9.26874667,12.144704 C9.27269333,11.819904 9.46266667,11.5598507 9.6952,11.5608107 L12.9285867,11.573184 C12.9554667,11.5732907 12.9817067,11.5769173 13.0072,11.5836373 Z M13.3025173,10.791712 L8.929184,10.791712 C8.60523733,10.791712 8.34251733,10.5290987 8.34251733,10.2050453 C8.34251733,9.880992 8.60523733,9.61837867 8.929184,9.61837867 L13.3025173,9.61837867 C13.626464,9.61837867 13.889184,9.880992 13.889184,10.2050453 C13.889184,10.5290987 13.626464,10.791712 13.3025173,10.791712 Z M18.994496,8.676192 C18.694976,8.676192 18.5005227,8.65837867 18.4721493,8.65560533 C18.1495893,8.624032 17.9137493,8.33709867 17.9453227,8.01464533 C17.9767893,7.69240533 18.263296,7.45645867 18.5853227,7.487712 C18.6070827,7.48973867 20.7677227,7.679712 21.9046827,6.606112 C22.1405227,6.38360533 22.5117227,6.394272 22.7341227,6.62989867 C22.9565227,6.86541867 22.945856,7.23672533 22.710336,7.459232 C21.576896,8.52941867 19.854016,8.676192 18.994496,8.676192 Z M15.836576,23.8947307 C15.5279893,23.8947307 15.2694293,23.6538773 15.2514027,23.3418773 C15.232736,23.018464 15.479776,22.7411307 15.803296,22.7223573 C19.218656,22.525024 22.335136,20.4569707 24.353376,17.0483307 C24.5183893,16.769504 24.878496,16.6772373 25.1570027,16.842464 C25.4358293,17.0074773 25.5279893,17.3673707 25.362976,17.6460907 C23.1423893,21.396384 19.6827627,23.673504 15.8709227,23.8937707 C15.8594027,23.8944107 15.8478827,23.8947307 15.836576,23.8947307 Z" id="Combined-Shape" fill="#171A1E"></path>
                    </g>
                </g>
            </g>
        </g>
    </g>
</svg>
