<?xml version="1.0" encoding="UTF-8"?>
<svg width="16px" height="14px" viewBox="0 0 16 14" version="1.1" xmlns="http://www.w3.org/2000/svg" xmlns:xlink="http://www.w3.org/1999/xlink">
    <!-- Generator: sketchtool 41.2 (35397) - http://www.bohemiancoding.com/sketch -->
    <title>FB0F6F7E-1BC8-41F7-BD34-E5693558DA90</title>
    <desc>Created with sketchtool.</desc>
    <defs></defs>
    <g id="Icons" stroke="none" stroke-width="1" fill="none" fill-rule="evenodd">
        <g id="icons_web" transform="translate(-350.000000, -250.000000)" fill="#FFCC00">
            <g id="starYellow" transform="translate(350.000000, 250.000000)">
                <g>
                    <path d="M10.389,5 L8.924,0.606 C8.771,0.249 8.418,0 8.005,0 C7.592,0 7.239,0.249 7.086,0.606 L5.621,5 L1.5,5 C0.948,5.018 0.5,5.466 0.5,6 C0.5,6.381 0.694,6.7 0.984,6.86 L4.336,8.852 L3.08,12.619 C3.032,12.736 3.005,12.865 3.005,13 C3.005,13.552 3.452,14 4.005,14 C4.238,14 4.453,13.919 4.623,13.785 L8.005,11.42 L11.387,13.785 C11.557,13.919 11.772,14 12.005,14 C12.558,14 13.005,13.552 13.005,13 C13.005,12.865 12.978,12.736 12.93,12.619 L11.674,8.852 L15.026,6.86 C15.316,6.7 15.51,6.381 15.51,6 C15.51,5.466 15.062,5.018 14.51,5 L10.389,5 Z"></path>
                </g>
            </g>
        </g>
    </g>
</svg>
