<?xml version="1.0" encoding="UTF-8"?>
<svg width="26px" height="18px" viewBox="0 0 26 18" version="1.1" xmlns="http://www.w3.org/2000/svg" xmlns:xlink="http://www.w3.org/1999/xlink">
    <!-- Generator: sketchtool 41.2 (35397) - http://www.bohemiancoding.com/sketch -->
    <title>1A58A24E-88B1-4EA2-BF5D-79CEEDCB6203</title>
    <desc>Created with sketchtool.</desc>
    <defs></defs>
    <g id="Icons" stroke="none" stroke-width="1" fill="none" fill-rule="evenodd">
        <g id="icons_web" transform="translate(-450.000000, -200.000000)" fill="#FFFFFF">
            <g id="tick" transform="translate(450.000000, 200.000000)">
                <g id="Line">
                    <g>
                        <path d="M23.8494205,0.382446289 L8.91954994,15.8583317 C8.43139458,16.346487 8.43139458,17.1379433 8.91954994,17.6260986 C9.40770531,18.114254 10.1991615,18.114254 10.6873169,17.6260986 L25.6171875,2.15021324 C26.1053429,1.66205788 26.1053429,0.870601654 25.6171875,0.382446289 C25.1290321,-0.105709076 24.3375759,-0.105709076 23.8494205,0.382446289 Z"></path>
                        <path d="M0.366116524,9.13388348 L8.90661049,17.6299496 C9.39476585,18.1181049 10.1862221,18.1181049 10.6743774,17.6299496 C11.1625328,17.1417942 11.1625328,16.350338 10.6743774,15.8621826 L2.13388348,7.36611652 C1.64572811,6.87796116 0.854271888,6.87796116 0.366116524,7.36611652 C-0.122038841,7.85427189 -0.122038841,8.64572811 0.366116524,9.13388348 Z"></path>
                    </g>
                </g>
            </g>
        </g>
    </g>
</svg>
