<?xml version="1.0" encoding="UTF-8"?>
<svg width="20px" height="17px" viewBox="0 0 20 17" version="1.1" xmlns="http://www.w3.org/2000/svg" xmlns:xlink="http://www.w3.org/1999/xlink">
    <!-- Generator: sketchtool 41.2 (35397) - http://www.bohemiancoding.com/sketch -->
    <title>65EE84EA-1CD6-4A3F-9073-C4E619EFB683</title>
    <desc>Created with sketchtool.</desc>
    <defs></defs>
    <g id="Icons" stroke="none" stroke-width="1" fill="none" fill-rule="evenodd">
        <g id="icons_web" transform="translate(-500.000000, -350.000000)" fill="#FFFFFF">
            <g id="twitter" transform="translate(500.000000, 350.000000)">
                <g>
                    <path d="M6.28984,17 C13.83728,17 17.96472,10.4602319 17.96472,4.78946539 C17.96472,4.60363327 17.96112,4.41872152 17.95296,4.23464647 C18.75408,3.62895589 19.45056,2.87316048 20,2.01260963 C19.26472,2.35423619 18.47352,2.58441367 17.64352,2.68824873 C18.49064,2.15702487 19.14112,1.31630393 19.44784,0.314266308 C18.65488,0.805830356 17.77704,1.16343797 16.8424,1.35596374 C16.0936,0.521769089 15.02728,0 13.8472,0 C11.58104,0 9.74328,1.92207818 9.74328,4.29129138 C9.74328,4.62814872 9.77936,4.95555129 9.84976,5.2698176 C6.4396,5.09051177 3.41552,3.38271368 1.392,0.786000453 C1.03928,1.42005532 0.83624,2.15702487 0.83624,2.94302533 C0.83624,4.43194145 1.56072,5.74632096 2.66224,6.51525264 C1.9892,6.49358198 1.3568,6.30013584 0.80376,5.97842286 C0.80288,5.99632834 0.80288,6.01423382 0.80288,6.03305968 C0.80288,8.11176899 2.21752,9.84692732 4.09488,10.2404296 C3.75024,10.3384914 3.3876,10.3913711 3.0132,10.3913711 C2.74888,10.3913711 2.49176,10.3640109 2.24184,10.3139759 C2.76416,12.0190129 4.27896,13.2597624 6.07512,13.2947366 C4.67048,14.4457914 2.90136,15.1318056 0.9788,15.1318056 C0.64776,15.1318056 0.32112,15.1119757 0,15.0723159 C1.816,16.289554 3.97216,17 6.28984,17"></path>
                </g>
            </g>
        </g>
    </g>
</svg>
