<?xml version="1.0" encoding="UTF-8"?>
<svg width="28px" height="28px" viewBox="0 0 28 28" version="1.1" xmlns="http://www.w3.org/2000/svg" xmlns:xlink="http://www.w3.org/1999/xlink">
    <!-- Generator: sketchtool 41.2 (35397) - http://www.bohemiancoding.com/sketch -->
    <title>39C9DD99-F77D-4447-BE73-7D789C619BD1</title>
    <desc>Created with sketchtool.</desc>
    <defs></defs>
    <g id="Icons" stroke="none" stroke-width="1" fill="none" fill-rule="evenodd">
        <g id="icons_web" transform="translate(-200.000000, -100.000000)">
            <g id="verifiedProfile" transform="translate(200.000000, 100.000000)">
                <g>
                    <g>
                        <path d="M10.2593106,2.98723266 L8.84509703,3.57301909 L11.3060848,1.1120313 C12.7875186,-0.369402498 15.1843957,-0.371953448 16.6683805,1.1120313 L19.1293683,3.57301909 L17.7151547,2.98723266 L21.195517,2.98723266 C23.2905808,2.98723266 24.9872327,4.68027692 24.9872327,6.77894828 L24.9872327,10.2593106 L24.4014462,8.84509703 L26.862434,11.3060848 C28.3438678,12.7875186 28.3464188,15.1843957 26.862434,16.6683805 L24.4014462,19.1293683 L24.9872327,17.7151547 L24.9872327,21.195517 C24.9872327,23.2905808 23.2941884,24.9872327 21.195517,24.9872327 L17.7151547,24.9872327 L19.1293683,24.4014462 L16.6683805,26.862434 C15.1869467,28.3438678 12.7900696,28.3464188 11.3060848,26.862434 L8.84509703,24.4014462 L10.2593106,24.9872327 L6.77894828,24.9872327 C4.68388451,24.9872327 2.98723266,23.2941884 2.98723266,21.195517 L2.98723266,17.7151547 L3.57301909,19.1293683 L1.1120313,16.6683805 C-0.369402498,15.1869467 -0.371953448,12.7900696 1.1120313,11.3060848 L3.57301909,8.84509703 L2.98723266,10.2593106 L2.98723266,6.77894828 C2.98723266,4.68388451 4.68027692,2.98723266 6.77894828,2.98723266 L10.2593106,2.98723266 Z" id="Combined-Shape" fill="#FFFFFF"></path>
                        <path d="M6.77894828,4.98723266 C5.78389567,4.98723266 4.98723266,5.78941106 4.98723266,6.77894828 L4.98723266,10.2593106 L2.52624486,12.7202984 C1.82263642,13.4239068 1.82653639,14.5544584 2.52624486,15.2541669 L4.98723266,17.7151547 L4.98723266,21.195517 C4.98723266,22.1905696 5.78941106,22.9872327 6.77894828,22.9872327 L10.2593106,22.9872327 L12.7202984,25.4482205 C13.4239068,26.1518289 14.5544584,26.1479289 15.2541669,25.4482205 L17.7151547,22.9872327 L21.195517,22.9872327 C22.1905696,22.9872327 22.9872327,22.1850542 22.9872327,21.195517 L22.9872327,17.7151547 L25.4482205,15.2541669 C26.1518289,14.5505585 26.1479289,13.4200069 25.4482205,12.7202984 L22.9872327,10.2593106 L22.9872327,6.77894828 C22.9872327,5.78389567 22.1850542,4.98723266 21.195517,4.98723266 L17.7151547,4.98723266 L15.2541669,2.52624486 C14.5505585,1.82263642 13.4200069,1.82653639 12.7202984,2.52624486 L10.2593106,4.98723266 L6.77894828,4.98723266 Z" id="Path" fill="#3388FF"></path>
                        <path d="M13.3812635,18.0056343 C13.0694961,18.0299247 12.7482993,17.9379777 12.4881748,17.7230808 L9.46711766,15.2272922 C8.93489112,14.7876035 8.85987444,13.9997104 9.29956322,13.4674839 C9.739252,12.9352573 10.527145,12.8602407 11.0593716,13.2999294 L13.214393,15.0802591 L17.8504363,10.3984807 C18.3361897,9.90793517 19.1276364,9.90405047 19.6181819,10.3898039 C20.1087274,10.8755574 20.1126121,11.6670041 19.6268587,12.1575496 L14.2008943,17.6370418 C13.9738281,17.866348 13.6799647,17.9893135 13.3812635,18.0056343 Z" id="Combined-Shape" fill="#FFFFFF"></path>
                    </g>
                </g>
            </g>
        </g>
    </g>
</svg>