<?xml version="1.0" encoding="UTF-8"?>
<svg width="27px" height="30px" viewBox="0 0 27 30" version="1.1" xmlns="http://www.w3.org/2000/svg" xmlns:xlink="http://www.w3.org/1999/xlink">
    <!-- Generator: sketchtool 42 (36781) - http://www.bohemiancoding.com/sketch -->
    <title>E0C65A14-B1D8-47E4-81C4-D2069F89E9C9</title>
    <desc>Created with sketchtool.</desc>
    <defs>
        <path d="M22,16.880554 C21.7118207,16.9556582 21.4213671,17.01926 21.1253903,17.0706827 C20.6240817,17.1593192 20.1191993,17.2202145 19.6126925,17.2215678 C19.3868924,17.2225827 19.2890999,17.3125724 19.1926069,17.508114 C17.9703626,20.0126027 16.3549988,22.206187 14.3549627,24.0919117 C14.1668502,24.2678315 13.9663917,24.4329255 13.7597603,24.5834722 C13.0336263,25.1122465 12.2938469,25.1450623 11.5387975,24.6389546 C10.892587,24.205583 10.3331228,23.6730873 9.82141761,23.0824029 C8.24796491,21.2667078 7.16282512,19.1495809 6.30088623,16.8951012 C5.12965002,13.826316 4.46719492,10.6269442 4.02794073,7.36836858 L4,7 L7.46724907,7 L7.49518979,7.52804961 C7.61962349,8.57612553 7.78206956,9.61472884 7.98122845,10.6496108 C8.70606285,14.4342542 9.98516326,17.9692268 12.3078173,21.0312459 C12.7698139,21.6391841 12.7646156,21.644597 13.2571521,21.0803004 C14.3965489,19.7720662 15.3384113,18.3197131 16.1265996,16.7574102 C16.2204935,16.5713412 16.2178943,16.478645 16.0236088,16.3612524 C14.0846525,15.1903709 13.0716387,13.3665564 12.6846922,11.1225643 C12.4523943,9.78117601 12.4751367,8.44790707 12.9309604,7.14880717 C13.7227226,4.88519324 15.6113207,3.79212246 17.8891396,4.03265892 C20.4336949,4.30093659 21.4921936,6.11020385 21.6965507,8.18741048 C21.8401531,9.64382326 21.6419688,11.0474601 21.162428,12.4162513 C21.1253903,12.5167286 21.0353952,12.749484 21.0353952,12.749484 C21.0353952,12.749484 20.8398101,12.7691058 20.7004314,12.7812849 C19.806978,12.8550358 18.9856506,12.696708 18.3209212,12.0001334 C18.2257278,11.8996561 18.0934967,11.7436965 18.0934967,11.7436965 C18.0934967,11.7436965 18.1458044,11.5271798 18.1734202,11.4253493 C18.4489288,10.4236215 18.6039023,9.40599325 18.3755031,8.36738994 C18.1977871,7.55714404 17.7484613,7.14339425 17.1035503,7.16741406 C16.6519503,7.18466774 16.3436276,7.43704496 16.1175027,7.82136201 C15.8764327,8.2351118 15.7926105,8.69622461 15.7646698,9.16951647 C15.6961175,10.3535919 15.8650615,11.4953789 16.4768334,12.511654 C17.4982943,14.2082649 19.050629,14.7661336 20.888219,14.5875074 C21.2725665,14.5492786 21.6432684,14.4819555 22,14.3841847 L22,16.880554 Z" id="path-1"></path>
        <filter x="-50%" y="-50%" width="200%" height="200%" filterUnits="objectBoundingBox" id="filter-2">
            <feMorphology radius="0.5" operator="dilate" in="SourceAlpha" result="shadowSpreadOuter1"></feMorphology>
            <feOffset dx="0" dy="0" in="shadowSpreadOuter1" result="shadowOffsetOuter1"></feOffset>
            <feGaussianBlur stdDeviation="2" in="shadowOffsetOuter1" result="shadowBlurOuter1"></feGaussianBlur>
            <feComposite in="shadowBlurOuter1" in2="SourceAlpha" operator="out" result="shadowBlurOuter1"></feComposite>
            <feColorMatrix values="0 0 0 0 0   0 0 0 0 0   0 0 0 0 0  0 0 0 0.3 0" type="matrix" in="shadowBlurOuter1"></feColorMatrix>
        </filter>
        <mask id="mask-3" maskContentUnits="userSpaceOnUse" maskUnits="objectBoundingBox" x="-0.5" y="-0.5" width="19" height="22">
            <rect x="3.5" y="3.5" width="19" height="22" fill="white"></rect>
            <use xlink:href="#path-1" fill="black"></use>
        </mask>
    </defs>
    <g id="Icons" stroke="none" stroke-width="1" fill="none" fill-rule="evenodd">
        <g id="icons_web" transform="translate(-400.000000, -449.000000)">
            <g id="vineWeb" transform="translate(400.000000, 450.000000)">
                <g>
                    <g>
                        <use fill="black" fill-opacity="1" filter="url(#filter-2)" xlink:href="#path-1"></use>
                        <use fill="#FFFFFF" fill-rule="evenodd" xlink:href="#path-1"></use>
                        <use stroke-opacity="0.23" stroke="#000000" mask="url(#mask-3)" stroke-width="1" stroke-linecap="round" xlink:href="#path-1"></use>
                    </g>
                </g>
            </g>
        </g>
    </g>
</svg>
