<svg width="38" height="38" viewBox="0 0 38 38" fill="none" xmlns="http://www.w3.org/2000/svg">
    <path d="M-6.55454e-07 19C-4.061e-05 5.81818 2.06448 4 16.0176 4C29.9354 4 32 5.81818 32 19C32 32.1818 29.9706 34 16.0176 34C2.06451 34 3.92991e-05 32.1818 -6.55454e-07 19Z" fill="#111820"/>
    <path d="M-6.55454e-07 19C-4.061e-05 5.81818 2.06448 4 16.0176 4C29.9354 4 32 5.81818 32 19C32 32.1818 29.9706 34 16.0176 34C2.06451 34 3.92991e-05 32.1818 -6.55454e-07 19Z" fill="#DFE3EB"/>
    <rect x="31" y="5" width="7" height="28" rx="3.5" fill="#C2C5CC"/>
    <rect x="7" y="5" width="5" height="22" rx="2.5" transform="rotate(-90 7 5)" fill="#C2C5CC"/>
    <rect x="7" y="38" width="5" height="22" rx="2.5" transform="rotate(-90 7 38)" fill="#C2C5CC"/>
</svg>
